<?xml version="1.0" encoding="utf-8"?>
<!-- Generator: Adobe Illustrator 18.1.1, SVG Export Plug-In . SVG Version: 6.00 Build 0)  -->
<svg version="1.1" id="Layer_1" xmlns="http://www.w3.org/2000/svg" xmlns:xlink="http://www.w3.org/1999/xlink" x="0px" y="0px"
	 viewBox="0 0 203.1 33.8" enable-background="new 0 0 203.1 33.8" xml:space="preserve">
<g>
	<path fill="#F1F2F2" d="M176.9,27.3c-1.1,1-1.1,2.7-0.1,3.8c1,1.1,2.7,1.1,3.8,0.1c1.1-1,1.1-2.7,0.1-3.8
		C179.6,26.4,177.9,26.3,176.9,27.3L176.9,27.3z"/>
	<path fill="#FFFFFF" d="M8.1,19.3h7.4v-0.1c0-0.2-0.2-0.3-0.4-0.3H8.5C8.3,19,8.2,19.1,8.1,19.3L8.1,19.3L8.1,19.3L8.1,19.3z"/>
	<polygon fill="#FFFFFF" points="8.1,19.7 15.5,19.7 15.5,19.3 8.1,19.3 8.1,19.7 	"/>
	<polygon fill="#FFFFFF" points="8.1,20.1 15.5,20.1 15.5,19.7 8.1,19.7 8.1,20.1 	"/>
	<polygon fill="#FFFFFF" points="8.1,20.5 15.5,20.5 15.5,20.1 8.1,20.1 8.1,20.5 	"/>
	<polygon fill="#FBFDFF" points="8.1,20.9 15.5,20.9 15.5,20.5 8.1,20.5 8.1,20.9 	"/>
	<polygon fill="#FBF9F9" points="8.1,21.3 15.5,21.3 15.5,20.9 8.1,20.9 8.1,21.3 	"/>
	<polygon fill="#F7F8F9" points="8.1,21.6 15.5,21.6 15.5,21.3 8.1,21.3 8.1,21.6 	"/>
	<polygon fill="#F7F8F9" points="8.1,22 15.5,22 15.5,21.6 8.1,21.6 8.1,22 	"/>
	<polygon fill="#F7F5F5" points="8.1,22.4 15.5,22.4 15.5,22 8.1,22 8.1,22.4 	"/>
	<polygon fill="#F4F4F4" points="8.1,22.8 15.5,22.8 15.5,22.4 8.1,22.4 8.1,22.8 	"/>
	<polygon fill="#F4F4F4" points="8.1,23.2 15.5,23.2 15.5,22.8 8.1,22.8 8.1,23.2 	"/>
	<polygon fill="#F1F3F4" points="8.1,23.5 15.5,23.5 15.5,23.2 8.1,23.2 8.1,23.5 	"/>
	<polygon fill="#F1F3F4" points="8.1,23.9 15.5,23.9 15.5,23.5 8.1,23.5 8.1,23.9 	"/>
	<polygon fill="#F1F1F1" points="8.1,24.3 15.5,24.3 15.5,23.9 8.1,23.9 8.1,24.3 	"/>
	<polygon fill="#F1F1F1" points="8.1,24.7 15.5,24.7 15.5,24.3 8.1,24.3 8.1,24.7 	"/>
	<polygon fill="#F1F1F1" points="8.1,25 15.5,25 15.5,24.7 8.1,24.7 8.1,25 	"/>
	<polygon fill="#F1F1F1" points="8.1,25.2 15.5,25.2 15.5,25 8.1,25 8.1,25.2 	"/>
	<polygon fill="#F1F3F4" points="8.1,25.5 15.5,25.5 15.5,25.2 8.1,25.2 8.1,25.5 	"/>
	<polygon fill="#F1F3F4" points="8.1,25.7 15.5,25.7 15.5,25.5 8.1,25.5 8.1,25.7 	"/>
	<polygon fill="#F4F4F4" points="8.1,26 15.5,26 15.5,25.7 8.1,25.7 8.1,26 	"/>
	<polygon fill="#F4F4F4" points="8.1,26.3 15.5,26.3 15.5,26 8.1,26 8.1,26.3 	"/>
	<polygon fill="#F7F5F5" points="8.1,26.5 15.5,26.5 15.5,26.3 8.1,26.3 8.1,26.5 	"/>
	<polygon fill="#F7F8F9" points="8.1,26.8 15.5,26.8 15.5,26.5 8.1,26.5 8.1,26.8 	"/>
	<polygon fill="#F7F8F9" points="8.1,27.1 15.5,27.1 15.5,26.8 8.1,26.8 8.1,27.1 	"/>
	<polygon fill="#FBF9F9" points="8.1,27.3 15.5,27.3 15.5,27.1 8.1,27.1 8.1,27.3 	"/>
	<polygon fill="#FBFDFF" points="8.1,27.6 15.5,27.6 15.5,27.3 8.1,27.3 8.1,27.6 	"/>
	<polygon fill="#FFFFFF" points="8.1,27.8 15.5,27.8 15.5,27.6 8.1,27.6 8.1,27.8 	"/>
	<polygon fill="#FFFFFF" points="8.1,28.1 15.5,28.1 15.5,27.8 8.1,27.8 8.1,28.1 	"/>
	<path fill="#FFFFFF" d="M8.2,28.4h7.4l0,0v-0.2H8.1L8.2,28.4L8.2,28.4C8.1,28.3,8.1,28.3,8.2,28.4L8.2,28.4z"/>
	<path fill="#FFFFFF" d="M8.5,28.6L8.5,28.6h6.6h0c0.2,0,0.4-0.1,0.4-0.3H8.2C8.2,28.5,8.3,28.6,8.5,28.6L8.5,28.6z"/>
	<path fill="#808285" d="M15.1,28.6c0.2,0,0.4-0.1,0.4-0.3v-9c0-0.2-0.2-0.3-0.4-0.3H8.5c-0.2,0-0.4,0.1-0.4,0.3v9
		c0,0.2,0.2,0.3,0.4,0.3H15.1L15.1,28.6z M15.5,19.3v9c0,0.2-0.2,0.3-0.4,0.3H8.5c-0.2,0-0.4-0.1-0.4-0.3v-9c0-0.2,0.2-0.3,0.4-0.3
		h6.6C15.4,18.9,15.5,19.1,15.5,19.3L15.5,19.3z"/>
	<path fill="#FFFFFF" d="M15.5,19.3c0-0.2-0.2-0.3-0.4-0.3H8.5c-0.2,0-0.4,0.1-0.4,0.3v9c0,0.2,0.2,0.3,0.4,0.3h6.6
		c0.2,0,0.4-0.1,0.4-0.3V19.3L15.5,19.3z"/>
	<polygon fill="#F1F2F2" points="8.9,27.8 14.8,27.8 14.8,19.8 8.9,19.8 8.9,27.8 	"/>
	<polygon fill="#EBEBEC" points="13.2,27.8 14.8,27.8 14.8,19.8 13.2,19.8 13.2,27.8 	"/>
	<polygon fill="#F47B20" points="8.9,27.8 14.8,27.8 14.8,27.3 8.9,27.3 8.9,27.8 	"/>
	<polygon fill="#C4C4C6" points="12,28.2 11.8,28.1 11.7,28.2 11.8,28.4 12,28.2 	"/>
	<polygon fill="#FFFFFF" points="11.9,28.2 11.8,28.1 11.8,28.2 11.8,28.3 11.9,28.2 	"/>
	<polygon fill="#808184" points="12.1,19.3 12,19.2 11.6,19.2 11.6,19.3 11.6,19.5 11.6,19.6 12,19.6 12.1,19.5 12.1,19.3 	"/>
	<polygon fill="#515255" points="9.8,28.6 13.8,28.6 13.8,28.6 9.8,28.6 9.8,28.6 	"/>
	<polygon fill="#97D7DC" points="9.1,27.1 12.9,27.1 12.9,25.4 9.1,25.4 9.1,27.1 	"/>
	<polygon fill="#939598" points="9.1,25.2 12.9,25.2 12.9,25.1 9.1,25.1 9.1,25.2 	"/>
	<polygon fill="#E6E7E8" points="9.1,24.9 12.9,24.9 12.9,24.8 9.1,24.8 9.1,24.9 	"/>
	<polygon fill="#E6E7E8" points="9.1,24.6 12.9,24.6 12.9,24.5 9.1,24.5 9.1,24.6 	"/>
	<polygon fill="#E6E7E8" points="9.1,24.3 12.9,24.3 12.9,24.2 9.1,24.2 9.1,24.3 	"/>
	<polygon fill="#E6E7E8" points="9.2,24 10.9,24 10.9,23.9 9.2,23.9 9.2,24 	"/>
	<polygon fill="#E6E7E8" points="9.2,23.7 10.9,23.7 10.9,23.6 9.2,23.6 9.2,23.7 	"/>
	<polygon fill="#E6E7E8" points="9.2,23.4 10.9,23.4 10.9,23.3 9.2,23.3 9.2,23.4 	"/>
	<polygon fill="#E6E7E8" points="9.2,23.1 10.9,23.1 10.9,23 9.2,23 9.2,23.1 	"/>
	<polygon fill="#E6E7E8" points="9.2,22.8 10.9,22.8 10.9,22.7 9.2,22.7 9.2,22.8 	"/>
	<polygon fill="#E6E7E8" points="9.2,22.5 10.9,22.5 10.9,22.4 9.2,22.4 9.2,22.5 	"/>
	<polygon fill="#ED207A" points="11.1,24 12.9,24 12.9,22.4 11.1,22.4 11.1,24 	"/>
	<path fill="#F47B20" d="M9.2,20.3c0-0.1,0.1-0.2,0.2-0.2h3.4c0.1,0,0.2,0.1,0.2,0.2v1.6c0,0.1-0.1,0.2-0.2,0.2H9.3
		c-0.1,0-0.2-0.1-0.2-0.2V20.3L9.2,20.3z"/>
	<polygon fill="#EDEDEE" points="14.8,24.8 14.8,19.8 8.9,19.8 8.9,19.8 14.8,19.8 14.8,24.8 	"/>
	<path fill="#E2E3E4" d="M13.2,24.2c-0.2-0.1-0.4-0.2-0.6-0.3h0.3v-1.6h-1.8v0.8c-0.1,0-0.1-0.1-0.2-0.1V23h-0.1
		c-0.1-0.1-0.2-0.1-0.3-0.2h0.4v-0.1h-0.6c-0.1-0.1-0.2-0.1-0.2-0.2h0.8v-0.1h-1c-0.1-0.1-0.2-0.2-0.3-0.3h3.1
		c0.1,0,0.2-0.1,0.2-0.2v-1.6c0-0.1-0.1-0.2-0.2-0.2H9.3c-0.1,0-0.2,0.1-0.2,0.2v1.4c-0.1-0.1-0.2-0.2-0.3-0.3l0-1.6h6h-1.6V24.2
		L13.2,24.2z"/>
	<path fill="#DCDDDE" d="M14.8,24.8c0,0-0.7-0.2-1.6-0.6v-4.4h1.6V24.8L14.8,24.8z"/>
	<path fill="#DADBDC" d="M10.9,23c0,0-0.1-0.1-0.1-0.1L10.9,23L10.9,23L10.9,23z"/>
	<path fill="#DADBDC" d="M10.9,22.8h-0.4c-0.1,0-0.1-0.1-0.2-0.1h0.6V22.8L10.9,22.8z"/>
	<path fill="#DADBDC" d="M10.9,22.5h-0.8c-0.1,0-0.1-0.1-0.2-0.1h1V22.5L10.9,22.5z"/>
	<path fill="#DD1B72" d="M12.9,24h-0.3c-0.5-0.2-1-0.5-1.5-0.8v-0.8h1.8V24L12.9,24z"/>
	<path fill="#E3731E" d="M12.7,22.1H9.6c-0.1-0.1-0.3-0.3-0.4-0.4v-1.4c0-0.1,0.1-0.2,0.2-0.2h3.4c0.1,0,0.2,0.1,0.2,0.2v1.6
		C12.9,22,12.8,22.1,12.7,22.1L12.7,22.1z"/>
	<polygon fill="#1A1818" points="17.1,19.4 17.1,19.2 17.1,19.2 17,19.4 17.1,19.4 	"/>
	<polygon fill="#1561AE" points="16.8,25.4 17.3,25.4 17.3,20 16.8,20 16.8,25.4 	"/>
	<path fill="#1561AE" d="M16.8,25.2c0-0.1,0.1-0.2,0.2-0.2c0.1,0,0.2,0.1,0.2,0.2v0.6c0,0.1-0.1,0.2-0.2,0.2c-0.1,0-0.2-0.1-0.2-0.2
		V25.2L16.8,25.2z"/>
	<path fill="#E6E7E8" d="M16.7,24.4v1.1h0.7c0.3,0,0.2-0.2,0.2-0.2v-0.6c0-1.2-0.1-1.5-0.2-1.6l0,0l0,0v0l0,0l0,0v0.3l0,0l0,0l0,1.4
		c0,0.2,0,0.2-0.1,0.3v-0.7H16.7L16.7,24.4z"/>
	<path fill="#0F7FB2" d="M17,21.2h0.1c0.1,0,0.2,0.1,0.2,0.2l0-0.1v-0.8c0-0.1-0.1-0.2-0.2-0.2H17c-0.1,0-0.2,0.1-0.2,0.2v0.8l0,0.1
		C16.8,21.3,16.9,21.2,17,21.2L17,21.2z"/>
	<polygon fill="#1561AE" points="17,19.3 16.8,20 17.3,20 17.1,19.3 17,19.3 	"/>
	<path fill="#D1D3D4" d="M18.9,31.4c-1.5,0-2.7-1.2-2.7-2.7c0-1.5,1.2-2.7,2.7-2.7c1.5,0,2.7,1.2,2.7,2.7
		C21.6,30.2,20.4,31.4,18.9,31.4L18.9,31.4z"/>
	<path fill="#F1F2F2" d="M18.9,30.6c-1,0-1.9-0.8-1.9-1.8c0-1,0.8-1.9,1.8-1.9c1,0,1.9,0.8,1.9,1.8C20.8,29.8,20,30.6,18.9,30.6
		L18.9,30.6z"/>
	<path fill="#DA7027" d="M18.9,30.2c-0.8,0-1.5-0.7-1.5-1.5c0-0.8,0.7-1.5,1.5-1.5c0.8,0,1.5,0.7,1.5,1.5
		C20.4,29.6,19.8,30.2,18.9,30.2L18.9,30.2z"/>
	<path fill="#DA6027" d="M18.9,29.9c-0.6,0-1.2-0.5-1.2-1.2c0-0.6,0.5-1.2,1.2-1.2c0.6,0,1.2,0.5,1.2,1.2
		C20.1,29.4,19.6,29.9,18.9,29.9L18.9,29.9z"/>
	<path fill="#C74727" d="M18.9,29.7c-0.6,0-1-0.4-1-1c0-0.6,0.4-1,1-1c0.6,0,1,0.4,1,1C19.9,29.3,19.5,29.7,18.9,29.7L18.9,29.7z"/>
	<path fill="#F1F2F2" d="M18.9,31.1c-0.1,0-0.2-0.1-0.2-0.2l0-0.3c0-0.1,0.1-0.2,0.2-0.2l0.1,0c0.1,0,0.2,0.1,0.2,0.2l0,0.3
		C19.2,31,19.1,31.1,18.9,31.1L18.9,31.1L18.9,31.1z"/>
	<polygon fill="#FFFFFF" points="18.7,26.7 19,26 19.6,26.3 19.3,26.9 18.7,26.7 	"/>
	<polygon fill="#FFFFFF" points="18.1,27.2 17.9,26.5 18.5,26.3 18.7,26.9 18.1,27.2 	"/>
	<path fill="#F1F2F2" d="M4.1,26.4c1.3,0.7,1.7,2.4,1,3.6c-0.7,1.3-2.4,1.7-3.6,1c-1.3-0.7-1.7-2.4-1-3.6
		C1.2,26.1,2.8,25.7,4.1,26.4L4.1,26.4z"/>
	<path fill="#D1D3D4" d="M3.7,27.1c0.9,0.5,1.2,1.6,0.7,2.5c-0.5,0.9-1.6,1.2-2.5,0.7c-0.9-0.5-1.2-1.6-0.7-2.5
		C1.7,26.9,2.8,26.6,3.7,27.1L3.7,27.1z"/>
	<path fill="#512C13" d="M3.5,27.4c0.7,0.4,1,1.3,0.6,2c-0.4,0.7-1.3,1-2,0.6c-0.7-0.4-1-1.3-0.6-2C1.9,27.3,2.8,27,3.5,27.4
		L3.5,27.4z"/>
	<path fill="#673B1B" d="M3.4,27.7c0.6,0.3,0.8,1,0.4,1.6c-0.3,0.6-1,0.8-1.6,0.4c-0.6-0.3-0.8-1-0.4-1.6
		C2.1,27.6,2.8,27.4,3.4,27.7L3.4,27.7z"/>
	<path fill="#7F492A" d="M3.3,27.9c0.5,0.3,0.6,0.9,0.4,1.4c-0.3,0.5-0.9,0.6-1.4,0.4c-0.5-0.3-0.6-0.9-0.4-1.4
		C2.2,27.8,2.8,27.6,3.3,27.9L3.3,27.9z"/>
	<path fill="#D1D3D4" d="M4,26.7c0.1,0.1,0.2,0.2,0.1,0.3l-0.2,0.3c0,0.1-0.2,0.1-0.3,0l-0.1,0c-0.1-0.1-0.2-0.2-0.1-0.3l0.2-0.3
		C3.7,26.7,3.8,26.7,4,26.7L4,26.7L4,26.7z"/>
	<path fill="#DEDFE0" d="M1.2,29.8c0.3,0.1,0.4,0.4,0.3,0.6c-0.1,0.2-0.4,0.2-0.6,0c-0.2-0.1-0.4-0.4-0.3-0.6
		C0.7,29.7,1,29.7,1.2,29.8L1.2,29.8z"/>
	<polygon fill="#DEDFE0" points="3.2,31.3 3.2,31.4 3.1,31.4 1.4,30.4 1.3,30.3 1.4,30.3 3.2,31.3 	"/>
	<path fill="#D1D3D4" d="M1.2,29.9c0.2,0.1,0.3,0.3,0.2,0.4c-0.1,0.1-0.3,0.1-0.5,0c-0.2-0.1-0.3-0.3-0.2-0.4
		C0.8,29.8,1,29.8,1.2,29.9L1.2,29.9z"/>
	<polygon fill="#FFFFFF" points="8.9,22.8 10.6,23.3 8.9,22.8 	"/>
	<polygon fill="#FFFFFF" points="8.8,22.9 10.7,23.5 10.7,23.4 10.7,23.4 10.6,23.3 8.9,22.8 8.8,22.9 8.8,22.9 	"/>
	<polygon fill="#FFFFFF" points="8.8,23.1 10.7,23.6 10.7,23.5 8.8,22.9 8.8,23.1 	"/>
	<polygon fill="#FFFFFF" points="8.7,23.2 10.6,23.7 10.7,23.6 8.8,23.1 8.7,23.2 8.7,23.2 	"/>
	<polygon fill="#FFFFFF" points="8.7,23.3 10.6,23.9 10.6,23.8 10.6,23.7 8.7,23.2 8.7,23.2 8.7,23.3 	"/>
	<polygon fill="#FBFDFF" points="8.7,23.5 10.6,24 10.6,23.9 8.7,23.3 8.7,23.5 	"/>
	<polygon fill="#FBF9F9" points="8.6,23.6 10.5,24.1 10.5,24 10.6,24 8.7,23.5 8.6,23.6 8.6,23.6 	"/>
	<polygon fill="#F7F8F9" points="8.6,23.7 10.5,24.2 10.5,24.2 10.5,24.1 8.6,23.6 8.6,23.7 8.6,23.7 	"/>
	<polygon fill="#F7F8F9" points="8.5,23.8 10.4,24.4 10.5,24.3 10.5,24.2 8.6,23.7 8.6,23.8 8.5,23.8 	"/>
	<polygon fill="#F7F5F5" points="8.5,24 10.4,24.5 10.4,24.5 10.4,24.4 8.5,23.8 8.5,24 	"/>
	<polygon fill="#F4F4F4" points="8.5,24.1 10.4,24.6 10.4,24.5 8.5,24 8.5,24 8.5,24.1 	"/>
	<polygon fill="#F4F4F4" points="8.4,24.2 10.3,24.8 10.4,24.6 8.5,24.1 8.4,24.2 	"/>
	<polygon fill="#F1F3F4" points="8.4,24.4 10.3,24.9 10.3,24.8 10.3,24.8 8.4,24.2 8.4,24.4 	"/>
	<polygon fill="#F1F3F4" points="8.4,24.5 10.3,25 10.3,24.9 8.4,24.4 8.4,24.5 	"/>
	<polygon fill="#F1F1F1" points="8.3,24.6 10.2,25.1 10.2,25.1 10.3,25 8.4,24.5 8.3,24.6 8.3,24.6 	"/>
	<polygon fill="#F1F1F1" points="8.3,24.7 10.2,25.3 10.2,25.2 10.2,25.1 8.3,24.6 8.3,24.7 	"/>
	<polygon fill="#F1F1F1" points="8.3,24.8 10.2,25.4 10.2,25.3 10.2,25.3 8.3,24.7 8.3,24.8 8.3,24.8 	"/>
	<polygon fill="#F1F1F1" points="8.2,24.9 10.1,25.4 10.1,25.4 10.2,25.4 8.3,24.8 8.3,24.8 8.2,24.9 	"/>
	<polygon fill="#F1F3F4" points="8.2,25 10.1,25.5 10.1,25.5 10.1,25.4 8.2,24.9 8.2,25 	"/>
	<polygon fill="#F1F3F4" points="8.2,25.1 10.1,25.6 10.1,25.5 8.2,25 8.2,25.1 	"/>
	<polygon fill="#F4F4F4" points="8.2,25.2 10.1,25.7 10.1,25.7 10.1,25.6 8.2,25.1 8.2,25.1 8.2,25.2 	"/>
	<polygon fill="#F4F4F4" points="8.1,25.3 10,25.8 10.1,25.7 10.1,25.7 8.2,25.2 8.2,25.2 8.1,25.3 	"/>
	<polygon fill="#F7F5F5" points="8.1,25.4 10,25.9 10,25.8 8.1,25.3 8.1,25.4 	"/>
	<polygon fill="#F7F8F9" points="8.1,25.4 10,26 10,26 10,25.9 8.1,25.4 8.1,25.4 	"/>
	<polygon fill="#F7F8F9" points="8.1,25.5 10,26.1 10,26 10,26 8.1,25.4 8.1,25.5 8.1,25.5 	"/>
	<polygon fill="#FBF9F9" points="8,25.6 9.9,26.2 10,26.1 8.1,25.5 8.1,25.6 8,25.6 	"/>
	<polygon fill="#FBFDFF" points="8,25.7 9.9,26.2 9.9,26.2 8,25.6 8,25.7 	"/>
	<polygon fill="#FFFFFF" points="8,25.8 9.9,26.3 9.9,26.3 9.9,26.2 8,25.7 8,25.8 	"/>
	<polygon fill="#FFFFFF" points="8,25.9 9.9,26.4 9.9,26.4 9.9,26.3 8,25.8 8,25.9 	"/>
	<polygon fill="#FFFFFF" points="8,26 9.8,26.5 9.8,26.5 9.9,26.4 8,25.9 8,26 8,26 	"/>
	<polygon fill="#FFFFFF" points="8,26.1 9.7,26.6 9.8,26.5 8,26 8,26.1 	"/>
	<polygon fill="#FFFFFF" points="9.7,26.6 8,26.1 9.7,26.6 	"/>
	<path fill="#B0B1B3" d="M9.7,26.6l0.1-0.1l0.9-3l-0.1-0.1l-1.7-0.5l-0.1,0.1L8,26L8,26.1L9.7,26.6L9.7,26.6z M10.7,23.4l-0.9,3
		l-0.1,0.1L8,26.1L7.9,26l0.9-3l0.1-0.1l1.7,0.5L10.7,23.4L10.7,23.4z"/>
	<polygon points="10.7,23.5 10.6,23.3 8.9,22.8 8.8,22.9 8,25.9 8,26.1 9.7,26.5 9.9,26.5 10.7,23.5 	"/>
	<polygon fill="#F7B718" points="10.5,23.6 8.9,23.2 8.2,25.8 9.7,26.3 10.5,23.6 	"/>
	<polygon fill="#515255" points="9.4,26.5 8.4,26.2 8.4,26.2 9.4,26.5 9.4,26.5 	"/>
	<polygon fill="#0E0E0D" points="10,25.3 10,25.3 10.5,23.6 8.9,23.2 8.8,23.7 8.9,23.1 10.5,23.6 10,25.3 	"/>
	<path fill="#E6B031" d="M10,25.3c0,0-0.9-0.3-1.3-1.3l0.1-0.2l0.1-0.5l1.5,0.4L10,25.3L10,25.3z"/>
	<polygon fill="#C4C4C6" points="9,26.2 8.9,26.1 8.9,26.2 8.9,26.2 9,26.2 	"/>
	<polygon fill="#FFFFFF" points="8.9,26.2 8.9,26.2 8.9,26.2 8.9,26.2 8.9,26.2 	"/>
	<polygon fill="#808184" points="9.8,23.2 9.8,23.2 9.7,23.2 9.7,23.2 9.6,23.2 9.7,23.3 9.8,23.3 9.8,23.3 9.8,23.2 	"/>
	<path fill="#FED3A8" d="M11.6,22.8l-0.3,1.4l-0.5,1.2l-0.5,0.3L10.1,26L10,26l-0.1-0.2l0.6-1.5l0.2-0.9c0,0,0-0.1-0.1-0.2l-1.5-0.4
		l-0.6-0.2l1.5-1.1l0.5-0.1l1.5-1.9l1.5,1.2L11.6,22.8L11.6,22.8z"/>
	<polygon fill="#FBB992" points="10.5,24.8 10.1,25.1 10.5,24.3 10.7,23.5 10.5,24.8 	"/>
	<polygon fill="#FED3A8" points="8,24.8 8.4,25 8.6,24.8 8.7,24.7 8.5,24.5 8.1,24.5 8,24.6 8,24.8 8,24.8 	"/>
	<polygon fill="#FBB992" points="9.2,22.9 10.8,21.7 12.5,19.8 12.1,19.5 10.5,21.4 10,21.5 8.5,22.6 9.2,22.9 	"/>
	<polygon fill="#FCF4DA" points="8.4,24.9 8.5,24.6 8.6,24.7 8.6,24.9 8.4,24.9 	"/>
	<polygon fill="#FCF4DA" points="10,26 10.2,25.6 10.3,25.6 10.1,26 10,26 	"/>
	<polygon fill="#FBB992" points="11.4,23.8 11.4,22.7 10.9,22 11.6,22.8 11.4,23.8 	"/>
	<polygon fill="#FBB992" points="8.2,23.3 8.8,22.9 8.7,23.2 8.2,23.3 	"/>
	<polygon fill="#FBB992" points="8.1,24.1 8.6,23.7 8.5,24 8.1,24.1 	"/>
	<polygon fill="#FED3A8" points="8.5,23.1 9,23.1 9.2,22.9 9.2,22.7 9,22.6 8.5,22.6 8.4,22.8 8.4,23 8.5,23.1 	"/>
	<polygon fill="#FCF4DA" points="8.9,23 8.9,22.7 9.1,22.7 9.1,23 8.9,23 	"/>
	<polygon fill="#FED3A8" points="8.2,24.5 8.7,24.4 8.9,24.1 8.8,24 8.6,23.9 8.1,24.1 8.1,24.2 8.1,24.4 8.2,24.5 	"/>
	<polygon fill="#FCF4DA" points="8.6,24.3 8.5,24 8.7,24 8.8,24.2 8.6,24.3 	"/>
	<polygon fill="#FED3A8" points="8.4,23.8 8.9,23.7 9.1,23.4 9,23.3 8.8,23.2 8.2,23.3 8.1,23.5 8.2,23.7 8.4,23.8 	"/>
	<polygon fill="#FCF4DA" points="8.8,23.6 8.7,23.3 8.9,23.3 9,23.5 8.8,23.6 	"/>
	<polygon fill="#FBB992" points="5,23.2 5.6,24.7 6.3,24.9 6.4,25 6.7,25 6.8,25.1 7.4,25.2 6.9,24.5 5,23.2 	"/>
	<polygon fill="#FED3A8" points="2.6,20.8 5,23.2 5.6,24.7 6.3,24.9 6.3,24.7 6.4,25 6.7,25.1 6.7,24.9 6.8,25.1 7.4,25.2 7.4,25 
		7.1,24.5 8,25.6 8.3,25.8 8.5,25.7 8.5,25.3 7.6,24.1 8,24.5 8.4,24.4 8.5,24.1 8.1,24 7.7,23.4 7,22.4 6,22 3.8,19.7 2.6,20.8 	
		"/>
	<polygon fill="#FBB992" points="7.6,24.1 7.2,22.6 8.1,24 8.5,24.1 8.4,24.4 8,24.5 7.6,24.1 	"/>
	<polygon fill="#FBB992" points="6.3,24.9 6.2,24.2 6.4,25 6.3,24.9 	"/>
	<polygon fill="#FBB992" points="6.7,25 6.6,24.2 6.8,25.1 6.7,25 	"/>
	<polygon fill="#FCF4DA" points="7.9,25.4 8.3,25.2 8.4,25.6 8.3,25.7 7.9,25.4 	"/>
	<polygon fill="#FBB992" points="3.5,19.9 5.8,22.2 7.4,23 7,22.4 6,22 3.8,19.7 3.5,19.9 	"/>
	<polygon fill="#FCF4DA" points="8.1,24 8.1,24.1 8.4,24.2 8.5,24.1 8.1,24 	"/>
	<path fill="#414042" d="M7.8,5.9l-5,1.8l-2,3.9c0,0-0.4,2.8,0.3,4.9l1.8,5.2l2-1.3l-1.2-6.7l1,2.5l3.5,0v0h0v0l3.7-0.1l0.8-2.5
		l-1.3,6.8l1.8,2l1.9-5.9c0.5-2.4,0.5-4.4,0.5-4.4l-1.8-4.3L9,5.8L7.8,5.9L7.8,5.9z"/>
	<polygon fill="#FFFFFF" points="9.6,11.6 8.1,16.2 6.6,11.6 9.6,11.6 	"/>
	<polygon fill="#CD3C27" points="8.1,0.1 6.2,0.7 5.9,1.7 6.5,3 8.1,3.4 8.1,0.1 	"/>
	<polygon fill="#B03B24" points="8.1,0.1 10,0.7 10.3,1.7 9.6,3 8.1,3.4 8.1,0.1 	"/>
	<polygon fill="#FBB992" points="11.4,7.5 12.4,7.7 12.3,8.7 11.4,9.6 11.4,7.5 	"/>
	<polygon fill="#FBB992" points="8.1,4.6 10.7,5.1 11.9,8.2 10.9,11.6 8.1,13.4 8.1,4.6 	"/>
	<polygon fill="#CD3C27" points="8.1,2.8 11.7,4.2 12.1,7.6 11.4,9.6 10.5,9.7 10,10.7 8.1,11.6 7.8,7.4 8.1,2.8 	"/>
	<polygon fill="#FED3A8" points="4.7,7.5 3.7,7.7 3.8,8.7 4.7,9.6 4.7,7.5 	"/>
	<polygon fill="#FED3A8" points="8.1,4.6 5.4,5.1 4.2,8.2 5.3,11.6 8.1,13.4 8.1,4.6 	"/>
	<polygon fill="#B03B24" points="8.1,2.8 4.4,4.2 4,7.6 4.8,9.6 5.6,9.7 6.1,10.7 8.1,11.6 8.1,2.8 	"/>
	<polygon fill="#F1E6CB" points="43.7,28.6 43.7,28.6 43.7,28.6 43.5,27.8 44,27.8 43.7,28.6 	"/>
	<polygon fill="#414042" points="43.9,27.8 43.6,27.8 43.6,23 43.9,23 43.9,27.8 	"/>
	<polygon fill="#DC2726" points="43.5,27.8 43.6,27.8 43.6,23 43.5,23 43.5,27.8 	"/>
	<polygon fill="#DC2726" points="43.8,27.8 44,27.8 44,23 43.8,23 43.8,27.8 	"/>
	<polygon fill="#D1D3D4" points="44,23 43.5,23 43.5,22.7 44,22.7 44,23 	"/>
	<polygon fill="#939598" points="44,22.4 43.5,22.4 43.5,22.7 44,22.7 44,22.4 	"/>
	<polygon fill="#1A1818" points="43.6,28.3 43.7,28.6 43.7,28.6 43.7,28.6 43.8,28.3 43.6,28.3 	"/>
	<path fill="#F7B718" d="M43.3,30.9c-0.1,0-0.2-0.1-0.2-0.2v-1c0-0.1,0.1-0.2,0.2-0.2h3.6c0.1,0,0.2,0.1,0.2,0.2v1
		c0,0.1-0.1,0.2-0.2,0.2H43.3L43.3,30.9z"/>
	<polygon fill="#1A1818" points="43.4,30.9 45.8,30.9 45.8,29.5 43.4,29.5 43.4,30.9 	"/>
	<path fill="#FAD50D" d="M45.5,30.6c-0.1,0-0.2-0.1-0.2-0.2v-0.3c0-0.1,0.1-0.2,0.2-0.2h1.4c0.1,0,0.2,0.1,0.2,0.2v0.3
		c0,0.1-0.1,0.2-0.2,0.2H45.5L45.5,30.6z"/>
	<polygon fill="#F7B718" points="41.8,29 43,29 43,22.4 41.8,22.4 41.8,29 	"/>
	<polygon fill="#F47B20" points="42.5,29 41.8,29 41.8,22.4 42.5,22.4 42.5,29 	"/>
	<polygon fill="#FFFFFF" points="41.8,22.9 42.1,22.9 42.1,22.8 41.8,22.8 41.8,22.9 	"/>
	<polygon fill="#FFFFFF" points="41.8,23.1 42.1,23.1 42.1,23 41.8,23 41.8,23.1 	"/>
	<polygon fill="#FFFFFF" points="41.8,23.3 42.1,23.3 42.1,23.3 41.8,23.3 41.8,23.3 	"/>
	<polygon fill="#FFFFFF" points="42.1,23.6 41.8,23.6 41.8,23.5 42.1,23.5 42.1,23.6 	"/>
	<polygon fill="#FFFFFF" points="41.8,23.8 42.2,23.8 42.2,23.8 41.8,23.8 41.8,23.8 	"/>
	<polygon fill="#FFFFFF" points="41.8,24.1 42.1,24.1 42.1,24 41.8,24 41.8,24.1 	"/>
	<polygon fill="#FFFFFF" points="41.8,24.3 42.1,24.3 42.1,24.3 41.8,24.3 41.8,24.3 	"/>
	<polygon fill="#FFFFFF" points="41.8,24.6 42.1,24.6 42.1,24.5 41.8,24.5 41.8,24.6 	"/>
	<polygon fill="#FFFFFF" points="42.1,24.8 41.8,24.8 41.8,24.8 42.1,24.8 42.1,24.8 	"/>
	<polygon fill="#FFFFFF" points="42.2,25.1 41.8,25.1 41.8,25 42.2,25 42.2,25.1 	"/>
	<polygon fill="#FFFFFF" points="42.1,25.3 41.8,25.3 41.8,25.3 42.1,25.3 42.1,25.3 	"/>
	<polygon fill="#FFFFFF" points="42.1,25.6 41.8,25.6 41.8,25.5 42.1,25.5 42.1,25.6 	"/>
	<polygon fill="#FFFFFF" points="41.8,25.8 42.1,25.8 42.1,25.8 41.8,25.8 41.8,25.8 	"/>
	<polygon fill="#FFFFFF" points="41.8,26.1 42.1,26.1 42.1,26 41.8,26 41.8,26.1 	"/>
	<polygon fill="#FFFFFF" points="42.2,26.3 41.8,26.3 41.8,26.3 42.2,26.3 42.2,26.3 	"/>
	<polygon fill="#FFFFFF" points="41.8,26.6 42.1,26.6 42.1,26.5 41.8,26.5 41.8,26.6 	"/>
	<polygon fill="#FFFFFF" points="41.8,26.8 42.1,26.8 42.1,26.7 41.8,26.7 41.8,26.8 	"/>
	<polygon fill="#FFFFFF" points="41.8,27 42.1,27 42.1,27 41.8,27 41.8,27 	"/>
	<polygon fill="#FFFFFF" points="42.1,27.3 41.8,27.3 41.8,27.2 42.1,27.2 42.1,27.3 	"/>
	<polygon fill="#FFFFFF" points="42.2,27.5 41.8,27.5 41.8,27.5 42.2,27.5 42.2,27.5 	"/>
	<polygon fill="#FFFFFF" points="41.8,27.8 42.1,27.8 42.1,27.7 41.8,27.7 41.8,27.8 	"/>
	<polygon fill="#FFFFFF" points="42.1,28 41.8,28 41.8,28 42.1,28 42.1,28 	"/>
	<polygon fill="#FFFFFF" points="41.8,28.3 42.1,28.3 42.1,28.2 41.8,28.2 41.8,28.3 	"/>
	<polygon fill="#FFFFFF" points="42.1,28.5 41.8,28.5 41.8,28.5 42.1,28.5 42.1,28.5 	"/>
	<path fill="#F1F2F2" d="M52.9,26.5c1.3,0.7,1.7,2.4,1,3.6c-0.7,1.3-2.4,1.7-3.6,1c-1.3-0.7-1.7-2.4-1-3.6
		C50,26.2,51.7,25.8,52.9,26.5L52.9,26.5z"/>
	<path fill="#D1D3D4" d="M52.5,27.2c0.9,0.5,1.2,1.6,0.7,2.5c-0.5,0.9-1.6,1.2-2.5,0.7c-0.9-0.5-1.2-1.6-0.7-2.5
		C50.5,27,51.7,26.7,52.5,27.2L52.5,27.2z"/>
	<path fill="#512C13" d="M52.4,27.5c0.7,0.4,1,1.3,0.6,2c-0.4,0.7-1.3,1-2,0.6c-0.7-0.4-1-1.3-0.6-2C50.7,27.4,51.6,27.1,52.4,27.5
		L52.4,27.5z"/>
	<path fill="#673B1B" d="M52.2,27.8c0.6,0.3,0.8,1,0.4,1.6c-0.3,0.6-1,0.8-1.6,0.4c-0.6-0.3-0.8-1-0.4-1.6
		C50.9,27.7,51.6,27.5,52.2,27.8L52.2,27.8z"/>
	<path fill="#7F492A" d="M52.1,27.9c0.5,0.3,0.6,0.9,0.4,1.4c-0.3,0.5-0.9,0.6-1.4,0.4c-0.5-0.3-0.6-0.9-0.4-1.4
		C51,27.8,51.6,27.7,52.1,27.9L52.1,27.9z"/>
	<path fill="#D1D3D4" d="M52.8,26.8c0.1,0.1,0.2,0.2,0.1,0.3l-0.2,0.3c0,0.1-0.2,0.1-0.3,0l-0.1,0c-0.1-0.1-0.2-0.2-0.1-0.3l0.2-0.3
		C52.5,26.7,52.6,26.7,52.8,26.8L52.8,26.8L52.8,26.8z"/>
	<path fill="#DEDFE0" d="M50.1,29.9c0.3,0.1,0.4,0.4,0.3,0.6c-0.1,0.2-0.4,0.2-0.6,0c-0.3-0.1-0.4-0.4-0.3-0.6
		C49.5,29.8,49.8,29.7,50.1,29.9L50.1,29.9z"/>
	<polygon fill="#DEDFE0" points="52,31.3 52.1,31.5 51.9,31.5 50.2,30.5 50.2,30.4 50.3,30.3 52,31.3 	"/>
	<path fill="#D1D3D4" d="M50,30c0.2,0.1,0.3,0.3,0.2,0.4c-0.1,0.1-0.3,0.1-0.5,0c-0.2-0.1-0.3-0.3-0.2-0.4
		C49.6,29.9,49.8,29.9,50,30L50,30z"/>
	<path fill="#6B6C6F" d="M42.6,21.3c0-0.1,0.1-0.2,0.3-0.2h5.3c0.2,0,0.3,0.1,0.3,0.2v7.2c0,0.1-0.1,0.3-0.3,0.3h-5.3
		c-0.2,0-0.3-0.1-0.3-0.3V21.3L42.6,21.3z"/>
	<path d="M42.6,21.4c0-0.1,0.1-0.2,0.3-0.2h5.3c0.2,0,0.3,0.1,0.3,0.2v7.2c0,0.1-0.1,0.2-0.3,0.2h-5.3c-0.2,0-0.3-0.1-0.3-0.2V21.4
		L42.6,21.4z"/>
	<path fill="#B0B1B3" d="M48.5,28.6v-7.2c0-0.1-0.1-0.2-0.3-0.2h-5.3c-0.2,0-0.3,0.1-0.3,0.2v7.2c0,0.1,0.1,0.2,0.3,0.2h5.3
		C48.4,28.9,48.5,28.8,48.5,28.6L48.5,28.6z M48.2,21.1c0.2,0,0.4,0.1,0.4,0.3v7.2c0,0.2-0.2,0.3-0.4,0.3h-5.3
		c-0.2,0-0.4-0.1-0.4-0.3v-7.2c0-0.2,0.2-0.3,0.4-0.3H48.2L48.2,21.1z"/>
	<polygon fill="#34C1D6" points="43.2,28.2 47.9,28.2 47.9,21.9 43.2,21.9 43.2,28.2 	"/>
	<polygon fill="#C4C4C6" points="45.4,28.6 45.6,28.4 45.7,28.6 45.6,28.7 45.4,28.6 	"/>
	<polygon fill="#FFFFFF" points="45.5,28.6 45.6,28.5 45.6,28.6 45.6,28.6 45.5,28.6 	"/>
	<polygon fill="#808184" points="45.4,21.4 45.4,21.4 45.7,21.4 45.8,21.4 45.8,21.6 45.7,21.7 45.4,21.7 45.4,21.6 45.4,21.4 	"/>
	<polygon fill="#515255" points="44,28.9 47.2,28.9 47.2,28.9 44,28.9 44,28.9 	"/>
	<polygon fill="#FFFFFF" points="43.2,28.2 47.9,28.2 47.9,21.9 43.2,21.9 43.2,28.2 	"/>
	<polygon fill="#E6E7E8" points="43.2,28.2 44.2,28.2 44.2,21.9 43.2,21.9 43.2,28.2 	"/>
	<polygon fill="#3E9BD6" points="43.2,28.2 47.9,28.2 47.9,27.8 43.2,27.8 43.2,28.2 	"/>
	<polygon fill="#1561AE" points="46.5,28 46.6,27.9 47.6,27.9 47.7,28 47.6,28.1 46.6,28.1 46.5,28 	"/>
	<polygon fill="#FFFFFF" points="44.5,28 44.5,28 46.3,28 46.4,28 46.3,28.1 44.5,28.1 44.5,28 	"/>
	<polygon fill="#F1F2F2" points="44.5,27.6 47.7,27.6 47.7,25.7 44.5,25.7 44.5,27.6 	"/>
	<polygon fill="#F47B20" points="47,27.4 47.6,27.4 47.6,26.9 47,26.9 47,27.4 	"/>
	<polygon fill="#E6E7E8" points="45.8,27.4 46.9,27.4 46.9,27.3 45.8,27.3 45.8,27.4 	"/>
	<polygon fill="#939598" points="44.6,26.8 47.6,26.8 47.6,26.7 44.6,26.7 44.6,26.8 	"/>
	<polygon fill="#E6E7E8" points="44.6,26.5 47.6,26.5 47.6,26.5 44.6,26.5 44.6,26.5 	"/>
	<polygon fill="#E6E7E8" points="44.6,26.3 47.6,26.3 47.6,26.2 44.6,26.2 44.6,26.3 	"/>
	<polygon fill="#E6E7E8" points="44.6,26.1 47.6,26.1 47.6,26 44.6,26 44.6,26.1 	"/>
	<polygon fill="#F1F2F2" points="44.5,25.5 47.7,25.5 47.7,23.7 44.5,23.7 44.5,25.5 	"/>
	<polygon fill="#ED207A" points="47,25.4 47.6,25.4 47.6,24.8 47,24.8 47,25.4 	"/>
	<polygon fill="#E6E7E8" points="45.8,25.3 46.9,25.3 46.9,25.2 45.8,25.2 45.8,25.3 	"/>
	<polygon fill="#D1D3D4" points="46.1,24.8 47.5,24.8 47.5,23.8 46.1,23.8 46.1,24.8 	"/>
	<polygon fill="#D1D3D4" points="44.6,24.8 46.1,24.8 46.1,23.8 44.6,23.8 44.6,24.8 	"/>
	<polygon fill="#F1F2F2" points="44.5,23.6 47.7,23.6 47.7,21.9 44.5,21.9 44.5,23.6 	"/>
	<polygon fill="#34C1D6" points="47,23.4 47.6,23.4 47.6,22.9 47,22.9 47,23.4 	"/>
	<polygon fill="#E6E7E8" points="45.8,23.4 46.9,23.4 46.9,23.3 45.8,23.3 45.8,23.4 	"/>
	<polygon fill="#939598" points="44.6,22.8 47.6,22.8 47.6,22.7 44.6,22.7 44.6,22.8 	"/>
	<polygon fill="#E6E7E8" points="44.6,22.5 47.6,22.5 47.6,22.4 44.6,22.4 44.6,22.5 	"/>
	<polygon fill="#E6E7E8" points="44.6,22.3 47.6,22.3 47.6,22.2 44.6,22.2 44.6,22.3 	"/>
	<polygon fill="#E6E7E8" points="44.6,22.1 47.6,22.1 47.6,22 44.6,22 44.6,22.1 	"/>
	<polygon fill="#F1F2F2" points="43.3,26.8 43.4,26.7 43.9,26.7 44,26.8 44,27.3 43.9,27.4 43.4,27.4 43.3,27.3 43.3,26.8 	"/>
	<polygon fill="#F1F2F2" points="43.3,25.4 43.4,25.3 43.9,25.3 44,25.4 44,25.9 43.9,26 43.4,26 43.3,25.9 43.3,25.4 	"/>
	<polygon fill="#F1F2F2" points="43.3,23.9 43.4,23.8 43.9,23.8 44,23.9 44,24.4 43.9,24.5 43.4,24.5 43.3,24.4 43.3,23.9 	"/>
	<polygon fill="#F1F2F2" points="43.3,22.5 43.4,22.4 43.9,22.4 44,22.5 44,23 43.9,23.1 43.4,23.1 43.3,23 43.3,22.5 	"/>
	<path fill="#0E0E0D" d="M47.9,25.7C47.9,25.7,47.9,25.7,47.9,25.7l0-3.9h-4.8v1.3c0,0,0,0,0,0l0-1.2h4.8V25.7L47.9,25.7z"/>
	<polygon fill="#4DB9CA" points="43.2,23.1 43.2,23.1 43.2,21.9 47.9,21.9 43.2,21.9 43.2,23.1 	"/>
	<path fill="#EDEDEE" d="M47.9,25.7c0,0-0.2-0.1-0.6-0.2h0.3v-1.8h-3.2v0.5c-0.1-0.1-0.2-0.1-0.3-0.2v-2.1h-1v1.3v-1.3h4.8V25.7
		L47.9,25.7z M44.5,21.9v1.7h3.2v-1.7H44.5L44.5,21.9z"/>
	<path fill="#DADBDC" d="M44.2,24c-0.4-0.3-0.7-0.5-1-0.9v-1.3h1V24L44.2,24z M43.4,22.4l-0.1,0.1V23l0.1,0.1h0.5L44,23v-0.5
		l-0.1-0.1H43.4L43.4,22.4z"/>
	<path fill="#E2E3E4" d="M47.7,25.5h-0.3c-0.2-0.1-0.4-0.1-0.6-0.2h0.1v-0.1h-0.3c-0.3-0.1-0.7-0.3-1.1-0.5h0.6v-0.9h-1.4v0.4
		c-0.1,0-0.1-0.1-0.2-0.1v-0.5h3.2V25.5L47.7,25.5z M47,24.8v0.5h0.5v-0.5H47L47,24.8z M46.1,23.8v0.9h1.4v-0.9H46.1L46.1,23.8z"/>
	<polygon fill="#DE3F7B" points="47,25.4 47.6,25.4 47.6,24.8 47,24.8 47,25.4 	"/>
	<path fill="#DADBDC" d="M46.9,25.3h-0.1c-0.1,0-0.1-0.1-0.2-0.1L46.9,25.3L46.9,25.3L46.9,25.3z"/>
	<polygon fill="#C7C8CA" points="46.1,24.8 47.5,24.8 47.5,23.8 46.1,23.8 46.1,24.8 	"/>
	<path fill="#C7C8CA" d="M46.1,24.8h-0.6c-0.3-0.1-0.6-0.3-0.8-0.5v-0.4h1.4V24.8L46.1,24.8z"/>
	<path fill="#E2E3E4" d="M47.7,23.6h-3.2v-1.7h3.2V23.6L47.7,23.6z M47,22.9v0.5h0.5v-0.5H47L47,22.9z M45.8,23.3L45.8,23.3l1.1,0.1
		v-0.1H45.8L45.8,23.3z M44.6,22.7L44.6,22.7l2.9,0.1v-0.1H44.6L44.6,22.7z M44.6,22.4L44.6,22.4l2.9,0.1v-0.1H44.6L44.6,22.4z
		 M44.6,22.2L44.6,22.2l2.9,0.1v-0.1H44.6L44.6,22.2z M44.6,22L44.6,22l2.9,0.1V22H44.6L44.6,22z"/>
	<polygon fill="#4DB9CA" points="47,23.4 47.6,23.4 47.6,22.9 47,22.9 47,23.4 	"/>
	<polygon fill="#DADBDC" points="45.8,23.4 46.9,23.4 46.9,23.3 45.8,23.3 45.8,23.4 	"/>
	<polygon fill="#8F9194" points="44.6,22.8 47.6,22.8 47.6,22.7 44.6,22.7 44.6,22.8 	"/>
	<polygon fill="#DADBDC" points="44.6,22.5 47.6,22.5 47.6,22.4 44.6,22.4 44.6,22.5 	"/>
	<polygon fill="#DADBDC" points="44.6,22.3 47.6,22.3 47.6,22.2 44.6,22.2 44.6,22.3 	"/>
	<polygon fill="#DADBDC" points="44.6,22.1 47.6,22.1 47.6,22 44.6,22 44.6,22.1 	"/>
	<polygon fill="#E2E3E4" points="43.9,23.1 43.4,23.1 43.3,23 43.3,22.5 43.4,22.4 43.9,22.4 44,22.5 44,23 43.9,23.1 	"/>
	<polygon fill="#FED3A8" points="43.5,24.1 43.4,23 43.1,22.4 42.5,21.9 41.1,19.3 39.7,20 41.2,22.4 41.3,24.5 41.5,24.9 
		42.6,25.7 42.6,24 42.6,24 42.6,23.8 42.9,24.9 43.3,25.4 43.5,25.4 43.6,24.7 43.5,24.1 	"/>
	<polygon fill="#FCF4DA" points="43.5,24.8 43,25 43.3,25.3 43.4,25.2 43.5,24.8 	"/>
	<polygon fill="#FBB992" points="40.1,19.8 41.7,22.5 41.9,24.5 42.4,25.5 41.7,24.6 41.2,22.4 39.7,20 40.1,19.8 	"/>
	<polygon fill="#FBB992" points="42.7,24.2 42.6,23 42.6,23.8 42.7,24.2 	"/>
	<polygon fill="#FED3A8" points="47.7,24.1 47.8,23 48,22.4 48.6,21.9 50,19.3 51.4,20 49.9,22.4 49.9,24.5 49.7,24.9 48.6,25.7 
		48.5,24 48.5,24 48.6,23.8 48.3,24.9 47.8,25.4 47.6,25.4 47.6,24.7 47.7,24.1 	"/>
	<polygon fill="#FCF4DA" points="47.7,24.8 48.1,25 47.8,25.3 47.7,25.2 47.7,24.8 	"/>
	<polygon fill="#FBB992" points="51.1,19.8 49.5,22.5 49.2,24.5 48.7,25.5 49.4,24.6 49.9,22.4 51.4,20 51.1,19.8 	"/>
	<polygon fill="#FBB992" points="48.5,24.2 48.6,23 48.6,23.8 48.5,24.2 	"/>
	<polygon fill="#D1D3D4" points="40.4,21.7 40.8,22.3 42.5,21 42.3,20.5 40.4,21.7 	"/>
	<polygon fill="#D1D3D4" points="50.8,21.7 50.4,22.3 48.7,21 48.9,20.4 50.8,21.7 	"/>
	<path fill="#414042" d="M45.6,4.9l-5.6,2l-2.1,3.7c0,0-0.6,3.4-0.2,5.8l2.7,5.5l1.9-1.5l-1.5-4.2l4.8,0v0h0h0v0l4.8,0l-1.6,4.2
		l1.9,1.5l2.7-5.5c0.5-2.4-0.2-5.8-0.2-5.8l-2.1-3.7L45.6,4.9L45.6,4.9L45.6,4.9z"/>
	<polygon fill="#A7A9AC" points="47.1,11.7 45.6,16.3 44.1,11.7 47.1,11.7 	"/>
	<polygon fill="#FED3A8" points="42.2,7.1 41.2,7.3 41.3,8.3 42.2,9.2 42.2,7.1 	"/>
	<polygon fill="#FED3A8" points="45.6,4.2 42.9,4.7 41.7,7.9 42.8,11.2 45.6,13 45.6,4.2 	"/>
	<polygon fill="#A06939" points="45.6,3.1 42.6,3.8 41.5,7.2 42.3,9.2 43.1,9.3 43.6,10.4 45.6,11.2 45.6,3.1 	"/>
	<polygon fill="#FBB992" points="48.9,7.1 49.9,7.3 49.8,8.3 48.9,9.2 48.9,7.1 	"/>
	<polygon fill="#FBB992" points="45.5,4.2 48.2,4.7 49.4,7.9 48.3,11.2 45.5,13 45.5,4.2 	"/>
	<polygon fill="#814020" points="45.5,3.1 48.5,3.8 49.6,7.2 48.8,9.2 48,9.3 47.5,10.4 45.5,11.2 45.5,3.1 	"/>
	<path fill="#F1F2F2" d="M70.3,26.7c0-1.5,1.2-2.7,2.7-2.7c1.5,0,2.7,1.2,2.7,2.7c0,1.5-1.2,2.7-2.7,2.7
		C71.5,29.3,70.3,28.1,70.3,26.7L70.3,26.7z"/>
	<path fill="#D1D3D4" d="M71.1,26.7c0-1,0.8-1.9,1.9-1.9c1,0,1.9,0.8,1.9,1.9c0,1-0.8,1.9-1.9,1.9C71.9,28.5,71.1,27.7,71.1,26.7
		L71.1,26.7z"/>
	<path fill="#512C13" d="M71.4,26.7c0-0.8,0.7-1.5,1.5-1.5c0.8,0,1.5,0.7,1.5,1.5c0,0.8-0.7,1.5-1.5,1.5
		C72.1,28.1,71.4,27.5,71.4,26.7L71.4,26.7z"/>
	<path fill="#673B1B" d="M71.8,26.7c0-0.6,0.5-1.2,1.2-1.2s1.2,0.5,1.2,1.2c0,0.6-0.5,1.2-1.2,1.2C72.3,27.8,71.8,27.3,71.8,26.7
		L71.8,26.7z"/>
	<path fill="#7F492A" d="M71.9,26.7c0-0.6,0.5-1,1-1c0.6,0,1,0.4,1,1c0,0.6-0.4,1-1,1C72.4,27.7,71.9,27.2,71.9,26.7L71.9,26.7z"/>
	<path fill="#D1D3D4" d="M70.6,26.6c0-0.1,0.1-0.2,0.2-0.2l0.3,0c0.1,0,0.2,0.1,0.2,0.2v0.1c0,0.1-0.1,0.2-0.2,0.2h-0.3
		C70.7,26.9,70.6,26.8,70.6,26.6L70.6,26.6L70.6,26.6z"/>
	<path fill="#DEDFE0" d="M74.6,27.5c0-0.3,0.2-0.5,0.4-0.5c0.2,0,0.4,0.2,0.4,0.5c0,0.3-0.2,0.5-0.4,0.5
		C74.8,28,74.6,27.8,74.6,27.5L74.6,27.5z"/>
	<polygon fill="#DEDFE0" points="74.9,25 75,25 75.1,25 75.1,27.1 75,27.2 74.9,27.1 74.9,25 	"/>
	<path fill="#D1D3D4" d="M74.7,27.5c0-0.2,0.1-0.4,0.3-0.4c0.2,0,0.3,0.2,0.3,0.4c0,0.2-0.1,0.4-0.3,0.4
		C74.9,27.9,74.7,27.7,74.7,27.5L74.7,27.5z"/>
	<path fill="#A7A9AC" d="M77.1,21c0-0.1,0.1-0.2,0.2-0.2h13.3c0.1,0,0.2,0.1,0.2,0.2v7.4c0,0.1-0.1,0.2-0.2,0.2H77.3
		c-0.1,0-0.2-0.1-0.2-0.2V21L77.1,21z"/>
	<polygon fill="#BCBEC0" points="74.8,33.3 93.2,33.3 92.7,33.8 75.3,33.8 74.8,33.3 	"/>
	<path d="M77.2,28.9c0.1-0.1,0.3-0.2,0.5-0.2h12.7c0.2,0,0.4,0.1,0.5,0.2l2.3,4.3c0.1,0.1-0.1,0.2-0.4,0.2H75.2
		c-0.3,0-0.5-0.1-0.4-0.2L77.2,28.9L77.2,28.9z"/>
	<polygon fill="#8DC63F" points="77.9,29.4 90.2,29.4 91.9,33 76,33 77.9,29.4 	"/>
	<polygon fill="#939598" points="77,29.2 91,29.2 91.1,29.4 76.9,29.4 77,29.2 	"/>
	<polygon fill="#FFFFFF" points="78.7,29.7 89.5,29.7 90.7,32.7 77.4,32.7 78.7,29.7 	"/>
	<polygon fill="#E6E7E8" points="78.7,29.7 79.1,29.7 78,32.7 77.4,32.7 78.7,29.7 	"/>
	<polygon fill="#F7B718" points="77.6,32.4 90.6,32.4 90.7,32.7 77.4,32.7 77.6,32.4 	"/>
	<polygon fill="#939598" points="78,32.3 77.9,32.3 77.8,32.3 78,32.3 	"/>
	<polygon fill="#939598" points="78.8,29.9 78.9,29.8 79,29.9 78.8,29.9 	"/>
	<polygon fill="#939598" points="78.5,30.5 78.7,30.5 78.1,32.1 77.8,32.1 78.5,30.5 	"/>
	<path fill="#27AAE1" d="M86.3,31.3c0,0,0.1-0.1,0.2-0.1h3.1c0.1,0,0.2,0,0.2,0.1l0.4,0.9c0,0-0.1,0.1-0.2,0.1h-3.3
		c-0.1,0-0.2,0-0.2-0.1L86.3,31.3L86.3,31.3z"/>
	<path fill="#6D6E71" d="M82.5,31.3c0,0,0.1-0.1,0.2-0.1h3.1c0.1,0,0.2,0,0.2,0.1l0.1,0.9c0,0-0.1,0.1-0.2,0.1h-3.3
		c-0.1,0-0.2,0-0.2-0.1L82.5,31.3L82.5,31.3z"/>
	<path fill="#F7B718" d="M78.8,31.3c0,0,0.1-0.1,0.2-0.1h3.1c0.1,0,0.2,0,0.2,0.1l-0.1,0.9c0,0-0.1,0.1-0.2,0.1h-3.3
		c-0.1,0-0.2,0-0.2-0.1L78.8,31.3L78.8,31.3z"/>
	<polygon fill="#6D6E71" points="82.6,31 89.7,31 89.7,31 82.6,31 82.6,31 	"/>
	<polygon fill="#D1D3D4" points="82.6,30.8 89.6,30.8 89.6,30.8 82.6,30.8 82.6,30.8 	"/>
	<polygon fill="#D1D3D4" points="82.6,30.5 89.5,30.5 89.5,30.6 82.6,30.6 82.6,30.5 	"/>
	<polygon fill="#D1D3D4" points="82.6,30.3 89.4,30.3 89.5,30.4 82.6,30.4 82.6,30.3 	"/>
	<polygon fill="#D1D3D4" points="82.7,30.1 89.3,30.1 89.4,30.2 82.7,30.2 82.7,30.1 	"/>
	<polygon fill="#D1D3D4" points="82.7,29.9 89.3,29.9 89.3,30 82.7,30 82.7,29.9 	"/>
	<path fill="#BCBEC0" d="M81.1,30.1l0-0.2h-0.4l-0.1,0.2C80.6,30.1,80.9,30.1,81.1,30.1L81.1,30.1z"/>
	<path fill="#FAD50D" d="M80.6,30.1l0.2,0h0l0.2,0c0,0,0,0.1,0.1,0.2l0.1,0.1l0.1,0.2l-0.1,0.2c0,0,0,0-0.2,0.1
		c-0.1,0-0.3,0.1-0.5,0.1l0,0l0,0c-0.2,0-0.4,0-0.5-0.1c-0.1,0-0.1-0.1-0.1-0.1l-0.1-0.2c0-0.2,0.4-0.3,0.4-0.3
		C80.5,30.2,80.5,30.1,80.6,30.1L80.6,30.1z"/>
	<path fill="#FFFFFF" d="M80.7,30.5L80.7,30.5l0-0.1l0,0l0.1,0.1L80.7,30.5L80.7,30.5L80.7,30.5L80.7,30.5z M80.4,30.5
		c0,0,0.1,0.1,0.2,0.1l0.1,0l0.1,0c0.1,0,0.2-0.1,0.2-0.1l0.1-0.1c0-0.1-0.2-0.2-0.2-0.2l0,0l0.1,0.1l0.1,0.1l-0.1,0.1l0,0l-0.1,0
		l-0.1,0l0,0l0.1-0.1l-0.1-0.1h0l-0.1,0.1l0,0.1l0,0l-0.1,0L80.4,30.5L80.4,30.5L80.4,30.5l0.1-0.2l0.1-0.1l0,0h0
		C80.7,30.3,80.4,30.3,80.4,30.5L80.4,30.5L80.4,30.5z"/>
	<polygon fill="#F7B718" points="81.6,30.6 81.9,30.6 81.9,30.6 81.6,30.6 81.6,30.6 	"/>
	<polygon fill="#F7B718" points="81.4,30.8 81.6,30.9 81.5,31 81.3,30.9 81.4,30.8 	"/>
	<polygon fill="#F7B718" points="80.6,31 80.6,31.1 80.5,31.1 80.6,31 80.6,31 	"/>
	<polygon fill="#F7B718" points="81.5,30.3 81.7,30.2 81.7,30.2 81.5,30.3 81.5,30.3 	"/>
	<polygon fill="#F7B718" points="79.8,30.6 79.5,30.6 79.5,30.6 79.8,30.6 79.8,30.6 	"/>
	<polygon fill="#F7B718" points="79.9,30.8 79.7,30.9 79.7,31 80,30.9 79.9,30.8 	"/>
	<polygon fill="#F7B718" points="80,30.3 79.8,30.2 79.9,30.2 80.1,30.3 80,30.3 	"/>
	<polygon fill="#939598" points="80.6,30.1 80.6,30 81,30 81.1,30.1 81,30.1 80.6,30.1 80.6,30.1 	"/>
	<polygon fill="#939598" points="80.6,30 80.6,30 81.1,30 81.1,30 81,30 80.6,30 80.6,30 	"/>
	<polygon fill="#939598" points="80.6,30 80.6,29.9 81.1,29.9 81.1,30 81.1,30 80.6,30 80.6,30 	"/>
	<path fill="#939598" d="M81.1,29.9c0,0-0.1,0-0.2,0c-0.1,0-0.2,0-0.2,0H81.1L81.1,29.9z"/>
	<path fill="#E6E7E8" d="M77.1,21.1c0-0.1,0.1-0.2,0.2-0.2h13.3c0.1,0,0.2,0.1,0.2,0.2v7.4c0,0.1-0.1,0.2-0.2,0.2H77.3
		c-0.1,0-0.2-0.1-0.2-0.2V21.1L77.1,21.1z"/>
	<path fill="#A7A9AC" d="M82.1,21.4c0-0.1,0.1-0.2,0.2-0.2h3.3c0.1,0,0.2,0.1,0.2,0.2v1.7c0,0.1-0.1,0.2-0.2,0.2h-3.3
		c-0.1,0-0.2-0.1-0.2-0.2V21.4L82.1,21.4z"/>
	<polygon fill="#A7A9AC" points="89.6,28.1 89.7,28 90.4,28 90.5,28.1 90.5,28.2 90.4,28.3 89.7,28.3 89.6,28.2 89.6,28.1 	"/>
	<polygon fill="#A7A9AC" points="88.5,28.1 88.6,28 89.3,28 89.4,28.1 89.4,28.2 89.3,28.3 88.6,28.3 88.5,28.2 88.5,28.1 	"/>
	<polygon fill="#A7A9AC" points="87.4,28.1 87.5,28 88.2,28 88.3,28.1 88.3,28.2 88.2,28.3 87.5,28.3 87.4,28.2 87.4,28.1 	"/>
	<polygon fill="#A7A9AC" points="86.3,28.1 86.4,28 87.1,28 87.2,28.1 87.2,28.2 87.1,28.3 86.4,28.3 86.3,28.2 86.3,28.1 	"/>
	<polygon fill="#A7A9AC" points="85.2,28.1 85.3,28 86,28 86.1,28.1 86.1,28.2 86,28.3 85.3,28.3 85.2,28.2 85.2,28.1 	"/>
	<polygon fill="#A7A9AC" points="84.1,28.1 84.2,28 84.9,28 85,28.1 85,28.2 84.9,28.3 84.2,28.3 84.1,28.2 84.1,28.1 	"/>
	<polygon fill="#A7A9AC" points="83,28.1 83.1,28 83.8,28 83.9,28.1 83.9,28.2 83.8,28.3 83.1,28.3 83,28.2 83,28.1 	"/>
	<polygon fill="#A7A9AC" points="81.9,28.1 82,28 82.7,28 82.8,28.1 82.8,28.2 82.7,28.3 82,28.3 81.9,28.2 81.9,28.1 	"/>
	<polygon fill="#A7A9AC" points="80.8,28.1 80.9,28 81.6,28 81.7,28.1 81.7,28.2 81.6,28.3 80.9,28.3 80.8,28.2 80.8,28.1 	"/>
	<polygon fill="#A7A9AC" points="79.7,28.1 79.8,28 80.5,28 80.6,28.1 80.6,28.2 80.5,28.3 79.8,28.3 79.7,28.2 79.7,28.1 	"/>
	<polygon fill="#A7A9AC" points="78.6,28.1 78.7,28 79.4,28 79.5,28.1 79.5,28.2 79.4,28.3 78.7,28.3 78.6,28.2 78.6,28.1 	"/>
	<polygon fill="#A7A9AC" points="77.5,28.1 77.6,28 78.3,28 78.4,28.1 78.4,28.2 78.3,28.3 77.6,28.3 77.5,28.2 77.5,28.1 	"/>
	<polygon fill="#A7A9AC" points="89.7,26.9 89.8,26.8 90.4,26.8 90.5,26.9 90.5,27.5 90.4,27.6 89.8,27.6 89.7,27.5 89.7,26.9 	"/>
	<polygon fill="#A7A9AC" points="88.7,26.9 88.8,26.8 89.3,26.8 89.5,26.9 89.5,27.5 89.3,27.6 88.8,27.6 88.7,27.5 88.7,26.9 	"/>
	<polygon fill="#A7A9AC" points="87.7,26.9 87.8,26.8 88.3,26.8 88.4,26.9 88.4,27.5 88.3,27.6 87.8,27.6 87.7,27.5 87.7,26.9 	"/>
	<polygon fill="#A7A9AC" points="86.6,26.9 86.8,26.8 87.3,26.8 87.4,26.9 87.4,27.5 87.3,27.6 86.8,27.6 86.6,27.5 86.6,26.9 	"/>
	<polygon fill="#A7A9AC" points="85.6,26.9 85.7,26.8 86.3,26.8 86.4,26.9 86.4,27.5 86.3,27.6 85.7,27.6 85.6,27.5 85.6,26.9 	"/>
	<polygon fill="#A7A9AC" points="84.6,26.9 84.7,26.8 85.3,26.8 85.4,26.9 85.4,27.5 85.3,27.6 84.7,27.6 84.6,27.5 84.6,26.9 	"/>
	<polygon fill="#A7A9AC" points="83.6,26.9 83.7,26.8 84.3,26.8 84.4,26.9 84.4,27.5 84.3,27.6 83.7,27.6 83.6,27.5 83.6,26.9 	"/>
	<polygon fill="#A7A9AC" points="82.6,26.9 82.7,26.8 83.3,26.8 83.4,26.9 83.4,27.5 83.3,27.6 82.7,27.6 82.6,27.5 82.6,26.9 	"/>
	<polygon fill="#A7A9AC" points="81.6,26.9 81.7,26.8 82.3,26.8 82.4,26.9 82.4,27.5 82.3,27.6 81.7,27.6 81.6,27.5 81.6,26.9 	"/>
	<polygon fill="#A7A9AC" points="80.6,26.9 80.7,26.8 81.2,26.8 81.4,26.9 81.4,27.5 81.2,27.6 80.7,27.6 80.6,27.5 80.6,26.9 	"/>
	<polygon fill="#A7A9AC" points="79.6,26.9 79.7,26.8 80.2,26.8 80.3,26.9 80.3,27.5 80.2,27.6 79.7,27.6 79.6,27.5 79.6,26.9 	"/>
	<polygon fill="#A7A9AC" points="78.5,26.9 78.7,26.8 79.2,26.8 79.3,26.9 79.3,27.5 79.2,27.6 78.7,27.6 78.5,27.5 78.5,26.9 	"/>
	<polygon fill="#A7A9AC" points="77.5,26.9 77.6,26.8 78.2,26.8 78.3,26.9 78.3,27.5 78.2,27.6 77.6,27.6 77.5,27.5 77.5,26.9 	"/>
	<polygon fill="#A7A9AC" points="89.7,25.9 89.8,25.7 90.4,25.7 90.5,25.9 90.5,26.4 90.4,26.5 89.8,26.5 89.7,26.4 89.7,25.9 	"/>
	<polygon fill="#A7A9AC" points="88.7,25.9 88.8,25.7 89.3,25.7 89.5,25.9 89.5,26.4 89.3,26.5 88.8,26.5 88.7,26.4 88.7,25.9 	"/>
	<polygon fill="#A7A9AC" points="87.7,25.9 87.8,25.7 88.3,25.7 88.4,25.9 88.4,26.4 88.3,26.5 87.8,26.5 87.7,26.4 87.7,25.9 	"/>
	<polygon fill="#A7A9AC" points="86.6,25.9 86.8,25.7 87.3,25.7 87.4,25.9 87.4,26.4 87.3,26.5 86.8,26.5 86.6,26.4 86.6,25.9 	"/>
	<polygon fill="#A7A9AC" points="85.6,25.9 85.7,25.7 86.3,25.7 86.4,25.9 86.4,26.4 86.3,26.5 85.7,26.5 85.6,26.4 85.6,25.9 	"/>
	<polygon fill="#A7A9AC" points="84.6,25.9 84.7,25.7 85.3,25.7 85.4,25.9 85.4,26.4 85.3,26.5 84.7,26.5 84.6,26.4 84.6,25.9 	"/>
	<polygon fill="#A7A9AC" points="83.6,25.9 83.7,25.7 84.3,25.7 84.4,25.9 84.4,26.4 84.3,26.5 83.7,26.5 83.6,26.4 83.6,25.9 	"/>
	<polygon fill="#A7A9AC" points="82.6,25.9 82.7,25.7 83.3,25.7 83.4,25.9 83.4,26.4 83.3,26.5 82.7,26.5 82.6,26.4 82.6,25.9 	"/>
	<polygon fill="#A7A9AC" points="81.6,25.9 81.7,25.7 82.3,25.7 82.4,25.9 82.4,26.4 82.3,26.5 81.7,26.5 81.6,26.4 81.6,25.9 	"/>
	<polygon fill="#A7A9AC" points="80.6,25.9 80.7,25.7 81.2,25.7 81.4,25.9 81.4,26.4 81.2,26.5 80.7,26.5 80.6,26.4 80.6,25.9 	"/>
	<polygon fill="#A7A9AC" points="79.6,25.9 79.7,25.7 80.2,25.7 80.3,25.9 80.3,26.4 80.2,26.5 79.7,26.5 79.6,26.4 79.6,25.9 	"/>
	<polygon fill="#A7A9AC" points="78.5,25.9 78.7,25.7 79.2,25.7 79.3,25.9 79.3,26.4 79.2,26.5 78.7,26.5 78.5,26.4 78.5,25.9 	"/>
	<polygon fill="#A7A9AC" points="77.5,25.9 77.6,25.7 78.2,25.7 78.3,25.9 78.3,26.4 78.2,26.5 77.6,26.5 77.5,26.4 77.5,25.9 	"/>
	<polygon fill="#A7A9AC" points="89.7,24.8 89.8,24.7 90.4,24.7 90.5,24.8 90.5,25.4 90.4,25.5 89.8,25.5 89.7,25.4 89.7,24.8 	"/>
	<polygon fill="#A7A9AC" points="88.7,24.8 88.8,24.7 89.3,24.7 89.5,24.8 89.5,25.4 89.3,25.5 88.8,25.5 88.7,25.4 88.7,24.8 	"/>
	<polygon fill="#A7A9AC" points="87.7,24.8 87.8,24.7 88.3,24.7 88.4,24.8 88.4,25.4 88.3,25.5 87.8,25.5 87.7,25.4 87.7,24.8 	"/>
	<polygon fill="#A7A9AC" points="86.6,24.8 86.8,24.7 87.3,24.7 87.4,24.8 87.4,25.4 87.3,25.5 86.8,25.5 86.6,25.4 86.6,24.8 	"/>
	<polygon fill="#A7A9AC" points="85.6,24.8 85.7,24.7 86.3,24.7 86.4,24.8 86.4,25.4 86.3,25.5 85.7,25.5 85.6,25.4 85.6,24.8 	"/>
	<polygon fill="#A7A9AC" points="84.6,24.8 84.7,24.7 85.3,24.7 85.4,24.8 85.4,25.4 85.3,25.5 84.7,25.5 84.6,25.4 84.6,24.8 	"/>
	<polygon fill="#A7A9AC" points="83.6,24.8 83.7,24.7 84.3,24.7 84.4,24.8 84.4,25.4 84.3,25.5 83.7,25.5 83.6,25.4 83.6,24.8 	"/>
	<polygon fill="#A7A9AC" points="82.6,24.8 82.7,24.7 83.3,24.7 83.4,24.8 83.4,25.4 83.3,25.5 82.7,25.5 82.6,25.4 82.6,24.8 	"/>
	<polygon fill="#A7A9AC" points="81.6,24.8 81.7,24.7 82.3,24.7 82.4,24.8 82.4,25.4 82.3,25.5 81.7,25.5 81.6,25.4 81.6,24.8 	"/>
	<polygon fill="#A7A9AC" points="80.6,24.8 80.7,24.7 81.2,24.7 81.4,24.8 81.4,25.4 81.2,25.5 80.7,25.5 80.6,25.4 80.6,24.8 	"/>
	<polygon fill="#A7A9AC" points="79.6,24.8 79.7,24.7 80.2,24.7 80.3,24.8 80.3,25.4 80.2,25.5 79.7,25.5 79.6,25.4 79.6,24.8 	"/>
	<polygon fill="#A7A9AC" points="78.5,24.8 78.7,24.7 79.2,24.7 79.3,24.8 79.3,25.4 79.2,25.5 78.7,25.5 78.5,25.4 78.5,24.8 	"/>
	<polygon fill="#A7A9AC" points="77.5,24.8 77.6,24.7 78.2,24.7 78.3,24.8 78.3,25.4 78.2,25.5 77.6,25.5 77.5,25.4 77.5,24.8 	"/>
	<polygon fill="#A7A9AC" points="89.7,23.8 89.8,23.7 90.3,23.7 90.5,23.8 90.5,24.3 90.3,24.4 89.8,24.4 89.7,24.3 89.7,23.8 	"/>
	<polygon fill="#A7A9AC" points="88.6,23.8 88.8,23.7 89.3,23.7 89.4,23.8 89.4,24.3 89.3,24.4 88.8,24.4 88.6,24.3 88.6,23.8 	"/>
	<polygon fill="#A7A9AC" points="87.6,23.8 87.7,23.7 88.3,23.7 88.4,23.8 88.4,24.3 88.3,24.4 87.7,24.4 87.6,24.3 87.6,23.8 	"/>
	<polygon fill="#A7A9AC" points="86.6,23.8 86.7,23.7 87.3,23.7 87.4,23.8 87.4,24.3 87.3,24.4 86.7,24.4 86.6,24.3 86.6,23.8 	"/>
	<polygon fill="#A7A9AC" points="85.6,23.8 85.7,23.7 86.3,23.7 86.4,23.8 86.4,24.3 86.3,24.4 85.7,24.4 85.6,24.3 85.6,23.8 	"/>
	<polygon fill="#A7A9AC" points="81.6,23.8 81.7,23.7 82.2,23.7 82.4,23.8 82.4,24.3 82.2,24.4 81.7,24.4 81.6,24.3 81.6,23.8 	"/>
	<polygon fill="#A7A9AC" points="80.5,23.8 80.7,23.7 81.2,23.7 81.3,23.8 81.3,24.3 81.2,24.4 80.7,24.4 80.5,24.3 80.5,23.8 	"/>
	<polygon fill="#A7A9AC" points="79.5,23.8 79.6,23.7 80.2,23.7 80.3,23.8 80.3,24.3 80.2,24.4 79.6,24.4 79.5,24.3 79.5,23.8 	"/>
	<polygon fill="#A7A9AC" points="78.5,23.8 78.6,23.7 79.2,23.7 79.3,23.8 79.3,24.3 79.2,24.4 78.6,24.4 78.5,24.3 78.5,23.8 	"/>
	<polygon fill="#A7A9AC" points="77.5,23.8 77.6,23.7 78.2,23.7 78.3,23.8 78.3,24.3 78.2,24.4 77.6,24.4 77.5,24.3 77.5,23.8 	"/>
	<polygon fill="#A7A9AC" points="82.6,23.8 82.7,23.7 85.3,23.7 85.4,23.8 85.4,24.3 85.3,24.4 82.7,24.4 82.6,24.3 82.6,23.8 	"/>
	<polygon fill="#FED3A8" points="78.6,20.5 80.2,23.1 80.2,25.2 80.4,25.7 81.8,26.7 82.3,26.6 82.2,26.1 81.8,25.7 81.6,24.5 
		81.9,25.7 82.4,26.3 82.6,26.2 82.7,25.5 82.6,24.8 82.4,23.7 82.2,23 81.6,22.5 80.1,19.8 78.6,20.5 	"/>
	<polygon fill="#FCF4DA" points="82.6,25.6 82.1,25.8 82.4,26.1 82.5,26.1 82.6,25.6 	"/>
	<polygon fill="#FBB992" points="79,20.4 80.7,23.1 80.9,25.3 81.4,26.3 80.7,25.3 80.2,23.1 78.6,20.5 79,20.4 	"/>
	<polygon fill="#FBB992" points="81.7,24.9 81.6,23.7 81.6,24.6 81.7,24.9 	"/>
	<polygon fill="#FED3A8" points="89.6,20.5 88,23.1 87.9,25.2 87.7,25.7 86.3,26.7 85.9,26.6 86,26.1 86.4,25.7 86.5,24.5 
		86.2,25.7 85.8,26.3 85.5,26.2 85.5,25.5 85.6,24.8 85.7,23.7 85.9,23 86.6,22.5 88.1,19.8 89.6,20.5 	"/>
	<polygon fill="#FCF4DA" points="85.6,25.6 86,25.8 85.8,26.1 85.6,26.1 85.6,25.6 	"/>
	<polygon fill="#FBB992" points="89.2,20.4 87.5,23.1 87.3,25.3 86.7,26.3 87.4,25.3 88,23.1 89.6,20.5 89.2,20.4 	"/>
	<polygon fill="#FBB992" points="86.4,24.9 86.6,23.7 86.6,24.6 86.4,24.9 	"/>
	<polygon fill="#D1D3D4" points="78.8,21.7 79.3,22.3 81,20.9 80.7,20.4 78.8,21.7 	"/>
	<polygon fill="#D1D3D4" points="89.3,21.6 88.8,22.2 87.1,20.9 87.4,20.4 89.3,21.6 	"/>
	<path fill="#414042" d="M84,4.8l-5.6,2l-2.1,3.7c0,0-0.6,3.4-0.2,5.8l2.7,5.5l1.9-1.5l-1.5-4.2l4.8,0v0h0v0l4.8,0l-1.6,4.2l1.9,1.5
		l2.7-5.5c0.5-2.4-0.2-5.8-0.2-5.8l-2.1-3.7L84,4.8L84,4.8L84,4.8z"/>
	<polygon fill="#A7A9AC" points="85.5,11.6 84,16.2 82.5,11.6 85.5,11.6 	"/>
	<polygon fill="#FED3A8" points="80.6,6.7 79.6,7 79.7,7.9 80.6,8.9 80.6,6.7 	"/>
	<polygon fill="#FED3A8" points="84,3.8 81.3,4.3 80.1,7.5 81.2,11 84,12.8 84,3.8 	"/>
	<polygon fill="#A06939" points="84,2 80.3,3.3 79.9,6.8 80.7,8.9 81.5,9 81.7,10.5 84,10 84,2 	"/>
	<polygon fill="#FBB992" points="87.4,6.7 88.4,7 88.3,7.9 87.4,8.9 87.4,6.7 	"/>
	<polygon fill="#FBB992" points="84,3.8 86.7,4.3 87.9,7.5 86.9,11 84,12.8 84,3.8 	"/>
	<polygon fill="#7F492A" points="84,2 87.7,3.3 88.1,6.8 87.4,8.9 86.5,9 86,10.1 84,10.9 84,2 	"/>
	<path fill="#D1D3D4" d="M130.3,29.3c-0.9,1.1-2.6,1.3-3.7,0.4c-1.1-0.9-1.3-2.6-0.4-3.7c0.9-1.1,2.6-1.3,3.7-0.4
		C131,26.5,131.2,28.2,130.3,29.3L130.3,29.3z"/>
	<path fill="#F1F2F2" d="M129.6,28.8c-0.6,0.8-1.8,0.9-2.6,0.3c-0.8-0.6-0.9-1.8-0.3-2.6c0.6-0.8,1.8-0.9,2.6-0.3
		C130.2,26.9,130.3,28,129.6,28.8L129.6,28.8z"/>
	<path fill="#DA7027" d="M129.4,28.6c-0.5,0.6-1.5,0.7-2.1,0.2c-0.6-0.5-0.7-1.5-0.2-2.1c0.5-0.6,1.5-0.7,2.1-0.2
		C129.8,27,129.9,28,129.4,28.6L129.4,28.6z"/>
	<path fill="#DA6027" d="M129.1,28.4c-0.4,0.5-1.1,0.6-1.6,0.2c-0.5-0.4-0.6-1.1-0.2-1.6c0.4-0.5,1.1-0.6,1.6-0.2
		C129.4,27.2,129.5,27.9,129.1,28.4L129.1,28.4z"/>
	<path fill="#C74727" d="M129,28.3c-0.4,0.4-1,0.5-1.4,0.1c-0.4-0.4-0.5-1-0.1-1.4c0.4-0.4,1-0.5,1.4-0.1
		C129.3,27.2,129.3,27.9,129,28.3L129,28.3z"/>
	<path fill="#F1F2F2" d="M130,29.1c-0.1,0.1-0.2,0.1-0.3,0.1l-0.3-0.2c-0.1-0.1-0.1-0.2,0-0.3l0,0c0.1-0.1,0.2-0.1,0.3-0.1l0.3,0.2
		C130.1,28.9,130.1,29,130,29.1L130,29.1L130,29.1z"/>
	<polygon fill="#FFFFFF" points="126.5,26.5 126.1,25.9 126.7,25.6 127.1,26.2 126.5,26.5 	"/>
	<polygon fill="#FFFFFF" points="126.5,27.3 125.8,27.1 126,26.4 126.7,26.6 126.5,27.3 	"/>
	<path fill="#6B6C6F" d="M118.6,21.7c0-0.1,0.1-0.2,0.3-0.2h4.9c0.2,0,0.3,0.1,0.3,0.2v6.8c0,0.1-0.1,0.2-0.3,0.2h-4.9
		c-0.2,0-0.3-0.1-0.3-0.2V21.7L118.6,21.7z"/>
	<path d="M118.6,21.8c0-0.1,0.1-0.2,0.3-0.2h4.9c0.2,0,0.3,0.1,0.3,0.2v6.8c0,0.1-0.1,0.2-0.3,0.2h-4.9c-0.2,0-0.3-0.1-0.3-0.2V21.8
		L118.6,21.8z"/>
	<path fill="#B0B1B3" d="M124.2,28.6v-6.8c0-0.1-0.1-0.2-0.3-0.2h-4.9c-0.2,0-0.3,0.1-0.3,0.2v6.8c0,0.1,0.1,0.2,0.3,0.2h4.9
		C124,28.8,124.2,28.7,124.2,28.6L124.2,28.6z M123.9,21.5c0.2,0,0.3,0.1,0.3,0.3v6.8c0,0.2-0.2,0.3-0.3,0.3h-4.9
		c-0.2,0-0.3-0.1-0.3-0.3v-6.8c0-0.2,0.2-0.3,0.3-0.3H123.9L123.9,21.5z"/>
	<polygon fill="#34C1D6" points="119.1,28.2 123.6,28.2 123.6,22.2 119.1,22.2 119.1,28.2 	"/>
	<polygon fill="#C4C4C6" points="121.3,28.5 121.4,28.4 121.5,28.5 121.4,28.6 121.3,28.5 	"/>
	<polygon fill="#FFFFFF" points="121.4,28.5 121.4,28.5 121.4,28.5 121.4,28.6 121.4,28.5 	"/>
	<polygon fill="#808184" points="121.2,21.8 121.3,21.8 121.5,21.8 121.6,21.8 121.6,22 121.5,22 121.3,22 121.2,22 121.2,21.8 	"/>
	<polygon fill="#515255" points="119.9,28.8 122.9,28.8 122.9,28.8 119.9,28.8 119.9,28.8 	"/>
	<polygon fill="#FFFFFF" points="119.1,28.2 123.6,28.2 123.6,22.2 119.1,22.2 119.1,28.2 	"/>
	<polygon fill="#E6E7E8" points="119.1,28.2 120.1,28.2 120.1,22.2 119.1,22.2 119.1,28.2 	"/>
	<polygon fill="#3E9BD6" points="119.1,28.2 123.6,28.2 123.6,27.8 119.1,27.8 119.1,28.2 	"/>
	<polygon fill="#1561AE" points="122.3,28 122.4,27.9 123.3,27.9 123.4,28 123.3,28.1 122.4,28.1 122.3,28 	"/>
	<polygon fill="#FFFFFF" points="120.4,28 120.4,27.9 122.1,27.9 122.2,28 122.1,28 120.4,28 120.4,28 	"/>
	<polygon fill="#F1F2F2" points="120.4,27.6 123.4,27.6 123.4,25.9 120.4,25.9 120.4,27.6 	"/>
	<polygon fill="#F47B20" points="122.8,27.4 123.3,27.4 123.3,26.9 122.8,26.9 122.8,27.4 	"/>
	<polygon fill="#E6E7E8" points="121.6,27.4 122.7,27.4 122.7,27.3 121.6,27.3 121.6,27.4 	"/>
	<polygon fill="#939598" points="120.5,26.8 123.3,26.8 123.3,26.7 120.5,26.7 120.5,26.8 	"/>
	<polygon fill="#E6E7E8" points="120.5,26.6 123.3,26.6 123.3,26.5 120.5,26.5 120.5,26.6 	"/>
	<polygon fill="#E6E7E8" points="120.5,26.4 123.3,26.4 123.3,26.3 120.5,26.3 120.5,26.4 	"/>
	<polygon fill="#E6E7E8" points="120.5,26.2 123.3,26.2 123.3,26.1 120.5,26.1 120.5,26.2 	"/>
	<polygon fill="#F1F2F2" points="120.4,25.7 123.4,25.7 123.4,24 120.4,24 120.4,25.7 	"/>
	<polygon fill="#ED207A" points="122.8,25.5 123.3,25.5 123.3,25 122.8,25 122.8,25.5 	"/>
	<polygon fill="#E6E7E8" points="121.6,25.5 122.7,25.5 122.7,25.4 121.6,25.4 121.6,25.5 	"/>
	<polygon fill="#D1D3D4" points="121.9,24.9 123.3,24.9 123.3,24.1 121.9,24.1 121.9,24.9 	"/>
	<polygon fill="#D1D3D4" points="120.5,24.9 121.9,24.9 121.9,24.1 120.5,24.1 120.5,24.9 	"/>
	<polygon fill="#F1F2F2" points="120.4,23.8 123.4,23.8 123.4,22.2 120.4,22.2 120.4,23.8 	"/>
	<polygon fill="#34C1D6" points="122.8,23.7 123.3,23.7 123.3,23.1 122.8,23.1 122.8,23.7 	"/>
	<polygon fill="#E6E7E8" points="121.6,23.6 122.7,23.6 122.7,23.5 121.6,23.5 121.6,23.6 	"/>
	<polygon fill="#939598" points="120.5,23.1 123.3,23.1 123.3,23 120.5,23 120.5,23.1 	"/>
	<polygon fill="#E6E7E8" points="120.5,22.8 123.3,22.8 123.3,22.8 120.5,22.8 120.5,22.8 	"/>
	<polygon fill="#E6E7E8" points="120.5,22.6 123.3,22.6 123.3,22.5 120.5,22.5 120.5,22.6 	"/>
	<polygon fill="#E6E7E8" points="120.5,22.4 123.3,22.4 123.3,22.3 120.5,22.3 120.5,22.4 	"/>
	<polygon fill="#F1F2F2" points="119.3,26.9 119.4,26.8 119.9,26.8 120,26.9 120,27.3 119.9,27.5 119.4,27.5 119.3,27.3 119.3,26.9 
			"/>
	<polygon fill="#F1F2F2" points="119.3,25.5 119.4,25.4 119.9,25.4 120,25.5 120,26 119.9,26.1 119.4,26.1 119.3,26 119.3,25.5 	"/>
	<polygon fill="#F1F2F2" points="119.3,24.2 119.4,24 119.9,24 120,24.2 120,24.6 119.9,24.7 119.4,24.7 119.3,24.6 119.3,24.2 	"/>
	<polygon fill="#F1F2F2" points="119.3,22.8 119.4,22.7 119.9,22.7 120,22.8 120,23.3 119.9,23.4 119.4,23.4 119.3,23.3 119.3,22.8 
			"/>
	<path fill="#0E0E0D" d="M123.6,25.8C123.6,25.8,123.6,25.8,123.6,25.8l0-3.6h0V25.8L123.6,25.8z M119.1,23.4
		C119.1,23.4,119.1,23.4,119.1,23.4l0-1.2h0V23.4L119.1,23.4z"/>
	<polygon fill="#4DB9CA" points="119.1,23.4 119.1,23.4 119.1,22.2 119.1,22.2 119.1,23.4 	"/>
	<path fill="#EDEDEE" d="M123.6,25.8c0,0-0.2-0.1-0.5-0.2h0.3V24h-3v0.4c-0.1-0.1-0.2-0.1-0.2-0.2v-2h3.5V25.8L123.6,25.8z
		 M120.4,22.2v1.6h3v-1.6H120.4L120.4,22.2z"/>
	<path fill="#DADBDC" d="M120.1,24.2c-0.3-0.2-0.7-0.5-1-0.8v-1.2h1V24.2L120.1,24.2z M119.4,22.7l-0.1,0.1v0.5l0.1,0.1h0.5l0.1-0.1
		v-0.5l-0.1-0.1H119.4L119.4,22.7z"/>
	<path fill="#E2E3E4" d="M123.4,25.7h-0.3c-0.2-0.1-0.3-0.1-0.6-0.2h0.1v-0.1h-0.3c-0.3-0.1-0.7-0.3-1-0.5h0.5v-0.9h-1.3v0.4
		c-0.1,0-0.1-0.1-0.2-0.1V24h3V25.7L123.4,25.7z M122.8,25v0.5h0.5V25H122.8L122.8,25z M121.9,24.1v0.9h1.3v-0.9H121.9L121.9,24.1z"
		/>
	<polygon fill="#DE3F7B" points="122.8,25.5 123.3,25.5 123.3,25 122.8,25 122.8,25.5 	"/>
	<path fill="#DADBDC" d="M122.7,25.5h-0.1c-0.1,0-0.1-0.1-0.2-0.1L122.7,25.5L122.7,25.5L122.7,25.5z"/>
	<polygon fill="#C7C8CA" points="121.9,24.9 123.3,24.9 123.3,24.1 121.9,24.1 121.9,24.9 	"/>
	<path fill="#C7C8CA" d="M121.9,24.9h-0.5c-0.3-0.1-0.5-0.3-0.8-0.4v-0.4h1.3V24.9L121.9,24.9z"/>
	<path fill="#E2E3E4" d="M123.4,23.8h-3v-1.6h3V23.8L123.4,23.8z M122.8,23.1v0.5h0.5v-0.5H122.8L122.8,23.1z M121.6,23.5
		L121.6,23.5l1,0.1v-0.1H121.6L121.6,23.5z M120.5,23L120.5,23l2.8,0.1V23H120.5L120.5,23z M120.5,22.8L120.5,22.8l2.8,0.1v-0.1
		H120.5L120.5,22.8z M120.5,22.5L120.5,22.5l2.8,0.1v-0.1H120.5L120.5,22.5z M120.5,22.3L120.5,22.3l2.8,0.1v-0.1H120.5L120.5,22.3z
		"/>
	<polygon fill="#4DB9CA" points="122.8,23.7 123.3,23.7 123.3,23.1 122.8,23.1 122.8,23.7 	"/>
	<polygon fill="#DADBDC" points="121.6,23.6 122.7,23.6 122.7,23.5 121.6,23.5 121.6,23.6 	"/>
	<polygon fill="#8F9194" points="120.5,23.1 123.3,23.1 123.3,23 120.5,23 120.5,23.1 	"/>
	<polygon fill="#DADBDC" points="120.5,22.8 123.3,22.8 123.3,22.8 120.5,22.8 120.5,22.8 	"/>
	<polygon fill="#DADBDC" points="120.5,22.6 123.3,22.6 123.3,22.5 120.5,22.5 120.5,22.6 	"/>
	<polygon fill="#DADBDC" points="120.5,22.4 123.3,22.4 123.3,22.3 120.5,22.3 120.5,22.4 	"/>
	<polygon fill="#E2E3E4" points="119.9,23.4 119.4,23.4 119.3,23.3 119.3,22.8 119.4,22.7 119.9,22.7 120,22.8 120,23.3 119.9,23.4 
			"/>
	<polygon fill="#FED3A8" points="119.4,24.3 119.3,23.3 119.1,22.7 118.6,22.2 117.2,19.8 115.9,20.5 117.3,22.7 117.4,24.6 
		117.6,25.1 118.6,25.8 118.6,24.2 118.6,24.2 118.6,24 118.9,25.1 119.3,25.6 119.5,25.5 119.5,24.9 119.4,24.3 	"/>
	<polygon fill="#FCF4DA" points="119.4,25 119,25.2 119.3,25.4 119.4,25.4 119.4,25 	"/>
	<polygon fill="#FBB992" points="116.3,20.3 117.7,22.8 118,24.7 118.4,25.6 117.8,24.8 117.3,22.7 115.9,20.5 116.3,20.3 	"/>
	<polygon fill="#FBB992" points="118.7,24.4 118.6,23.3 118.6,24.1 118.7,24.4 	"/>
	<polygon fill="#FED3A8" points="123.4,24.3 123.5,23.3 123.7,22.7 124.3,22.2 125.6,19.8 126.9,20.5 125.5,22.7 125.5,24.6 
		125.3,25.1 124.2,25.8 124.2,24.2 124.2,24.2 124.2,24 124,25.1 123.5,25.6 123.3,25.5 123.3,24.9 123.4,24.3 	"/>
	<polygon fill="#FCF4DA" points="123.4,25 123.8,25.2 123.6,25.4 123.4,25.4 123.4,25 	"/>
	<polygon fill="#FBB992" points="126.6,20.3 125.1,22.8 124.9,24.7 124.4,25.6 125,24.8 125.5,22.7 126.9,20.5 126.6,20.3 	"/>
	<polygon fill="#FBB992" points="124.1,24.4 124.2,23.3 124.2,24.1 124.1,24.4 	"/>
	<path fill="#414042" d="M121.1,6l-5,1.8l-2,3.9c0,0-0.4,2.8,0.3,4.9l1.8,5.2l2-1.3l-1.2-6.7l1,2.5l3.5,0l0,0h0l0,0l3.7-0.1l0.8-2.5
		l-1.3,6.8l1.8,2l1.9-5.9c0.5-2.4,0.5-4.4,0.5-4.4l-1.8-4.3l-4.7-1.8L121.1,6L121.1,6z"/>
	<polygon fill="#FFFFFF" points="122.9,11.7 121.4,16.3 119.9,11.7 122.9,11.7 	"/>
	<polygon fill="#B03B24" points="117.3,9 118.9,14.4 120.1,14.5 120.5,14.1 120.2,12.8 118.2,9.8 117.3,9 	"/>
	<polygon fill="#B03B24" points="125.5,8.9 123.9,14.3 122.7,14.4 122.3,14 122.6,12.7 124.6,9.7 125.5,8.9 	"/>
	<polygon fill="#FBB992" points="124.7,7.6 125.7,7.8 125.6,8.8 124.7,9.7 124.7,7.6 	"/>
	<polygon fill="#FBB992" points="121.3,4.6 124,5.2 125.2,8.3 124.2,11.8 121.3,13.5 121.3,4.6 	"/>
	<polygon fill="#CD3C27" points="121.3,2.9 125,4.2 125.4,7.7 124.7,9.7 123.8,9.8 123.3,10.9 121.3,11.7 121.1,7.5 121.3,2.9 	"/>
	<polygon fill="#FED3A8" points="117.9,7.6 117,7.8 117.1,8.8 117.9,9.7 117.9,7.6 	"/>
	<polygon fill="#FED3A8" points="121.4,4.6 118.7,5.2 117.5,8.3 118.5,11.8 121.4,13.5 121.4,4.6 	"/>
	<polygon fill="#B03B24" points="121.4,2.9 117.6,4.2 117.3,7.7 118,9.7 118.9,9.8 119.4,10.9 121.4,11.7 121.4,2.9 	"/>
	<path fill="#F1F2F2" d="M150.4,22.7c1.5,0.1,2.6,1.3,2.6,2.8c-0.1,1.5-1.3,2.6-2.8,2.6c-1.5-0.1-2.6-1.3-2.6-2.8
		C147.7,23.8,149,22.7,150.4,22.7L150.4,22.7z"/>
	<path fill="#D1D3D4" d="M150.4,23.6c1,0,1.8,0.9,1.8,1.9c0,1-0.9,1.8-1.9,1.8c-1,0-1.8-0.9-1.8-1.9
		C148.5,24.3,149.4,23.5,150.4,23.6L150.4,23.6z"/>
	<path fill="#512C13" d="M150.4,23.9c0.8,0,1.5,0.7,1.4,1.6c0,0.8-0.7,1.5-1.6,1.4c-0.8,0-1.5-0.7-1.4-1.6
		C148.9,24.5,149.6,23.9,150.4,23.9L150.4,23.9z"/>
	<path fill="#673B1B" d="M150.4,24.2c0.6,0,1.1,0.6,1.1,1.2c0,0.6-0.6,1.1-1.2,1.1c-0.6,0-1.1-0.6-1.1-1.2
		C149.2,24.7,149.7,24.2,150.4,24.2L150.4,24.2z"/>
	<path fill="#7F492A" d="M150.4,24.4c0.6,0,1,0.5,1,1c0,0.6-0.5,1-1,1c-0.6,0-1-0.5-1-1C149.4,24.8,149.8,24.4,150.4,24.4
		L150.4,24.4z"/>
	<path fill="#D1D3D4" d="M150.5,23.1c0.1,0,0.2,0.1,0.2,0.2l0,0.3c0,0.1-0.1,0.2-0.2,0.2l-0.1,0c-0.1,0-0.2-0.1-0.2-0.2l0-0.3
		C150.2,23.2,150.3,23.1,150.5,23.1L150.5,23.1L150.5,23.1z"/>
	<path fill="#DEDFE0" d="M149.5,27.1c0.3,0,0.5,0.2,0.5,0.4c0,0.2-0.3,0.3-0.5,0.3c-0.3,0-0.5-0.2-0.5-0.4
		C148.9,27.2,149.2,27.1,149.5,27.1L149.5,27.1z"/>
	<polygon fill="#DEDFE0" points="151.9,27.4 152,27.5 151.9,27.6 149.9,27.5 149.8,27.5 149.9,27.4 151.9,27.4 	"/>
	<path fill="#D1D3D4" d="M149.5,27.2c0.2,0,0.4,0.1,0.4,0.3c0,0.2-0.2,0.3-0.4,0.3c-0.2,0-0.4-0.1-0.4-0.3
		C149.1,27.3,149.3,27.2,149.5,27.2L149.5,27.2z"/>
	<polygon fill="#7F492A" points="155.4,28.9 161.8,28.9 161.8,19.9 155.4,19.9 155.4,28.9 	"/>
	<polygon fill="#FFFFFF" points="155.9,28.2 161.3,28.2 161.3,20.5 155.9,20.5 155.9,28.2 	"/>
	<polygon fill="#F99D20" points="158.7,27.6 161,27.6 161,25.5 158.7,25.5 158.7,27.6 	"/>
	<polygon fill="#97D7DC" points="156.2,24.6 159.8,24.6 159.8,23.3 156.2,23.3 156.2,24.6 	"/>
	<polygon fill="#E6E7E8" points="156.2,27.5 158.4,27.5 158.4,27.4 156.2,27.4 156.2,27.5 	"/>
	<polygon fill="#E6E7E8" points="156.2,27.1 158.4,27.1 158.4,27 156.2,27 156.2,27.1 	"/>
	<polygon fill="#E6E7E8" points="156.2,26.8 158.4,26.8 158.4,26.6 156.2,26.6 156.2,26.8 	"/>
	<polygon fill="#E6E7E8" points="156.2,26.4 158.4,26.4 158.4,26.3 156.2,26.3 156.2,26.4 	"/>
	<polygon fill="#E6E7E8" points="156.2,26 158.4,26 158.4,25.9 156.2,25.9 156.2,26 	"/>
	<polygon fill="#E6E7E8" points="156.2,25.7 158.4,25.7 158.4,25.6 156.2,25.6 156.2,25.7 	"/>
	<polygon fill="#E6E7E8" points="156.2,25.3 161,25.3 161,25.2 156.2,25.2 156.2,25.3 	"/>
	<polygon fill="#E6E7E8" points="158.7,25 161,25 161,24.8 158.7,24.8 158.7,25 	"/>
	<polygon fill="#E6E7E8" points="156.2,23.1 159.8,23.1 159.8,22.9 156.2,22.9 156.2,23.1 	"/>
	<polygon fill="#E6E7E8" points="156.2,22.7 159.8,22.7 159.8,22.6 156.2,22.6 156.2,22.7 	"/>
	<polygon fill="#E6E7E8" points="156.2,22.3 159.8,22.3 159.8,22.2 156.2,22.2 156.2,22.3 	"/>
	<polygon fill="#E6E7E8" points="156.2,21.9 159.8,21.9 159.8,21.8 156.2,21.8 156.2,21.9 	"/>
	<polygon fill="#E6E7E8" points="156.2,21.6 159.8,21.6 159.8,21.4 156.2,21.4 156.2,21.6 	"/>
	<polygon fill="#E6E7E8" points="157.8,21.2 159.8,21.2 159.8,21.1 157.8,21.1 157.8,21.2 	"/>
	<polygon points="156.6,28.7 160.6,28.7 160.6,28.1 156.6,28.1 156.6,28.7 	"/>
	<polygon fill="#BCBEC0" points="156.6,28.1 160.6,28.1 160.6,27.9 156.6,27.9 156.6,28.1 	"/>
	<path fill="#A7A9AC" d="M159.5,28.9l0.3-1h-0.1L159.5,28.9L159.5,28.9c0,0.1,0.1,0.1,0.1,0.3c0,0,0,0.1-0.1,0.1h-1.7
		c-0.1,0-0.1-0.1-0.1-0.1c0-0.2,0.1-0.2,0.2-0.2l0,0l-0.3-1h-0.1l0.3,1c-0.1,0-0.2,0.1-0.2,0.3c0,0,0,0.2,0.2,0.2h1.7
		c0.2,0,0.2-0.2,0.2-0.2C159.7,29,159.5,28.9,159.5,28.9L159.5,28.9z"/>
	<polygon fill="#FBB992" points="159.7,25.8 159.9,25.9 160.4,25.9 160.7,25.3 160.5,24.3 159.9,24.9 159.7,25.8 	"/>
	<polygon fill="#FED3A8" points="161.8,20.2 160.8,22.7 159.8,23.8 159.5,25.1 159.4,25.5 159.5,25.8 159.7,25.8 160.1,25.1 
		160.3,24.7 160.3,24.6 160.3,25.2 159.8,25.8 160.3,25.7 161.1,24.8 163.2,20.7 161.8,20.2 	"/>
	<polygon fill="#F1E6CB" points="158.8,27.4 158.8,27.4 158.8,27.4 159.3,27 159,26.8 158.8,27.4 	"/>
	<polygon fill="#414042" points="159.1,26.9 159.2,27 161.2,24.1 161,24 159.1,26.9 	"/>
	<polygon fill="#DC2726" points="159.3,27.1 159.2,27 161.2,24.1 161.3,24.2 159.3,27.1 	"/>
	<polygon fill="#DC2726" points="159.1,26.9 159,26.9 161,24 161,24 159.1,26.9 	"/>
	<polygon fill="#D1D3D4" points="161,24 161.3,24.2 161.4,24 161.1,23.8 161,24 	"/>
	<polygon fill="#939598" points="161.2,23.7 161.5,23.9 161.4,24 161.1,23.8 161.2,23.7 	"/>
	<polygon fill="#1A1818" points="159,27.3 158.8,27.4 158.8,27.4 158.8,27.4 158.9,27.2 159,27.3 	"/>
	<polygon fill="#FED3A8" points="163.2,20.7 161.9,23.8 161.9,25.2 161.7,25.5 161.3,26 160.9,26.1 160.6,26.2 159.8,26.3 
		159.6,26.2 159.7,26 160,25.8 160.2,25.8 160.7,25.3 161.3,24.3 163.2,20.7 	"/>
	<polygon fill="#FCF4DA" points="159.7,25.7 159.5,25.7 159.4,25.4 159.6,25.1 159.9,25.2 159.8,25.5 159.7,25.7 	"/>
	<polygon fill="#FCF4DA" points="160.1,26.3 160.1,26.1 159.8,26.1 159.7,26.1 159.6,26.2 159.8,26.3 160.1,26.3 	"/>
	<polygon fill="#FBB992" points="161.1,24.5 160.7,25.6 160.5,25.7 160.2,25.8 161.1,24.5 	"/>
	<polygon fill="#FBB992" points="160.6,24.1 160.3,24.6 160.3,25 161,23.9 160.6,24.1 	"/>
	<polygon fill="#FBB992" points="161.9,25.2 161.6,23.5 162.7,20.5 163.2,20.7 161.9,23.8 161.9,25.2 	"/>
	<polygon fill="#FBB992" points="159.6,24.9 160,23.8 160.9,22.8 160.9,22.4 160.8,22.7 159.8,23.8 159.6,24.9 	"/>
	<polygon fill="#FBB992" points="160.7,25.6 160.8,25.9 160.7,25.5 160.7,25.6 	"/>
	<polygon fill="#FBB992" points="160.6,24.3 160.6,23.9 160.6,24.1 160.6,24.3 	"/>
	<polygon fill="#FED3A8" points="156.2,24.9 156.1,23.9 155.9,23.3 155.4,22.9 154.1,20.6 152.9,21.2 154.2,23.4 154.2,25.2 
		154.4,25.6 155.4,26.3 155.4,24.7 155.4,24.8 155.4,24.6 155.7,25.6 156.1,26.1 156.3,26 156.3,25.4 156.2,24.9 	"/>
	<polygon fill="#FCF4DA" points="156.2,25.5 155.8,25.7 156.1,25.9 156.2,25.9 156.2,25.5 	"/>
	<polygon fill="#FBB992" points="153.2,21.1 154.6,23.4 154.8,25.3 155.3,26.1 154.7,25.3 154.2,23.4 152.9,21.2 153.2,21.1 	"/>
	<polygon fill="#FBB992" points="155.5,24.9 155.4,23.9 155.4,24.6 155.5,24.9 	"/>
	<path fill="#414042" d="M157.8,6l-5,1.8l-2,3.9c0,0-0.4,2.8,0.3,4.9l1.8,5.2l2-1.3l-1.2-6.7l1,2.5l3.5,0v0h0v0l3.7-0.1l0.8-2.5
		l-1.3,6.8l1.8,2l1.9-5.9c0.5-2.4,0.5-4.4,0.5-4.4l-1.8-4.3L159,5.9L157.8,6L157.8,6z"/>
	<polygon fill="#FFFFFF" points="159.6,11.8 158.1,16.3 156.6,11.8 159.6,11.8 	"/>
	<polygon fill="#2F1B11" points="154.9,10.3 154.1,13.2 155.7,15.5 155.3,13.5 156.7,12.4 155.3,11.5 154.9,10.3 	"/>
	<polygon fill="#FED3A8" points="154.7,7.4 153.8,7.6 153.8,8.5 154.7,9.5 154.7,7.4 	"/>
	<polygon fill="#FED3A8" points="158.1,4.4 155.4,5 154.3,8.1 155.3,11.5 158.1,13.3 158.1,4.4 	"/>
	<polygon fill="#512C13" points="158.1,2.6 154.4,4 154.1,7.5 154.8,9.5 155.7,9.6 156.1,10.6 158.1,11.5 158.1,2.6 	"/>
	<polygon fill="#FBB992" points="161.5,7.4 162.5,7.6 162.4,8.5 161.5,9.5 161.5,7.4 	"/>
	<polygon fill="#FBB992" points="158.1,4.4 160.8,5 162,8.1 160.9,11.5 158.1,13.3 158.1,4.4 	"/>
	<polygon fill="#2F1B11" points="158.1,2.6 161.8,4 162.2,7.5 161.4,9.5 160.6,9.6 160.1,10.6 158.1,11.5 158,7.3 158.1,2.6 	"/>
	<path fill="#F47B20" d="M185.3,29.5c0,0.1,0.1,0.2,0.2,0.2h0.5c0.1,0,0.2-0.1,0.2-0.2v-3.9c0-0.1-0.1-0.2-0.2-0.2h-0.5
		c-0.1,0-0.2,0.1-0.2,0.2V29.5L185.3,29.5z"/>
	<path fill="#F47B20" d="M185.7,20.2L185.7,20.2V20V20.2L185.7,20.2L185.7,20.2z M185.7,20.7L185.7,20.7v-0.2V20.7L185.7,20.7
		L185.7,20.7z M185.7,21.1L185.7,21.1v-0.2V21.1L185.7,21.1L185.7,21.1z M185.7,21.6L185.7,21.6v-0.2V21.6L185.7,21.6L185.7,21.6z
		 M185.4,19.5h0.5c0.1,0,0.2,0.1,0.2,0.2v3.9c0,0.1-0.1,0.2-0.2,0.2h-0.5c-0.1,0-0.2-0.1-0.2-0.2v-3.9
		C185.3,19.6,185.3,19.5,185.4,19.5L185.4,19.5z"/>
	<path fill="#D1D3D4" d="M184.8,24.6c0,0.5,0.4,0.9,0.9,0.9c0.5,0,0.9-0.4,0.9-0.9c0-0.5-0.4-0.9-0.9-0.9
		C185.2,23.7,184.8,24.1,184.8,24.6L184.8,24.6z"/>
	<path fill="#FFFFFF" d="M184.9,24.6c0,0.4,0.3,0.8,0.8,0.8c0.4,0,0.8-0.3,0.8-0.8c0-0.4-0.3-0.8-0.8-0.8
		C185.2,23.8,184.9,24.2,184.9,24.6L184.9,24.6z"/>
	<polygon fill="#D1D3D4" points="185.2,23.6 186.1,23.6 186.1,23.8 185.2,23.8 185.2,23.6 	"/>
	<polygon fill="#D1D3D4" points="185.2,25.4 186.1,25.4 186.1,25.6 185.2,25.6 185.2,25.4 	"/>
	<polygon fill="#F47B20" points="185.6,24.7 185.7,24.7 185.7,24 185.6,24 185.6,24.7 	"/>
	<polygon fill="#F47B20" points="185,24.6 185.7,24.6 185.7,24.7 185,24.7 185,24.6 	"/>
	<path fill="#D1D3D4" d="M180.4,27.9c-0.7,0.7-0.8,1.9-0.1,2.6c0.7,0.7,1.9,0.8,2.6,0.1c0.7-0.7,0.8-1.9,0.1-2.6
		C182.3,27.2,181.1,27.2,180.4,27.9L180.4,27.9z"/>
	<path fill="#512C13" d="M180.6,28.2c-0.6,0.6-0.6,1.5-0.1,2.1c0.6,0.6,1.5,0.6,2.1,0.1c0.6-0.6,0.6-1.5,0.1-2.1
		C182.2,27.6,181.2,27.6,180.6,28.2L180.6,28.2z"/>
	<path fill="#673B1B" d="M180.8,28.4c-0.5,0.4-0.5,1.2-0.1,1.7c0.4,0.5,1.2,0.5,1.7,0.1c0.5-0.4,0.5-1.2,0.1-1.7
		C182.1,28,181.3,28,180.8,28.4L180.8,28.4z"/>
	<path fill="#7F492A" d="M181,28.5c-0.4,0.4-0.4,1,0,1.4c0.4,0.4,1,0.4,1.4,0c0.4-0.4,0.4-1,0-1.4C182,28.2,181.4,28.1,181,28.5
		L181,28.5z"/>
	<path fill="#D1D3D4" d="M180,27.6c-0.1,0.1-0.1,0.2-0.1,0.3l0.2,0.2c0.1,0.1,0.2,0,0.3,0l0,0c0.1-0.1,0.1-0.2,0.1-0.3l-0.2-0.2
		C180.3,27.4,180.2,27.4,180,27.6L180,27.6L180,27.6z"/>
	<path fill="#DEDFE0" d="M183.4,29.9c-0.2,0.2-0.3,0.5-0.1,0.6c0.1,0.1,0.4,0.1,0.6-0.1c0.2-0.2,0.3-0.5,0.1-0.6
		C183.9,29.7,183.6,29.7,183.4,29.9L183.4,29.9z"/>
	<polygon fill="#DEDFE0" points="181.8,31.8 181.8,31.9 181.9,31.9 183.4,30.6 183.4,30.4 183.3,30.4 181.8,31.8 	"/>
	<path fill="#D1D3D4" d="M183.5,30c-0.2,0.2-0.2,0.4-0.1,0.5c0.1,0.1,0.3,0.1,0.5-0.1c0.2-0.1,0.2-0.4,0.1-0.5
		C183.8,29.8,183.6,29.9,183.5,30L183.5,30z"/>
	<path fill="#F47B20" d="M199.7,23.9c0-0.1-0.1-0.2-0.2-0.2H190c-0.1,0-0.2,0.1-0.2,0.2v6.3c0,0.1,0.1,0.2,0.2,0.2h9.5
		c0.1,0,0.2-0.1,0.2-0.2V23.9L199.7,23.9z"/>
	<path fill="#F1F2F2" d="M194.8,30.3h-4.6c-0.1,0-0.2-0.1-0.2-0.2v-6.1c0-0.1,0.1-0.2,0.2-0.2h4.6V30.3L194.8,30.3z"/>
	<polygon fill="#D1D3D4" points="189.9,29.6 194.8,29.6 194.8,29.7 189.9,29.7 189.9,29.6 	"/>
	<polygon fill="#D1D3D4" points="189.9,29.3 194.8,29.3 194.8,29.3 189.9,29.3 189.9,29.3 	"/>
	<polygon fill="#D1D3D4" points="189.9,28.9 194.8,28.9 194.8,29 189.9,29 189.9,28.9 	"/>
	<polygon fill="#D1D3D4" points="189.9,28.5 194.8,28.5 194.8,28.6 189.9,28.6 189.9,28.5 	"/>
	<polygon fill="#D1D3D4" points="189.9,28.2 194.8,28.2 194.8,28.2 189.9,28.2 189.9,28.2 	"/>
	<polygon fill="#D1D3D4" points="189.9,27.8 194.8,27.8 194.8,27.9 189.9,27.9 189.9,27.8 	"/>
	<polygon fill="#D1D3D4" points="189.9,27.4 194.8,27.4 194.8,27.5 189.9,27.5 189.9,27.4 	"/>
	<polygon fill="#D1D3D4" points="189.9,27.1 194.8,27.1 194.8,27.1 189.9,27.1 189.9,27.1 	"/>
	<polygon fill="#D1D3D4" points="189.9,26.7 194.8,26.7 194.8,26.8 189.9,26.8 189.9,26.7 	"/>
	<polygon fill="#D1D3D4" points="189.9,26.3 194.8,26.3 194.8,26.4 189.9,26.4 189.9,26.3 	"/>
	<polygon fill="#D1D3D4" points="189.9,26 194.8,26 194.8,26 189.9,26 189.9,26 	"/>
	<polygon fill="#D1D3D4" points="189.9,25.6 194.8,25.6 194.8,25.7 189.9,25.7 189.9,25.6 	"/>
	<polygon fill="#D1D3D4" points="189.9,25.2 194.8,25.2 194.8,25.3 189.9,25.3 189.9,25.2 	"/>
	<polygon fill="#D1D3D4" points="189.9,24.9 194.8,24.9 194.8,24.9 189.9,24.9 189.9,24.9 	"/>
	<polygon fill="#D1D3D4" points="189.9,24.5 194.8,24.5 194.8,24.6 189.9,24.6 189.9,24.5 	"/>
	<path fill="#E6E7E8" d="M194.8,30.3h4.6c0.1,0,0.2-0.1,0.2-0.2v-6.1c0-0.1-0.1-0.2-0.2-0.2h-4.6V30.3L194.8,30.3z"/>
	<polygon fill="#D1D3D4" points="194.8,29.6 199.6,29.6 199.6,29.7 194.8,29.7 194.8,29.6 	"/>
	<polygon fill="#D1D3D4" points="194.8,29.3 199.6,29.3 199.6,29.3 194.8,29.3 194.8,29.3 	"/>
	<polygon fill="#D1D3D4" points="194.8,28.9 199.6,28.9 199.6,29 194.8,29 194.8,28.9 	"/>
	<polygon fill="#D1D3D4" points="194.8,28.5 199.6,28.5 199.6,28.6 194.8,28.6 194.8,28.5 	"/>
	<polygon fill="#D1D3D4" points="194.8,28.2 199.6,28.2 199.6,28.2 194.8,28.2 194.8,28.2 	"/>
	<polygon fill="#D1D3D4" points="194.8,27.8 199.6,27.8 199.6,27.9 194.8,27.9 194.8,27.8 	"/>
	<polygon fill="#D1D3D4" points="194.8,27.4 199.6,27.4 199.6,27.5 194.8,27.5 194.8,27.4 	"/>
	<polygon fill="#D1D3D4" points="194.8,27.1 199.6,27.1 199.6,27.1 194.8,27.1 194.8,27.1 	"/>
	<polygon fill="#D1D3D4" points="194.8,26.7 199.6,26.7 199.6,26.8 194.8,26.8 194.8,26.7 	"/>
	<polygon fill="#D1D3D4" points="194.8,26.3 199.6,26.3 199.6,26.4 194.8,26.4 194.8,26.3 	"/>
	<polygon fill="#D1D3D4" points="194.8,26 199.6,26 199.6,26 194.8,26 194.8,26 	"/>
	<polygon fill="#D1D3D4" points="194.8,25.6 199.6,25.6 199.6,25.7 194.8,25.7 194.8,25.6 	"/>
	<polygon fill="#D1D3D4" points="194.8,25.2 199.6,25.2 199.6,25.3 194.8,25.3 194.8,25.2 	"/>
	<polygon fill="#D1D3D4" points="194.8,24.9 199.6,24.9 199.6,24.9 194.8,24.9 194.8,24.9 	"/>
	<polygon fill="#D1D3D4" points="194.8,24.5 199.6,24.5 199.6,24.6 194.8,24.6 194.8,24.5 	"/>
	<polygon fill="#F47B20" points="195.5,23.2 195.3,23.5 195.1,23.2 195.1,30.4 195.5,30.4 195.5,23.2 	"/>
	<polygon fill="#FED3A8" points="200.4,20.5 198.8,23.1 198.8,25.2 198.6,25.7 197.2,26.7 196.7,26.6 196.8,26.1 197.2,25.7 
		197.4,24.5 197.1,25.7 196.6,26.3 196.4,26.2 196.3,25.5 196.5,24.8 196.6,23.7 196.8,23 197.4,22.5 199,19.8 200.4,20.5 	"/>
	<polygon fill="#FCF4DA" points="196.5,25.6 196.9,25.8 196.6,26.1 196.5,26.1 196.5,25.6 	"/>
	<polygon fill="#FBB992" points="200,20.4 198.4,23.1 198.1,25.3 197.6,26.3 198.3,25.3 198.8,23.1 200.4,20.5 200,20.4 	"/>
	<polygon fill="#FBB992" points="197.3,24.9 197.4,23.7 197.4,24.6 197.3,24.9 	"/>
	<polygon fill="#FED3A8" points="189.5,20.5 191,23.1 191.1,25.2 191.3,25.7 192.7,26.7 193.2,26.6 193.1,26.1 192.7,25.7 
		192.5,24.5 192.8,25.7 193.3,26.3 193.5,26.2 193.5,25.5 193.4,24.8 193.3,23.7 193.1,23 192.5,22.5 190.9,19.8 189.5,20.5 	"/>
	<polygon fill="#FCF4DA" points="193.4,25.6 193,25.8 193.2,26.1 193.4,26.1 193.4,25.6 	"/>
	<polygon fill="#FBB992" points="189.9,20.3 191.5,23.1 191.8,25.3 192.3,26.3 191.6,25.3 191,23.1 189.5,20.5 189.9,20.3 	"/>
	<polygon fill="#FBB992" points="192.6,24.9 192.5,23.7 192.5,24.6 192.6,24.9 	"/>
	<polygon fill="#D1D3D4" points="200.2,21.7 199.7,22.2 198,20.9 198.3,20.4 200.2,21.7 	"/>
	<polygon fill="#D1D3D4" points="189.7,21.6 190.2,22.2 191.9,20.9 191.6,20.4 189.7,21.6 	"/>
	<path fill="#414042" d="M195,4.8l5.6,2l2.1,3.7c0,0,0.6,3.4,0.2,5.8l-2.7,5.5l-1.9-1.5l1.5-4.2l-4.8,0h0l-4.8,0l1.6,4.2l-1.9,1.5
		l-2.7-5.5c-0.5-2.4,0.2-5.8,0.2-5.8l2.1-3.7L195,4.8L195,4.8L195,4.8z"/>
	<polygon fill="#A7A9AC" points="193.5,11.6 195,16.2 196.5,11.6 193.5,11.6 	"/>
	<polygon fill="#FED3A8" points="198.5,6.7 199.4,6.9 199.4,7.9 198.5,8.8 198.5,6.7 	"/>
	<polygon fill="#FED3A8" points="195,3.7 197.8,4.3 198.9,7.5 197.9,10.9 195,12.7 195,3.7 	"/>
	<polygon fill="#FBB992" points="195.1,3.7 192.3,4.3 191.1,7.5 192.2,10.9 195.1,12.7 195.1,3.7 	"/>
	<polygon fill="#FBB992" points="191.6,6.7 190.6,6.9 190.7,7.9 191.6,8.8 191.6,6.7 	"/>
	<polygon fill="#673B1B" points="195,1.9 198.8,3.3 199.1,6.8 198.4,8.8 197.5,9 198.2,11.6 195,10.8 194.8,6.2 195,1.9 	"/>
	<polygon fill="#7F492A" points="195.1,1.9 191.3,3.3 191,6.8 191.7,8.8 192.6,9 193,10 195.1,10.8 195.1,1.9 	"/>
</g>
</svg>
