<?xml version="1.0" encoding="utf-8"?>
<!-- Generator: Adobe Illustrator 18.1.1, SVG Export Plug-In . SVG Version: 6.00 Build 0)  -->
<svg version="1.1" id="Layer_1" xmlns="http://www.w3.org/2000/svg" xmlns:xlink="http://www.w3.org/1999/xlink" x="0px" y="0px"
	 viewBox="0 0 214.5 34.7" enable-background="new 0 0 214.5 34.7" xml:space="preserve">
<g>
	<path fill="#F47B20" d="M119.9,7.1c0-0.1,0.1-0.2,0.2-0.2h0.5c0.1,0,0.2,0.1,0.2,0.2V11c0,0.1-0.1,0.2-0.2,0.2H120
		c-0.1,0-0.2-0.1-0.2-0.2V7.1L119.9,7.1z"/>
	<path fill="#F47B20" d="M120.3,16.4L120.3,16.4v0.2V16.4L120.3,16.4L120.3,16.4z M120.3,15.9L120.3,15.9v0.2V15.9L120.3,15.9
		L120.3,15.9z M120.3,15.4L120.3,15.4v0.2V15.4L120.3,15.4L120.3,15.4z M120.3,15L120.3,15v0.2V15L120.3,15L120.3,15z M120,17h0.5
		c0.1,0,0.2-0.1,0.2-0.2V13c0-0.1-0.1-0.2-0.2-0.2H120c-0.1,0-0.2,0.1-0.2,0.2v3.9C119.9,17,119.9,17,120,17L120,17z"/>
	<path fill="#D1D3D4" d="M119.4,12c0-0.5,0.4-0.9,0.9-0.9c0.5,0,0.9,0.4,0.9,0.9c0,0.5-0.4,0.9-0.9,0.9
		C119.8,12.9,119.4,12.5,119.4,12L119.4,12z"/>
	<path fill="#FFFFFF" d="M119.5,12c0-0.4,0.3-0.8,0.8-0.8c0.4,0,0.8,0.3,0.8,0.8c0,0.4-0.3,0.8-0.8,0.8
		C119.8,12.8,119.5,12.4,119.5,12L119.5,12z"/>
	<polygon fill="#D1D3D4" points="119.8,13 120.7,13 120.7,12.8 119.8,12.8 119.8,13 	"/>
	<polygon fill="#D1D3D4" points="119.8,11.2 120.7,11.2 120.7,11 119.8,11 119.8,11.2 	"/>
	<polygon fill="#F47B20" points="120.2,11.9 120.3,11.9 120.3,12.6 120.2,12.6 120.2,11.9 	"/>
	<polygon fill="#F47B20" points="119.6,12 120.3,12 120.3,11.9 119.6,11.9 119.6,12 	"/>
	<path fill="#F1F2F2" d="M114.4,9.3c-1.1-1-1.1-2.7-0.1-3.8c1-1.1,2.7-1.1,3.8-0.1c1.1,1,1.1,2.7,0.1,3.8
		C117.2,10.2,115.5,10.3,114.4,9.3L114.4,9.3z"/>
	<path fill="#D1D3D4" d="M115,8.7c-0.7-0.7-0.8-1.9-0.1-2.6c0.7-0.7,1.9-0.8,2.6-0.1c0.7,0.7,0.8,1.9,0.1,2.6
		C116.9,9.3,115.7,9.4,115,8.7L115,8.7z"/>
	<path fill="#512C13" d="M115.2,8.4c-0.6-0.6-0.6-1.5-0.1-2.1c0.6-0.6,1.5-0.6,2.1-0.1c0.6,0.6,0.6,1.5,0.1,2.1
		C116.8,8.9,115.8,9,115.2,8.4L115.2,8.4z"/>
	<path fill="#673B1B" d="M115.4,8.2c-0.5-0.4-0.5-1.2-0.1-1.7c0.4-0.5,1.2-0.5,1.7-0.1c0.5,0.4,0.5,1.2,0.1,1.7
		C116.7,8.6,115.9,8.6,115.4,8.2L115.4,8.2z"/>
	<path fill="#7F492A" d="M115.6,8c-0.4-0.4-0.4-1,0-1.4c0.4-0.4,1-0.4,1.4,0c0.4,0.4,0.4,1,0,1.4C116.6,8.4,116,8.4,115.6,8L115.6,8
		z"/>
	<path fill="#D1D3D4" d="M114.6,9c-0.1-0.1-0.1-0.2-0.1-0.3l0.2-0.2c0.1-0.1,0.2,0,0.3,0l0,0c0.1,0.1,0.1,0.2,0.1,0.3L115,9.1
		C114.9,9.1,114.8,9.1,114.6,9L114.6,9L114.6,9z"/>
	<path fill="#DEDFE0" d="M118,6.6c-0.2-0.2-0.3-0.5-0.1-0.6c0.1-0.1,0.4-0.1,0.6,0.1c0.2,0.2,0.3,0.5,0.1,0.6
		C118.5,6.9,118.2,6.8,118,6.6L118,6.6z"/>
	<polygon fill="#DEDFE0" points="116.4,4.8 116.4,4.6 116.5,4.6 118,6 118,6.1 117.9,6.2 116.4,4.8 	"/>
	<path fill="#D1D3D4" d="M118.1,6.6c-0.2-0.2-0.2-0.4-0.1-0.5c0.1-0.1,0.3-0.1,0.5,0.1c0.2,0.2,0.2,0.4,0.1,0.5
		C118.4,6.7,118.2,6.7,118.1,6.6L118.1,6.6z"/>
	<path fill="#F47B20" d="M134.3,12.6c0,0.1-0.1,0.2-0.2,0.2h-9.5c-0.1,0-0.2-0.1-0.2-0.2V6.3c0-0.1,0.1-0.2,0.2-0.2h9.5
		c0.1,0,0.2,0.1,0.2,0.2V12.6L134.3,12.6z"/>
	<path fill="#F1F2F2" d="M129.4,6.2h-4.6c-0.1,0-0.2,0.1-0.2,0.2v6.1c0,0.1,0.1,0.2,0.2,0.2h4.6V6.2L129.4,6.2z"/>
	<polygon fill="#D1D3D4" points="124.5,6.9 129.4,6.9 129.4,6.9 124.5,6.9 124.5,6.9 	"/>
	<polygon fill="#D1D3D4" points="124.5,7.3 129.4,7.3 129.4,7.2 124.5,7.2 124.5,7.3 	"/>
	<polygon fill="#D1D3D4" points="124.5,7.7 129.4,7.7 129.4,7.6 124.5,7.6 124.5,7.7 	"/>
	<polygon fill="#D1D3D4" points="124.5,8 129.4,8 129.4,8 124.5,8 124.5,8 	"/>
	<polygon fill="#D1D3D4" points="124.5,8.4 129.4,8.4 129.4,8.3 124.5,8.3 124.5,8.4 	"/>
	<polygon fill="#D1D3D4" points="124.5,8.8 129.4,8.8 129.4,8.7 124.5,8.7 124.5,8.8 	"/>
	<polygon fill="#D1D3D4" points="124.5,9.1 129.4,9.1 129.4,9.1 124.5,9.1 124.5,9.1 	"/>
	<polygon fill="#D1D3D4" points="124.5,9.5 129.4,9.5 129.4,9.4 124.5,9.4 124.5,9.5 	"/>
	<polygon fill="#D1D3D4" points="124.5,9.9 129.4,9.9 129.4,9.8 124.5,9.8 124.5,9.9 	"/>
	<polygon fill="#D1D3D4" points="124.5,10.2 129.4,10.2 129.4,10.2 124.5,10.2 124.5,10.2 	"/>
	<polygon fill="#D1D3D4" points="124.5,10.6 129.4,10.6 129.4,10.5 124.5,10.5 124.5,10.6 	"/>
	<polygon fill="#D1D3D4" points="124.5,11 129.4,11 129.4,10.9 124.5,10.9 124.5,11 	"/>
	<polygon fill="#D1D3D4" points="124.5,11.3 129.4,11.3 129.4,11.3 124.5,11.3 124.5,11.3 	"/>
	<polygon fill="#D1D3D4" points="124.5,11.7 129.4,11.7 129.4,11.6 124.5,11.6 124.5,11.7 	"/>
	<polygon fill="#D1D3D4" points="124.5,12.1 129.4,12.1 129.4,12 124.5,12 124.5,12.1 	"/>
	<path fill="#E6E7E8" d="M129.3,6.2h4.6c0.1,0,0.2,0.1,0.2,0.2v6.1c0,0.1-0.1,0.2-0.2,0.2h-4.6V6.2L129.3,6.2z"/>
	<polygon fill="#D1D3D4" points="129.3,6.9 134.2,6.9 134.2,6.9 129.3,6.9 129.3,6.9 	"/>
	<polygon fill="#D1D3D4" points="129.3,7.3 134.2,7.3 134.2,7.2 129.3,7.2 129.3,7.3 	"/>
	<polygon fill="#D1D3D4" points="129.3,7.7 134.2,7.7 134.2,7.6 129.3,7.6 129.3,7.7 	"/>
	<polygon fill="#D1D3D4" points="129.3,8 134.2,8 134.2,8 129.3,8 129.3,8 	"/>
	<polygon fill="#D1D3D4" points="129.3,8.4 134.2,8.4 134.2,8.3 129.3,8.3 129.3,8.4 	"/>
	<polygon fill="#D1D3D4" points="129.3,8.8 134.2,8.8 134.2,8.7 129.3,8.7 129.3,8.8 	"/>
	<polygon fill="#D1D3D4" points="129.3,9.1 134.2,9.1 134.2,9.1 129.3,9.1 129.3,9.1 	"/>
	<polygon fill="#D1D3D4" points="129.3,9.5 134.2,9.5 134.2,9.4 129.3,9.4 129.3,9.5 	"/>
	<polygon fill="#D1D3D4" points="129.3,9.9 134.2,9.9 134.2,9.8 129.3,9.8 129.3,9.9 	"/>
	<polygon fill="#D1D3D4" points="129.3,10.2 134.2,10.2 134.2,10.2 129.3,10.2 129.3,10.2 	"/>
	<polygon fill="#D1D3D4" points="129.3,10.6 134.2,10.6 134.2,10.5 129.3,10.5 129.3,10.6 	"/>
	<polygon fill="#D1D3D4" points="129.3,11 134.2,11 134.2,10.9 129.3,10.9 129.3,11 	"/>
	<polygon fill="#D1D3D4" points="129.3,11.3 134.2,11.3 134.2,11.3 129.3,11.3 129.3,11.3 	"/>
	<polygon fill="#D1D3D4" points="129.3,11.7 134.2,11.7 134.2,11.6 129.3,11.6 129.3,11.7 	"/>
	<polygon fill="#D1D3D4" points="129.3,12.1 134.2,12.1 134.2,12 129.3,12 129.3,12.1 	"/>
	<polygon fill="#F47B20" points="130.1,13.3 129.9,13.1 129.7,13.3 129.7,6.2 130.1,6.2 130.1,13.3 	"/>
	<polygon fill="#FED3A8" points="135,16 133.4,13.5 133.4,11.4 133.2,10.9 131.8,9.9 131.3,10 131.4,10.5 131.8,10.9 132,12.1 
		131.7,10.9 131.2,10.3 131,10.4 130.9,11.1 131.1,11.7 131.2,12.9 131.4,13.5 132,14.1 133.6,16.8 135,16 	"/>
	<polygon fill="#FCF4DA" points="131.1,11 131.5,10.8 131.2,10.5 131.1,10.5 131.1,11 	"/>
	<polygon fill="#FBB992" points="134.6,16.2 133,13.4 132.7,11.3 132.2,10.2 132.9,11.2 133.4,13.5 135,16 134.6,16.2 	"/>
	<polygon fill="#FBB992" points="131.9,11.7 132,12.9 132,12 131.9,11.7 	"/>
	<polygon fill="#FED3A8" points="124,16 125.6,13.5 125.7,11.4 125.9,10.9 127.3,9.9 127.8,10 127.7,10.5 127.3,10.9 127.1,12.1 
		127.4,10.9 127.9,10.3 128.1,10.4 128.1,11.1 128,11.7 127.9,12.9 127.7,13.5 127.1,14.1 125.5,16.8 124,16 	"/>
	<polygon fill="#FCF4DA" points="128,11 127.6,10.8 127.8,10.5 128,10.5 128,11 	"/>
	<polygon fill="#FBB992" points="124.5,16.2 126.1,13.4 126.4,11.3 126.9,10.2 126.2,11.2 125.6,13.5 124,16 124.5,16.2 	"/>
	<polygon fill="#FBB992" points="127.2,11.7 127.1,12.9 127.1,12 127.2,11.7 	"/>
	<polygon fill="#D1D3D4" points="134.8,14.9 134.3,14.3 132.6,15.7 132.9,16.2 134.8,14.9 	"/>
	<polygon fill="#D1D3D4" points="124.3,14.9 124.8,14.4 126.5,15.7 126.2,16.2 124.3,14.9 	"/>
	<path fill="#414042" d="M129.6,31.8l5.6-2l2.1-3.7c0,0,0.6-3.4,0.2-5.8l-2.7-5.5l-1.9,1.5l1.5,4.2l-4.8,0h0l-4.8,0l1.6-4.2
		l-1.9-1.5l-2.7,5.5c-0.5,2.4,0.2,5.8,0.2,5.8l2.1,3.7L129.6,31.8L129.6,31.8L129.6,31.8z"/>
	<polygon fill="#A7A9AC" points="128.1,24.9 129.6,20.4 131.1,24.9 128.1,24.9 	"/>
	<polygon fill="#FED3A8" points="133.1,29.9 134,29.7 134,28.7 133.1,27.7 133.1,29.9 	"/>
	<polygon fill="#FED3A8" points="129.6,32.9 132.4,32.3 133.5,29.1 132.5,25.7 129.6,23.9 129.6,32.9 	"/>
	<polygon fill="#FBB992" points="129.6,32.9 126.9,32.3 125.7,29.1 126.8,25.7 129.6,23.9 129.6,32.9 	"/>
	<polygon fill="#FBB992" points="126.2,29.9 125.2,29.7 125.3,28.7 126.2,27.7 126.2,29.9 	"/>
	<polygon fill="#673B1B" points="129.6,34.7 133.4,33.3 133.7,29.8 133,27.7 132.1,27.6 132.8,25 129.6,25.7 129.4,30.3 129.6,34.7 
			"/>
	<polygon fill="#7F492A" points="129.6,34.7 125.9,33.3 125.5,29.8 126.3,27.7 127.2,27.6 127.6,26.6 129.6,25.7 129.6,34.7 	"/>
	<polygon fill="#058943" points="89.4,13.2 89.7,13.2 89.7,12.9 89.4,12.9 89.4,13.2 	"/>
	<polygon fill="#F99D20" points="89.5,12.8 89.7,12.8 89.7,8.2 89.5,8.2 89.5,12.8 	"/>
	<polygon fill="#F47B20" points="89.7,12.8 89.8,12.8 89.8,8.2 89.7,8.2 89.7,12.8 	"/>
	<polygon fill="#F47B20" points="89.4,12.8 89.5,12.8 89.5,8.2 89.4,8.2 89.4,12.8 	"/>
	<polygon fill="#058943" points="89.5,8.2 89.7,8.2 89.7,6.7 89.5,6.7 89.5,8.2 	"/>
	<polygon fill="#1AAE4B" points="89.7,8.2 89.8,8.2 89.8,6.7 89.7,6.7 89.7,8.2 	"/>
	<polygon fill="#1AAE4B" points="89.4,8.2 89.5,8.2 89.5,6.7 89.4,6.7 89.4,8.2 	"/>
	<polygon fill="#058943" points="89.4,13 89.8,13 89.8,12.8 89.4,12.8 89.4,13 	"/>
	<polygon points="90.9,6.2 92.6,6.2 92.6,5.4 90.9,5.4 90.9,6.2 	"/>
	<polygon fill="#808285" points="90.9,6.4 92.6,6.4 92.6,6.2 90.9,6.2 90.9,6.4 	"/>
	<path fill="#A7A9AC" d="M91.6,5.1l-0.3,1.3h0.1L91.7,5L91.6,5.1c0.1-0.1-0.2-0.2-0.1-0.4c0,0,0-0.2,0.2-0.2h0.3
		C92,4.6,92,4.7,92,4.7c0,0.2-0.2,0.3-0.2,0.3l0,0l0.4,1.4h0.1l-0.3-1.3C92,5,92.2,4.9,92.1,4.7c0,0-0.1-0.2-0.3-0.2h-0.3
		c-0.2,0-0.3,0.2-0.3,0.2C91.3,4.9,91.4,5,91.6,5.1L91.6,5.1z"/>
	<path fill="#F1F2F2" d="M84.2,8c1.3,0.7,1.7,2.4,1,3.6c-0.7,1.3-2.4,1.7-3.6,1c-1.3-0.7-1.7-2.4-1-3.6C81.3,7.7,82.9,7.3,84.2,8
		L84.2,8z"/>
	<path fill="#D1D3D4" d="M83.8,8.7c0.9,0.5,1.2,1.6,0.7,2.5c-0.5,0.9-1.6,1.2-2.5,0.7c-0.9-0.5-1.2-1.6-0.7-2.5
		C81.8,8.5,82.9,8.2,83.8,8.7L83.8,8.7z"/>
	<path fill="#512C13" d="M83.6,9c0.7,0.4,1,1.3,0.6,2.1c-0.4,0.7-1.3,1-2,0.6c-0.7-0.4-1-1.3-0.6-2C82,8.8,82.9,8.6,83.6,9L83.6,9z"
		/>
	<path fill="#673B1B" d="M83.4,9.3c0.6,0.3,0.8,1,0.4,1.6c-0.3,0.6-1,0.8-1.6,0.4c-0.6-0.3-0.8-1-0.4-1.6C82.2,9.2,82.9,9,83.4,9.3
		L83.4,9.3z"/>
	<path fill="#7F492A" d="M83.4,9.4c0.5,0.3,0.6,0.9,0.4,1.4c-0.3,0.5-0.9,0.6-1.4,0.4c-0.5-0.3-0.6-0.9-0.4-1.4
		C82.3,9.3,82.9,9.2,83.4,9.4L83.4,9.4z"/>
	<path fill="#D1D3D4" d="M84,8.3c0.1,0.1,0.2,0.2,0.1,0.3L84,8.8c0,0.1-0.2,0.1-0.3,0l-0.1,0c-0.1-0.1-0.2-0.2-0.1-0.3l0.2-0.3
		C83.7,8.2,83.9,8.2,84,8.3L84,8.3L84,8.3z"/>
	<path fill="#DEDFE0" d="M81.3,11.4c0.3,0.1,0.4,0.4,0.3,0.6c-0.1,0.2-0.4,0.2-0.6,0c-0.2-0.1-0.4-0.4-0.3-0.6
		C80.8,11.3,81,11.2,81.3,11.4L81.3,11.4z"/>
	<polygon fill="#DEDFE0" points="83.3,12.8 83.3,12.9 83.2,13 81.4,12 81.4,11.8 81.5,11.8 83.3,12.8 	"/>
	<path fill="#D1D3D4" d="M81.3,11.5c0.2,0.1,0.3,0.3,0.2,0.4c-0.1,0.1-0.3,0.1-0.5,0c-0.2-0.1-0.3-0.3-0.2-0.4
		C80.9,11.4,81.1,11.4,81.3,11.5L81.3,11.5z"/>
	<polygon fill="#7F492A" points="86.8,18 93.9,18 93.9,8 86.8,8 86.8,18 	"/>
	<polygon fill="#FFFFFF" points="87.3,17.3 93.4,17.3 93.4,8.8 87.3,8.8 87.3,17.3 	"/>
	<polygon fill="#F99D20" points="87.7,11.7 90.3,11.7 90.3,9.4 87.7,9.4 87.7,11.7 	"/>
	<polygon fill="#97D7DC" points="89,14.3 93,14.3 93,12.7 89,12.7 89,14.3 	"/>
	<polygon fill="#E6E7E8" points="90.6,9.6 93.1,9.6 93.1,9.5 90.6,9.5 90.6,9.6 	"/>
	<polygon fill="#E6E7E8" points="90.6,10.1 93.1,10.1 93.1,9.9 90.6,9.9 90.6,10.1 	"/>
	<polygon fill="#E6E7E8" points="90.6,10.5 93.1,10.5 93.1,10.3 90.6,10.3 90.6,10.5 	"/>
	<polygon fill="#E6E7E8" points="90.6,10.9 93.1,10.9 93.1,10.7 90.6,10.7 90.6,10.9 	"/>
	<polygon fill="#E6E7E8" points="90.6,11.3 93.1,11.3 93.1,11.1 90.6,11.1 90.6,11.3 	"/>
	<polygon fill="#E6E7E8" points="90.6,11.7 93.1,11.7 93.1,11.5 90.6,11.5 90.6,11.7 	"/>
	<polygon fill="#E6E7E8" points="87.7,12.1 93,12.1 93,12 87.7,12 87.7,12.1 	"/>
	<polygon fill="#E6E7E8" points="87.7,12.5 90.3,12.5 90.3,12.4 87.7,12.4 87.7,12.5 	"/>
	<polygon fill="#E6E7E8" points="89,14.6 93,14.6 93,14.5 89,14.5 89,14.6 	"/>
	<polygon fill="#E6E7E8" points="89,15 93,15 93,14.9 89,14.9 89,15 	"/>
	<polygon fill="#E6E7E8" points="89,15.5 93,15.5 93,15.3 89,15.3 89,15.5 	"/>
	<polygon fill="#E6E7E8" points="89,15.9 93,15.9 93,15.7 89,15.7 89,15.9 	"/>
	<polygon fill="#E6E7E8" points="89,16.3 93,16.3 93,16.2 89,16.2 89,16.3 	"/>
	<polygon fill="#E6E7E8" points="89,16.7 91.3,16.7 91.3,16.6 89,16.6 89,16.7 	"/>
	<polygon points="88.1,8.8 92.7,8.8 92.7,8.1 88.1,8.1 88.1,8.8 	"/>
	<polygon fill="#BCBEC0" points="88.1,9 92.7,9 92.7,8.8 88.1,8.8 88.1,9 	"/>
	<path fill="#A7A9AC" d="M89.4,7.9L89.1,9h0.1L89.4,7.9L89.4,7.9c0.1-0.1-0.2-0.1-0.1-0.3c0,0,0-0.1,0.1-0.1h1.9
		c0.1,0,0.1,0.1,0.1,0.1c0,0.2-0.2,0.3-0.2,0.3l0,0L91.6,9h0.1l-0.3-1.1c0.1,0,0.2-0.2,0.2-0.3c0,0,0-0.2-0.2-0.2h-1.9
		c-0.2,0-0.2,0.2-0.2,0.2C89.2,7.8,89.3,7.9,89.4,7.9L89.4,7.9z"/>
	<polygon fill="#FBB992" points="89.1,11.4 88.9,11.3 88.3,11.3 88,12 88.3,13.1 88.9,12.5 89.1,11.4 	"/>
	<polygon fill="#FED3A8" points="86.8,17.7 87.9,14.8 89,13.7 89.3,12.2 89.5,11.8 89.4,11.4 89.1,11.4 88.7,12.2 88.5,12.6 
		88.4,12.8 88.5,12.1 89,11.4 88.4,11.5 87.5,12.6 85.2,17.1 86.8,17.7 	"/>
	<polygon fill="#F1E6CB" points="90.1,9.6 90.1,9.6 90.1,9.6 89.6,10 89.9,10.2 90.1,9.6 	"/>
	<polygon fill="#414042" points="89.9,10.2 89.7,10 87.5,13.3 87.6,13.4 89.9,10.2 	"/>
	<polygon fill="#DC2726" points="89.6,10 89.7,10 87.5,13.3 87.4,13.2 89.6,10 	"/>
	<polygon fill="#DC2726" points="89.9,10.2 89.9,10.2 87.7,13.4 87.6,13.4 89.9,10.2 	"/>
	<polygon fill="#D1D3D4" points="87.7,13.4 87.4,13.2 87.2,13.4 87.6,13.7 87.7,13.4 	"/>
	<polygon fill="#939598" points="87.5,13.8 87.1,13.6 87.2,13.4 87.6,13.7 87.5,13.8 	"/>
	<polygon fill="#1A1818" points="89.9,9.7 90.1,9.6 90.1,9.6 90.1,9.6 90.1,9.8 89.9,9.7 	"/>
	<polygon fill="#FED3A8" points="85.2,17.1 86.7,13.6 86.7,12.1 86.8,11.7 87.4,11.2 87.8,11.1 88.1,11 89.1,10.8 89.2,10.9 
		89.1,11.2 88.9,11.4 88.6,11.4 88.1,12 87.3,13.1 85.2,17.1 	"/>
	<polygon fill="#FCF4DA" points="89.1,11.6 89.4,11.6 89.5,11.8 89.3,12.1 88.9,12.1 89,11.8 89.1,11.6 	"/>
	<polygon fill="#FCF4DA" points="88.6,10.9 88.6,11.1 89,11.1 89.1,11 89.2,10.9 89.1,10.8 88.6,10.9 	"/>
	<polygon fill="#FBB992" points="87.6,12.9 88,11.6 88.2,11.5 88.6,11.4 87.6,12.9 	"/>
	<polygon fill="#FBB992" points="88.1,13.3 88.5,12.7 88.5,12.3 87.6,13.5 88.1,13.3 	"/>
	<polygon fill="#FBB992" points="86.7,12.1 87,14 85.8,17.4 85.2,17.1 86.7,13.6 86.7,12.1 	"/>
	<polygon fill="#FBB992" points="89.3,12.4 88.8,13.7 87.8,14.8 87.8,15.3 87.9,14.8 89,13.7 89.3,12.4 	"/>
	<polygon fill="#FBB992" points="88,11.6 87.9,11.3 88,11.7 88,11.6 	"/>
	<polygon fill="#FBB992" points="88.1,13.1 88.2,13.6 88.1,13.3 88.1,13.1 	"/>
	<polygon fill="#FED3A8" points="93.1,12.5 93.2,13.6 93.4,14.2 94,14.7 95.4,17.2 96.8,16.5 95.3,14.1 95.3,12.1 95.1,11.7 
		94,10.9 93.9,12.6 93.9,12.6 94,12.8 93.7,11.6 93.2,11.1 93,11.2 93,11.8 93.1,12.5 	"/>
	<polygon fill="#FCF4DA" points="93.1,11.7 93.5,11.6 93.2,11.2 93.1,11.3 93.1,11.7 	"/>
	<polygon fill="#FBB992" points="96.5,16.7 94.9,14.1 94.6,12 94.1,11 94.8,12 95.3,14.1 96.8,16.5 96.5,16.7 	"/>
	<polygon fill="#FBB992" points="93.9,12.4 94,13.6 94,12.7 93.9,12.4 	"/>
	<polygon fill="#D1D3D4" points="96.2,14.8 95.7,14.2 94,15.6 94.3,16.1 96.2,14.8 	"/>
	<polygon fill="#D1D3D4" points="85.7,14.8 86.2,14.3 87.9,15.6 87.6,16.1 85.7,14.8 	"/>
	<path fill="#414042" d="M91,31.7l5.6-2l2.1-3.7c0,0,0.6-3.4,0.2-5.8l-2.7-5.5l-1.9,1.5l1.5,4.2l-4.8,0v0h0v0l-4.8,0l1.6-4.2
		l-1.9-1.5L83,20.1c-0.5,2.4,0.2,5.8,0.2,5.8l2.1,3.7L91,31.7L91,31.7L91,31.7z"/>
	<polygon fill="#A7A9AC" points="89.5,24.8 91,20.3 92.5,24.8 89.5,24.8 	"/>
	<polygon fill="#FED3A8" points="94.3,29 95.3,28.8 95.2,27.9 94.3,26.9 94.3,29 	"/>
	<polygon fill="#FED3A8" points="91,32 93.6,31.4 94.8,28.3 93.8,24.9 91,23.1 91,32 	"/>
	<polygon fill="#939598" points="91,32.6 93.9,31.7 95,28.9 94.3,26.9 93.4,26.8 92.9,25.8 91,25 91,32.6 	"/>
	<polygon fill="#FBB992" points="87.6,29 86.7,28.8 86.7,27.9 87.6,26.9 87.6,29 	"/>
	<polygon fill="#FBB992" points="91,32 88.3,31.4 87.1,28.3 88.2,24.9 91,23.1 91,32 	"/>
	<polygon fill="#A7A9AC" points="91,32.6 88.1,31.9 87,28.9 87.7,26.9 88.5,26.8 89,25.8 91,25 91,32.6 	"/>
	<polygon fill="#F1E6CB" points="173.3,8.5 173.3,8.5 173.5,9.4 173,9.4 173.3,8.5 	"/>
	<polygon fill="#DC2726" points="173.1,14.7 173.4,14.7 173.4,9.4 173.1,9.4 173.1,14.7 	"/>
	<polygon fill="#F47B20" points="173.4,14.7 173.5,14.7 173.5,9.4 173.4,9.4 173.4,14.7 	"/>
	<polygon fill="#F47B20" points="173,14.7 173.1,14.7 173.1,9.4 173,9.4 173,14.7 	"/>
	<polygon fill="#D1D3D4" points="173,15 173.5,15 173.5,14.7 173,14.7 173,15 	"/>
	<polygon fill="#F47B20" points="173,15.3 173.5,15.3 173.5,15 173,15 173,15.3 	"/>
	<polygon fill="#1A1818" points="173.4,8.9 173.3,8.5 173.3,8.5 173.2,8.9 173.4,8.9 	"/>
	<path fill="#D1D3D4" d="M162.4,9.7c0,1.5-1.2,2.7-2.7,2.7c-1.5,0-2.7-1.2-2.7-2.7c0-1.5,1.2-2.7,2.7-2.7
		C161.2,7,162.4,8.2,162.4,9.7L162.4,9.7z"/>
	<path fill="#F1F2F2" d="M161.6,9.7c0,1-0.8,1.9-1.9,1.9c-1,0-1.9-0.8-1.9-1.9c0-1,0.8-1.9,1.9-1.9C160.8,7.8,161.6,8.6,161.6,9.7
		L161.6,9.7z"/>
	<path fill="#DA7027" d="M161.3,9.7c0,0.8-0.7,1.5-1.5,1.5c-0.8,0-1.5-0.7-1.5-1.5c0-0.8,0.7-1.5,1.5-1.5
		C160.6,8.2,161.3,8.8,161.3,9.7L161.3,9.7z"/>
	<path fill="#DA6027" d="M160.9,9.7c0,0.6-0.5,1.2-1.2,1.2c-0.6,0-1.2-0.5-1.2-1.2c0-0.6,0.5-1.2,1.2-1.2
		C160.4,8.5,160.9,9,160.9,9.7L160.9,9.7z"/>
	<path fill="#C74727" d="M160.8,9.7c0,0.6-0.5,1-1,1c-0.6,0-1-0.5-1-1c0-0.6,0.4-1,1-1C160.3,8.7,160.8,9.1,160.8,9.7L160.8,9.7z"/>
	<path fill="#F1F2F2" d="M162.1,9.7c0,0.1-0.1,0.2-0.2,0.2h-0.3c-0.1,0-0.2-0.1-0.2-0.2V9.6c0-0.1,0.1-0.2,0.2-0.2h0.3
		C162,9.4,162.1,9.5,162.1,9.7L162.1,9.7L162.1,9.7z"/>
	<polygon fill="#FFFFFF" points="157.7,9.9 157.1,9.6 157.3,9 158,9.3 157.7,9.9 	"/>
	<polygon fill="#FFFFFF" points="158.2,10.5 157.6,10.7 157.3,10.1 158,9.9 158.2,10.5 	"/>
	<polygon fill="#7F492A" points="164.4,16.6 170.7,16.6 170.7,7.7 164.4,7.7 164.4,16.6 	"/>
	<polygon fill="#FFFFFF" points="164.8,16 170.3,16 170.3,8.4 164.8,8.4 164.8,16 	"/>
	<polygon fill="#8DC63F" points="165.2,11 167.5,11 167.5,9 165.2,9 165.2,11 	"/>
	<polygon fill="#F7941E" points="166.3,13.2 169.9,13.2 169.9,11.9 166.3,11.9 166.3,13.2 	"/>
	<polygon fill="#E6E7E8" points="167.7,9.2 169.9,9.2 169.9,9 167.7,9 167.7,9.2 	"/>
	<polygon fill="#E6E7E8" points="167.7,9.5 169.9,9.5 169.9,9.4 167.7,9.4 167.7,9.5 	"/>
	<polygon fill="#E6E7E8" points="167.7,9.9 169.9,9.9 169.9,9.8 167.7,9.8 167.7,9.9 	"/>
	<polygon fill="#E6E7E8" points="167.7,10.2 169.9,10.2 169.9,10.1 167.7,10.1 167.7,10.2 	"/>
	<polygon fill="#E6E7E8" points="167.7,10.6 169.9,10.6 169.9,10.5 167.7,10.5 167.7,10.6 	"/>
	<polygon fill="#E6E7E8" points="167.7,11 169.9,11 169.9,10.8 167.7,10.8 167.7,11 	"/>
	<polygon fill="#E6E7E8" points="165.2,11.3 169.9,11.3 169.9,11.2 165.2,11.2 165.2,11.3 	"/>
	<polygon fill="#E6E7E8" points="165.2,11.7 167.5,11.7 167.5,11.6 165.2,11.6 165.2,11.7 	"/>
	<polygon fill="#E6E7E8" points="166.3,13.6 169.9,13.6 169.9,13.4 166.3,13.4 166.3,13.6 	"/>
	<polygon fill="#E6E7E8" points="166.3,13.9 169.9,13.9 169.9,13.8 166.3,13.8 166.3,13.9 	"/>
	<polygon fill="#E6E7E8" points="166.3,14.3 169.9,14.3 169.9,14.2 166.3,14.2 166.3,14.3 	"/>
	<polygon fill="#E6E7E8" points="166.3,14.7 169.9,14.7 169.9,14.6 166.3,14.6 166.3,14.7 	"/>
	<polygon fill="#E6E7E8" points="166.3,15.1 169.9,15.1 169.9,14.9 166.3,14.9 166.3,15.1 	"/>
	<polygon fill="#E6E7E8" points="166.3,15.4 168.4,15.4 168.4,15.3 166.3,15.3 166.3,15.4 	"/>
	<polygon points="165.5,8.4 169.6,8.4 169.6,7.8 165.5,7.8 165.5,8.4 	"/>
	<polygon fill="#BCBEC0" points="165.5,8.6 169.6,8.6 169.6,8.4 165.5,8.4 165.5,8.6 	"/>
	<path fill="#A7A9AC" d="M166.7,7.6l-0.3,1h0.1L166.7,7.6L166.7,7.6c0-0.1-0.1-0.1-0.1-0.3c0,0,0-0.1,0.1-0.1h1.7
		c0.1,0,0.1,0.1,0.1,0.1c0,0.2-0.2,0.2-0.2,0.2l0,0l0.3,1h0.1l-0.3-1c0.1,0,0.2-0.1,0.2-0.3c0,0,0-0.2-0.2-0.2h-1.7
		c-0.2,0-0.2,0.2-0.2,0.2C166.5,7.5,166.6,7.6,166.7,7.6L166.7,7.6z"/>
	<polygon fill="#FED3A8" points="170,13 170,14 170.2,14.5 170.8,15 172.1,17.2 173.3,16.6 172,14.5 171.9,12.7 171.7,12.3 
		170.7,11.6 170.7,13.1 170.7,13.1 170.8,13.3 170.5,12.3 170.1,11.8 169.9,11.8 169.8,12.4 170,13 	"/>
	<polygon fill="#FCF4DA" points="170,12.3 170.3,12.2 170.1,11.9 170,12 170,12.3 	"/>
	<polygon fill="#FBB992" points="173,16.8 171.6,14.4 171.4,12.6 170.9,11.7 171.5,12.6 172,14.5 173.3,16.6 173,16.8 	"/>
	<polygon fill="#FBB992" points="170.7,12.9 170.8,14 170.8,13.2 170.7,12.9 	"/>
	<polygon fill="#FED3A8" points="165.2,13 165.1,14 164.9,14.5 164.4,15 163.1,17.2 161.8,16.6 163.2,14.5 163.2,12.7 163.4,12.3 
		164.4,11.6 164.4,13.1 164.4,13.1 164.4,13.3 164.7,12.3 165,11.8 165.3,11.8 165.3,12.4 165.2,13 	"/>
	<polygon fill="#FCF4DA" points="165.2,12.3 164.8,12.2 165,11.9 165.2,12 165.2,12.3 	"/>
	<polygon fill="#FBB992" points="162.2,16.8 163.6,14.4 163.8,12.6 164.2,11.7 163.6,12.6 163.2,14.5 161.8,16.6 162.2,16.8 	"/>
	<polygon fill="#FBB992" points="164.5,12.9 164.4,14 164.4,13.2 164.5,12.9 	"/>
	<path fill="#414042" d="M167.8,30.6l5-1.8l2-3.9c0,0,0.4-2.8-0.3-4.9l-1.8-5.2l-2,1.3l1.2,6.7l-1-2.5l-3.5,0h0l-3.7,0.1l-0.8,2.5
		l1.3-6.8l-1.8-2l-1.9,5.9c-0.5,2.4-0.5,4.4-0.5,4.4l1.8,4.3l4.7,1.8L167.8,30.6L167.8,30.6z"/>
	<polygon fill="#FFFFFF" points="166,24.9 167.5,20.3 169,24.9 166,24.9 	"/>
	<polygon fill="#9A8338" points="171.5,27.6 170,22.2 168.8,22.1 168.3,22.6 168.6,23.8 170.7,26.8 171.5,27.6 	"/>
	<polygon fill="#FBB992" points="164.1,29.1 163.1,28.8 163.2,27.9 164.1,26.9 164.1,29.1 	"/>
	<polygon fill="#FBB992" points="167.5,32 164.8,31.4 163.6,28.3 164.7,24.9 167.5,23.1 167.5,32 	"/>
	<polygon fill="#9A8338" points="167.5,33.8 163.8,32.4 163.4,28.9 164.2,26.9 165,26.8 165.5,25.8 167.5,24.9 167.7,29.1 
		167.5,33.8 	"/>
	<polygon fill="#FED3A8" points="170.9,29.1 171.8,28.8 171.8,27.9 170.9,26.9 170.9,29.1 	"/>
	<polygon fill="#FED3A8" points="167.5,32 170.2,31.4 171.3,28.3 170.3,24.9 167.5,23.1 167.5,32 	"/>
	<polygon fill="#7D6738" points="167.5,33.8 171.2,32.4 171.5,28.9 170.8,26.9 169.9,26.8 169.3,24.5 167.5,24.9 167.4,32.3 
		167.5,33.8 	"/>
	<polygon fill="#F1E6CB" points="43,16.6 43,16.6 42.8,15.8 43.3,15.8 43,16.6 	"/>
	<polygon fill="#DC2726" points="42.9,15.8 43.2,15.8 43.2,10.5 42.9,10.5 42.9,15.8 	"/>
	<polygon fill="#F47B20" points="42.8,15.8 42.9,15.8 42.9,10.5 42.8,10.5 42.8,15.8 	"/>
	<polygon fill="#F47B20" points="43.2,15.8 43.3,15.8 43.3,10.5 43.2,10.5 43.2,15.8 	"/>
	<polygon fill="#D1D3D4" points="42.8,10.5 43.3,10.5 43.3,10.2 42.8,10.2 42.8,10.5 	"/>
	<polygon fill="#F47B20" points="42.8,10.2 43.3,10.2 43.3,9.9 42.8,9.9 42.8,10.2 	"/>
	<polygon fill="#1A1818" points="42.9,16.3 43,16.6 43,16.6 43.1,16.3 42.9,16.3 	"/>
	<path fill="#D1D3D4" d="M62.4,10.3c-0.4,1.4-1.9,2.2-3.3,1.8c-1.4-0.4-2.2-1.9-1.8-3.3c0.4-1.4,1.9-2.2,3.3-1.8
		C62,7.4,62.8,8.9,62.4,10.3L62.4,10.3z"/>
	<path fill="#F1F2F2" d="M61.6,10.1c-0.3,1-1.3,1.6-2.3,1.3c-1-0.3-1.6-1.3-1.3-2.3c0.3-1,1.3-1.6,2.3-1.3
		C61.3,8.1,61.9,9.1,61.6,10.1L61.6,10.1z"/>
	<path fill="#DA7027" d="M61.3,10c-0.2,0.8-1.1,1.3-1.9,1c-0.8-0.2-1.3-1.1-1-1.9c0.2-0.8,1.1-1.3,1.9-1C61,8.4,61.5,9.2,61.3,10
		L61.3,10z"/>
	<path fill="#DA6027" d="M61,9.9c-0.2,0.6-0.8,1-1.4,0.8c-0.6-0.2-1-0.8-0.8-1.4c0.2-0.6,0.8-1,1.4-0.8C60.8,8.6,61.1,9.3,61,9.9
		L61,9.9z"/>
	<path fill="#C74727" d="M60.8,9.9c-0.2,0.5-0.7,0.8-1.2,0.7c-0.5-0.2-0.8-0.7-0.7-1.2c0.2-0.5,0.7-0.8,1.2-0.7
		C60.6,8.8,61,9.3,60.8,9.9L60.8,9.9z"/>
	<path fill="#F1F2F2" d="M62.1,10.2c0,0.1-0.1,0.2-0.2,0.2l-0.3-0.1c-0.1,0-0.1-0.1-0.1-0.3l0-0.1c0-0.1,0.1-0.2,0.2-0.2L62,9.9
		C62.1,9.9,62.1,10.1,62.1,10.2L62.1,10.2L62.1,10.2z"/>
	<polygon fill="#FFFFFF" points="57.8,9.2 57.2,8.8 57.7,8.3 58.2,8.7 57.8,9.2 	"/>
	<polygon fill="#FFFFFF" points="58.1,9.9 57.4,10 57.4,9.3 58,9.3 58.1,9.9 	"/>
	<path fill="#DC2726" d="M55.6,11.7c0,0.1-0.1,0.2-0.2,0.2h-5.9c-0.1,0-0.2-0.1-0.2-0.2V4.3c0-0.1,0.1-0.2,0.2-0.2h5.9
		c0.1,0,0.2,0.1,0.2,0.2V11.7L55.6,11.7z"/>
	<polygon fill="#FFFFFF" points="50,6.9 54.8,6.9 54.8,5.2 50,5.2 50,6.9 	"/>
	<polygon fill="#FFFFFF" points="52.1,10.9 54.8,10.9 54.8,10.9 52.1,10.9 52.1,10.9 	"/>
	<polygon fill="#414042" points="49.8,4.5 49.6,4.6 48.9,4.6 48.8,4.5 48.9,4.4 49.6,4.4 49.8,4.5 	"/>
	<polygon fill="#414042" points="49.8,5.1 49.6,5.2 48.9,5.2 48.8,5.1 48.9,4.9 49.6,4.9 49.8,5.1 	"/>
	<polygon fill="#414042" points="49.8,5.6 49.6,5.7 48.9,5.7 48.8,5.6 48.9,5.5 49.6,5.5 49.8,5.6 	"/>
	<polygon fill="#414042" points="49.8,6.1 49.6,6.2 48.9,6.2 48.8,6.1 48.9,6 49.6,6 49.8,6.1 	"/>
	<polygon fill="#414042" points="49.8,6.7 49.6,6.8 48.9,6.8 48.8,6.7 48.9,6.5 49.6,6.5 49.8,6.7 	"/>
	<polygon fill="#414042" points="49.8,7.2 49.6,7.3 48.9,7.3 48.8,7.2 48.9,7.1 49.6,7.1 49.8,7.2 	"/>
	<polygon fill="#414042" points="49.8,7.7 49.6,7.8 48.9,7.8 48.8,7.7 48.9,7.6 49.6,7.6 49.8,7.7 	"/>
	<polygon fill="#414042" points="49.8,8.3 49.6,8.4 48.9,8.4 48.8,8.3 48.9,8.1 49.6,8.1 49.8,8.3 	"/>
	<polygon fill="#414042" points="49.8,8.8 49.6,8.9 48.9,8.9 48.8,8.8 48.9,8.7 49.6,8.7 49.8,8.8 	"/>
	<polygon fill="#414042" points="49.8,9.3 49.6,9.5 48.9,9.5 48.8,9.3 48.9,9.2 49.6,9.2 49.8,9.3 	"/>
	<polygon fill="#414042" points="49.8,9.9 49.6,10 48.9,10 48.8,9.9 48.9,9.7 49.6,9.7 49.8,9.9 	"/>
	<polygon fill="#414042" points="49.8,10.4 49.6,10.5 48.9,10.5 48.8,10.4 48.9,10.3 49.6,10.3 49.8,10.4 	"/>
	<polygon fill="#414042" points="49.8,10.9 49.6,11 48.9,11 48.8,10.9 48.9,10.8 49.6,10.8 49.8,10.9 	"/>
	<polygon fill="#414042" points="49.8,11.5 49.6,11.6 48.9,11.6 48.8,11.5 48.9,11.3 49.6,11.3 49.8,11.5 	"/>
	<polygon fill="#FED3A8" points="57.7,15.3 56.2,12.8 56.1,10.6 55.9,10.2 54.5,9.2 54,9.3 54.1,9.8 54.5,10.2 54.7,11.4 54.4,10.2 
		53.9,9.6 53.7,9.7 53.6,10.4 53.8,11 53.9,12.2 54.1,12.8 54.7,13.4 56.3,16 57.7,15.3 	"/>
	<polygon fill="#FCF4DA" points="53.8,10.3 54.2,10.1 53.9,9.8 53.8,9.8 53.8,10.3 	"/>
	<polygon fill="#FBB992" points="57.3,15.5 55.7,12.7 55.4,10.6 54.9,9.5 55.6,10.5 56.2,12.8 57.7,15.3 57.3,15.5 	"/>
	<polygon fill="#FBB992" points="54.6,11 54.7,12.2 54.7,11.3 54.6,11 	"/>
	<polygon fill="#FED3A8" points="46.8,15.3 48.3,12.8 48.4,10.7 48.6,10.2 50,9.2 50.5,9.3 50.4,9.8 50,10.2 49.8,11.4 50.1,10.2 
		50.6,9.6 50.8,9.7 50.9,10.4 50.7,11 50.6,12.2 50.4,12.8 49.8,13.4 48.2,16 46.8,15.3 	"/>
	<polygon fill="#FCF4DA" points="50.7,10.3 50.3,10.1 50.5,9.8 50.7,9.8 50.7,10.3 	"/>
	<polygon fill="#FBB992" points="47.2,15.5 48.8,12.7 49.1,10.6 49.6,9.5 48.9,10.5 48.3,12.8 46.8,15.3 47.2,15.5 	"/>
	<polygon fill="#FBB992" points="49.9,11 49.8,12.2 49.8,11.3 49.9,11 	"/>
	<polygon fill="#D1D3D4" points="57.5,14.2 57.1,13.6 55.3,15 55.6,15.5 57.5,14.2 	"/>
	<polygon fill="#D1D3D4" points="47,14.2 47.5,13.6 49.2,15 48.9,15.5 47,14.2 	"/>
	<path fill="#414042" d="M52.3,31l5.6-2l2.1-3.7c0,0,0.6-3.4,0.2-5.8L57.5,14l-1.9,1.5l1.5,4.2l-4.8,0h0l-4.8,0l1.6-4.2L47.1,14
		l-2.7,5.5c-0.5,2.4,0.2,5.8,0.2,5.8l2.1,3.7L52.3,31L52.3,31L52.3,31z"/>
	<polygon fill="#A7A9AC" points="50.8,24.2 52.3,19.7 53.8,24.2 50.8,24.2 	"/>
	<polygon fill="#FED3A8" points="55.7,29.1 56.6,28.9 56.6,27.9 55.7,27 55.7,29.1 	"/>
	<polygon fill="#FED3A8" points="52.3,32 55,31.5 56.2,28.3 55.1,25 52.3,23.2 52.3,32 	"/>
	<polygon fill="#F99D20" points="52.3,33.8 56,32.4 56.4,29 55.6,27 54.8,26.9 54.3,25.8 52.3,25 52.3,33.8 	"/>
	<polygon fill="#FBB992" points="49,29.1 48,28.9 48.1,27.9 49,27 49,29.1 	"/>
	<polygon fill="#FBB992" points="52.3,32 49.7,31.5 48.5,28.3 49.5,25 52.3,23.2 52.3,32 	"/>
	<polygon fill="#F47B20" points="52.3,33.8 48.7,32.4 48.3,29 49,27 49.9,26.9 50.4,25.8 52.3,25 52.3,33.8 	"/>
	<path fill="#D1D3D4" d="M192.5,9.8c-1.1-0.9-1.3-2.6-0.4-3.7c0.9-1.1,2.6-1.3,3.7-0.4c1.1,0.9,1.3,2.6,0.4,3.7
		C195.3,10.5,193.6,10.7,192.5,9.8L192.5,9.8z"/>
	<path fill="#F1F2F2" d="M193,9.1c-0.8-0.6-0.9-1.8-0.3-2.6c0.6-0.8,1.8-0.9,2.6-0.3c0.8,0.6,0.9,1.8,0.3,2.6
		C195,9.6,193.8,9.8,193,9.1L193,9.1z"/>
	<path fill="#DA7027" d="M193.2,8.8c-0.6-0.5-0.7-1.5-0.2-2.1c0.5-0.6,1.5-0.7,2.1-0.2c0.6,0.5,0.7,1.5,0.2,2.1
		C194.8,9.3,193.9,9.4,193.2,8.8L193.2,8.8z"/>
	<path fill="#DA6027" d="M193.4,8.6c-0.5-0.4-0.6-1.1-0.2-1.6c0.4-0.5,1.1-0.6,1.6-0.2c0.5,0.4,0.6,1.1,0.2,1.6
		C194.7,8.9,193.9,9,193.4,8.6L193.4,8.6z"/>
	<path fill="#C74727" d="M193.5,8.5c-0.4-0.3-0.5-1-0.1-1.4c0.3-0.4,1-0.5,1.4-0.2c0.4,0.3,0.5,1,0.2,1.4
		C194.6,8.7,194,8.8,193.5,8.5L193.5,8.5z"/>
	<path fill="#F1F2F2" d="M192.7,9.5c-0.1-0.1-0.1-0.2-0.1-0.3l0.2-0.3c0.1-0.1,0.2-0.1,0.3,0l0,0c0.1,0.1,0.1,0.2,0.1,0.3L193,9.5
		C193,9.6,192.8,9.6,192.7,9.5L192.7,9.5L192.7,9.5z"/>
	<polygon fill="#FFFFFF" points="195.3,5.9 195.9,5.6 196.2,6.2 195.6,6.5 195.3,5.9 	"/>
	<polygon fill="#FFFFFF" points="194.5,5.9 194.7,5.3 195.4,5.5 195.2,6.1 194.5,5.9 	"/>
	<path fill="#6D6E71" d="M190.7,11.7l5.3,0.8c0,0,1,0,0.9,0.8c0,0-0.2,0.3-0.3-0.1c0,0-0.1-0.3-0.6-0.4l-5.2-0.5L190.7,11.7
		L190.7,11.7z"/>
	<path fill="#6D6E71" d="M196.6,11.7l-5.3,0.8c0,0-1,0-0.9,0.8c0,0,0.2,0.3,0.3-0.1c0,0,0.1-0.3,0.6-0.4l5.2-0.5L196.6,11.7
		L196.6,11.7z"/>
	<path d="M196.4,12.3c0,0.5-0.4,0.9-1.1,0.9c-0.6,0-1.2-0.4-1.3-0.9c0-0.2-0.1-0.5,0.1-0.7c0.3-0.2,0.7-0.3,1.1-0.3
		c0.3,0,0.8,0,1,0.1C196.5,11.7,196.4,12,196.4,12.3L196.4,12.3z M193.2,12.3c-0.1,0.5-0.7,1-1.3,0.9c-0.7,0-1.1-0.4-1.1-0.9
		c0-0.3,0-0.6,0.2-0.8c0.2-0.2,0.7-0.1,1-0.1c0.3,0,0.8,0.1,1.1,0.3C193.3,11.8,193.2,12.1,193.2,12.3L193.2,12.3z M196.9,11.3
		l-0.2,0c-1.3-0.2-1.9,0-2.5,0.1c-0.4,0.1-0.5,0.1-0.5,0.1v0l0,0l0,0v0c0,0-0.2,0-0.5-0.1c-0.5-0.1-1.1-0.3-2.4-0.1l-0.2,0l0,0.4
		c0,0,0.1,0,0.2,0.3l0.2,0.8c0,0,0.1,0.7,1,0.7c0,0,0.9,0.1,1.2-0.3c0,0,0.3-0.2,0.4-0.9c0,0,0-0.2,0.2-0.3c0.2,0,0.2,0.3,0.2,0.3
		c0.1,0.6,0.4,0.9,0.4,0.9c0.3,0.5,1.2,0.3,1.2,0.3c0.9,0,1-0.7,1-0.7l0.2-0.8c0.1-0.3,0.2-0.3,0.2-0.3L196.9,11.3L196.9,11.3z"/>
	<path fill="#A7A9AC" d="M211.9,14.4c0,0.1-0.1,0.2-0.2,0.2h-13.3c-0.1,0-0.2-0.1-0.2-0.2V7c0-0.1,0.1-0.2,0.2-0.2h13.3
		c0.1,0,0.2,0.1,0.2,0.2V14.4L211.9,14.4z"/>
	<polygon fill="#BCBEC0" points="214.2,0.8 195.8,0.8 196.2,0.1 213.7,0.2 214.2,0.8 	"/>
	<path d="M211.8,6.5c-0.1,0.1-0.3,0.3-0.5,0.3h-12.7c-0.2,0-0.4-0.1-0.5-0.3l-2.3-5.6c-0.1-0.1,0.1-0.3,0.4-0.3h17.5
		c0.3,0,0.5,0.1,0.4,0.3L211.8,6.5L211.8,6.5z"/>
	<polygon fill="#F7B718" points="211.1,5.9 198.8,5.9 197,1.1 212.9,1.1 211.1,5.9 	"/>
	<polygon fill="#939598" points="212,6 197.9,6 197.9,5.9 212,5.9 212,6 	"/>
	<polygon fill="#FFFFFF" points="210.3,5.4 199.5,5.4 198.3,1.6 211.5,1.6 210.3,5.4 	"/>
	<polygon fill="#E6E7E8" points="210.3,5.4 209.8,5.4 211,1.6 211.5,1.6 210.3,5.4 	"/>
	<polygon fill="#34C1D6" points="211.4,1.9 198.4,1.9 198.3,1.6 211.5,1.6 211.4,1.9 	"/>
	<polygon fill="#939598" points="210.9,2.1 211.1,2 211.2,2.1 210.9,2.1 	"/>
	<polygon fill="#939598" points="210.2,5.2 210.1,5.3 210,5.2 210.2,5.2 	"/>
	<polygon fill="#939598" points="210.5,4.4 210.3,4.4 210.9,2.3 211.1,2.3 210.5,4.4 	"/>
	<path fill="#C6D92D" d="M202.7,3.4c0,0.1-0.1,0.1-0.2,0.1h-3.1c-0.1,0-0.2-0.1-0.2-0.1l-0.4-1.2c0-0.1,0.1-0.1,0.2-0.1h3.3
		c0.1,0,0.2,0,0.2,0.1L202.7,3.4L202.7,3.4z"/>
	<path fill="#ED207A" d="M206.5,3.4c0,0.1-0.1,0.1-0.2,0.1h-3.1c-0.1,0-0.2-0.1-0.2-0.1l-0.1-1.2c0-0.1,0.1-0.1,0.2-0.1h3.3
		c0.1,0,0.2,0,0.2,0.1L206.5,3.4L206.5,3.4z"/>
	<path fill="#F7B718" d="M210.2,3.4c0,0.1-0.1,0.1-0.2,0.1h-3.1c-0.1,0-0.2-0.1-0.2-0.1l0.1-1.2c0-0.1,0.1-0.1,0.2-0.1h3.3
		c0.1,0,0.2,0,0.2,0.1L210.2,3.4L210.2,3.4z"/>
	<polygon fill="#6D6E71" points="206.4,3.8 199.3,3.8 199.3,3.7 206.4,3.7 206.4,3.8 	"/>
	<polygon fill="#D1D3D4" points="206.4,4.1 199.4,4.1 199.4,4 206.4,4 206.4,4.1 	"/>
	<polygon fill="#D1D3D4" points="206.4,4.4 199.5,4.4 199.4,4.3 206.4,4.3 206.4,4.4 	"/>
	<polygon fill="#D1D3D4" points="206.3,4.6 199.5,4.6 199.5,4.5 206.3,4.5 206.3,4.6 	"/>
	<polygon fill="#D1D3D4" points="206.3,4.9 199.6,4.9 199.6,4.8 206.3,4.8 206.3,4.9 	"/>
	<polygon fill="#D1D3D4" points="206.3,5.2 199.7,5.2 199.7,5.1 206.3,5.1 206.3,5.2 	"/>
	<path fill="#BCBEC0" d="M207.9,4.9l0,0.3h0.4l0.1-0.3C208.4,4.9,208.1,4.9,207.9,4.9L207.9,4.9z"/>
	<path fill="#FAD50D" d="M208.4,4.9l-0.2,0h0l-0.2,0c0,0,0-0.1-0.1-0.3l-0.1-0.1c-0.1-0.1-0.1-0.2-0.1-0.3l0.1-0.2c0,0,0,0,0.2-0.1
		c0.1,0,0.3-0.1,0.5-0.1l0,0l0,0c0.2,0,0.4,0,0.5,0.1C208.9,4,209,4,209,4l0.1,0.2c0,0.2-0.4,0.4-0.4,0.4
		C208.5,4.8,208.4,4.9,208.4,4.9L208.4,4.9z"/>
	<path fill="#FFFFFF" d="M208.3,4.4L208.3,4.4l0,0.2l0,0l0-0.1L208.3,4.4L208.3,4.4L208.3,4.4L208.3,4.4z M208.5,4.4
		c0,0-0.1-0.1-0.2-0.1l-0.1,0l-0.1,0c-0.1,0-0.2,0.1-0.2,0.1l-0.1,0.1c0,0.1,0.2,0.2,0.2,0.2l0,0L208,4.6L208,4.5l0.1-0.1l0,0l0.1,0
		l0.1,0l0,0l-0.1,0.1l0.1,0.1h0l0.1-0.1l0-0.1l0,0l0.1,0L208.5,4.4L208.5,4.4l0,0.1l-0.1,0.1l-0.1,0.1l0,0c0,0,0.2-0.1,0.3-0.2
		L208.5,4.4L208.5,4.4z"/>
	<polygon fill="#F7B718" points="207.4,4.3 207.1,4.3 207.1,4.3 207.4,4.3 207.4,4.3 	"/>
	<polygon fill="#F7B718" points="207.6,4 207.4,3.9 207.5,3.8 207.7,4 207.6,4 	"/>
	<polygon fill="#F7B718" points="208.4,3.8 208.4,3.6 208.4,3.6 208.4,3.8 208.4,3.8 	"/>
	<polygon fill="#F7B718" points="207.5,4.6 207.2,4.8 207.3,4.8 207.5,4.7 207.5,4.6 	"/>
	<polygon fill="#F7B718" points="209.2,4.3 209.5,4.3 209.5,4.3 209.2,4.3 209.2,4.3 	"/>
	<polygon fill="#F7B718" points="209.1,4 209.3,3.9 209.3,3.8 209,4 209.1,4 	"/>
	<polygon fill="#F7B718" points="208.9,4.6 209.1,4.8 209.1,4.8 208.9,4.7 208.9,4.6 	"/>
	<polygon fill="#939598" points="208.4,5 208.4,5 207.9,5 207.9,5 207.9,5 208.4,5 208.4,5 	"/>
	<polygon fill="#939598" points="208.4,5.1 208.4,5.1 207.9,5.1 207.9,5.1 207.9,5 208.4,5 208.4,5.1 	"/>
	<polygon fill="#939598" points="208.4,5.1 208.3,5.2 207.9,5.2 207.9,5.1 207.9,5.1 208.4,5.1 208.4,5.1 	"/>
	<path fill="#939598" d="M207.9,5.2c0,0,0.1,0.1,0.2,0.1c0.1,0,0.2,0,0.2-0.1H207.9L207.9,5.2z"/>
	<path fill="#E6E7E8" d="M211.9,14.3c0,0.1-0.1,0.2-0.2,0.2h-13.3c-0.1,0-0.2-0.1-0.2-0.2V6.9c0-0.1,0.1-0.2,0.2-0.2h13.3
		c0.1,0,0.2,0.1,0.2,0.2V14.3L211.9,14.3z"/>
	<path fill="#A7A9AC" d="M206.9,14c0,0.1-0.1,0.2-0.2,0.2h-3.3c-0.1,0-0.2-0.1-0.2-0.2v-1.7c0-0.1,0.1-0.2,0.2-0.2h3.3
		c0.1,0,0.2,0.1,0.2,0.2V14L206.9,14z"/>
	<polygon fill="#A7A9AC" points="199.4,7.4 199.3,7.5 198.6,7.5 198.5,7.4 198.5,7.2 198.6,7.1 199.3,7.1 199.4,7.2 199.4,7.4 	"/>
	<polygon fill="#A7A9AC" points="200.5,7.4 200.4,7.5 199.7,7.5 199.6,7.4 199.6,7.2 199.7,7.1 200.4,7.1 200.5,7.2 200.5,7.4 	"/>
	<polygon fill="#A7A9AC" points="201.6,7.4 201.5,7.5 200.8,7.5 200.7,7.4 200.7,7.2 200.8,7.1 201.5,7.1 201.6,7.2 201.6,7.4 	"/>
	<polygon fill="#A7A9AC" points="202.7,7.4 202.6,7.5 201.9,7.5 201.8,7.4 201.8,7.2 201.9,7.1 202.6,7.1 202.7,7.2 202.7,7.4 	"/>
	<polygon fill="#A7A9AC" points="203.8,7.4 203.7,7.5 203,7.5 202.9,7.4 202.9,7.2 203,7.1 203.7,7.1 203.8,7.2 203.8,7.4 	"/>
	<polygon fill="#A7A9AC" points="204.9,7.4 204.8,7.5 204.1,7.5 204,7.4 204,7.2 204.1,7.1 204.8,7.1 204.9,7.2 204.9,7.4 	"/>
	<polygon fill="#A7A9AC" points="206,7.4 205.8,7.5 205.2,7.5 205.1,7.4 205.1,7.2 205.2,7.1 205.8,7.1 206,7.2 206,7.4 	"/>
	<polygon fill="#A7A9AC" points="207.1,7.4 206.9,7.5 206.3,7.5 206.2,7.4 206.2,7.2 206.3,7.1 206.9,7.1 207.1,7.2 207.1,7.4 	"/>
	<polygon fill="#A7A9AC" points="208.2,7.4 208,7.5 207.4,7.5 207.3,7.4 207.3,7.2 207.4,7.1 208,7.1 208.2,7.2 208.2,7.4 	"/>
	<polygon fill="#A7A9AC" points="209.3,7.4 209.1,7.5 208.5,7.5 208.4,7.4 208.4,7.2 208.5,7.1 209.1,7.1 209.3,7.2 209.3,7.4 	"/>
	<polygon fill="#A7A9AC" points="210.4,7.4 210.2,7.5 209.6,7.5 209.5,7.4 209.5,7.2 209.6,7.1 210.2,7.1 210.4,7.2 210.4,7.4 	"/>
	<polygon fill="#A7A9AC" points="211.4,7.4 211.3,7.5 210.7,7.5 210.6,7.4 210.6,7.2 210.7,7.1 211.3,7.1 211.4,7.2 211.4,7.4 	"/>
	<polygon fill="#A7A9AC" points="199.3,8.5 199.2,8.7 198.6,8.7 198.5,8.5 198.5,8 198.6,7.9 199.2,7.9 199.3,8 199.3,8.5 	"/>
	<polygon fill="#A7A9AC" points="200.3,8.5 200.2,8.7 199.6,8.7 199.5,8.5 199.5,8 199.6,7.9 200.2,7.9 200.3,8 200.3,8.5 	"/>
	<polygon fill="#A7A9AC" points="201.3,8.5 201.2,8.7 200.6,8.7 200.5,8.5 200.5,8 200.6,7.9 201.2,7.9 201.3,8 201.3,8.5 	"/>
	<polygon fill="#A7A9AC" points="202.3,8.5 202.2,8.7 201.7,8.7 201.5,8.5 201.5,8 201.7,7.9 202.2,7.9 202.3,8 202.3,8.5 	"/>
	<polygon fill="#A7A9AC" points="203.3,8.5 203.2,8.7 202.7,8.7 202.6,8.5 202.6,8 202.7,7.9 203.2,7.9 203.3,8 203.3,8.5 	"/>
	<polygon fill="#A7A9AC" points="204.4,8.5 204.2,8.7 203.7,8.7 203.6,8.5 203.6,8 203.7,7.9 204.2,7.9 204.4,8 204.4,8.5 	"/>
	<polygon fill="#A7A9AC" points="205.4,8.5 205.3,8.7 204.7,8.7 204.6,8.5 204.6,8 204.7,7.9 205.3,7.9 205.4,8 205.4,8.5 	"/>
	<polygon fill="#A7A9AC" points="206.4,8.5 206.3,8.7 205.7,8.7 205.6,8.5 205.6,8 205.7,7.9 206.3,7.9 206.4,8 206.4,8.5 	"/>
	<polygon fill="#A7A9AC" points="207.4,8.5 207.3,8.7 206.7,8.7 206.6,8.5 206.6,8 206.7,7.9 207.3,7.9 207.4,8 207.4,8.5 	"/>
	<polygon fill="#A7A9AC" points="208.4,8.5 208.3,8.7 207.7,8.7 207.6,8.5 207.6,8 207.7,7.9 208.3,7.9 208.4,8 208.4,8.5 	"/>
	<polygon fill="#A7A9AC" points="209.4,8.5 209.3,8.7 208.7,8.7 208.6,8.5 208.6,8 208.7,7.9 209.3,7.9 209.4,8 209.4,8.5 	"/>
	<polygon fill="#A7A9AC" points="210.4,8.5 210.3,8.7 209.8,8.7 209.6,8.5 209.6,8 209.8,7.9 210.3,7.9 210.4,8 210.4,8.5 	"/>
	<polygon fill="#A7A9AC" points="211.4,8.5 211.3,8.7 210.8,8.7 210.7,8.5 210.7,8 210.8,7.9 211.3,7.9 211.4,8 211.4,8.5 	"/>
	<polygon fill="#A7A9AC" points="199.3,9.6 199.2,9.7 198.6,9.7 198.5,9.6 198.5,9 198.6,8.9 199.2,8.9 199.3,9 199.3,9.6 	"/>
	<polygon fill="#A7A9AC" points="200.3,9.6 200.2,9.7 199.6,9.7 199.5,9.6 199.5,9 199.6,8.9 200.2,8.9 200.3,9 200.3,9.6 	"/>
	<polygon fill="#A7A9AC" points="201.3,9.6 201.2,9.7 200.6,9.7 200.5,9.6 200.5,9 200.6,8.9 201.2,8.9 201.3,9 201.3,9.6 	"/>
	<polygon fill="#A7A9AC" points="202.3,9.6 202.2,9.7 201.7,9.7 201.5,9.6 201.5,9 201.7,8.9 202.2,8.9 202.3,9 202.3,9.6 	"/>
	<polygon fill="#A7A9AC" points="203.3,9.6 203.2,9.7 202.7,9.7 202.6,9.6 202.6,9 202.7,8.9 203.2,8.9 203.3,9 203.3,9.6 	"/>
	<polygon fill="#A7A9AC" points="204.4,9.6 204.2,9.7 203.7,9.7 203.6,9.6 203.6,9 203.7,8.9 204.2,8.9 204.4,9 204.4,9.6 	"/>
	<polygon fill="#A7A9AC" points="205.4,9.6 205.3,9.7 204.7,9.7 204.6,9.6 204.6,9 204.7,8.9 205.3,8.9 205.4,9 205.4,9.6 	"/>
	<polygon fill="#A7A9AC" points="206.4,9.6 206.3,9.7 205.7,9.7 205.6,9.6 205.6,9 205.7,8.9 206.3,8.9 206.4,9 206.4,9.6 	"/>
	<polygon fill="#A7A9AC" points="207.4,9.6 207.3,9.7 206.7,9.7 206.6,9.6 206.6,9 206.7,8.9 207.3,8.9 207.4,9 207.4,9.6 	"/>
	<polygon fill="#A7A9AC" points="208.4,9.6 208.3,9.7 207.7,9.7 207.6,9.6 207.6,9 207.7,8.9 208.3,8.9 208.4,9 208.4,9.6 	"/>
	<polygon fill="#A7A9AC" points="209.4,9.6 209.3,9.7 208.7,9.7 208.6,9.6 208.6,9 208.7,8.9 209.3,8.9 209.4,9 209.4,9.6 	"/>
	<polygon fill="#A7A9AC" points="210.4,9.6 210.3,9.7 209.8,9.7 209.6,9.6 209.6,9 209.8,8.9 210.3,8.9 210.4,9 210.4,9.6 	"/>
	<polygon fill="#A7A9AC" points="211.4,9.6 211.3,9.7 210.8,9.7 210.7,9.6 210.7,9 210.8,8.9 211.3,8.9 211.4,9 211.4,9.6 	"/>
	<polygon fill="#A7A9AC" points="199.3,10.6 199.2,10.7 198.6,10.7 198.5,10.6 198.5,10.1 198.6,10 199.2,10 199.3,10.1 199.3,10.6 
			"/>
	<polygon fill="#A7A9AC" points="200.3,10.6 200.2,10.7 199.6,10.7 199.5,10.6 199.5,10.1 199.6,10 200.2,10 200.3,10.1 200.3,10.6 
			"/>
	<polygon fill="#A7A9AC" points="201.3,10.6 201.2,10.7 200.6,10.7 200.5,10.6 200.5,10.1 200.6,10 201.2,10 201.3,10.1 201.3,10.6 
			"/>
	<polygon fill="#A7A9AC" points="202.3,10.6 202.2,10.7 201.7,10.7 201.5,10.6 201.5,10.1 201.7,10 202.2,10 202.3,10.1 202.3,10.6 
			"/>
	<polygon fill="#A7A9AC" points="203.3,10.6 203.2,10.7 202.7,10.7 202.6,10.6 202.6,10.1 202.7,10 203.2,10 203.3,10.1 203.3,10.6 
			"/>
	<polygon fill="#A7A9AC" points="204.4,10.6 204.2,10.7 203.7,10.7 203.6,10.6 203.6,10.1 203.7,10 204.2,10 204.4,10.1 204.4,10.6 
			"/>
	<polygon fill="#A7A9AC" points="205.4,10.6 205.3,10.7 204.7,10.7 204.6,10.6 204.6,10.1 204.7,10 205.3,10 205.4,10.1 205.4,10.6 
			"/>
	<polygon fill="#A7A9AC" points="206.4,10.6 206.3,10.7 205.7,10.7 205.6,10.6 205.6,10.1 205.7,10 206.3,10 206.4,10.1 206.4,10.6 
			"/>
	<polygon fill="#A7A9AC" points="207.4,10.6 207.3,10.7 206.7,10.7 206.6,10.6 206.6,10.1 206.7,10 207.3,10 207.4,10.1 207.4,10.6 
			"/>
	<polygon fill="#A7A9AC" points="208.4,10.6 208.3,10.7 207.7,10.7 207.6,10.6 207.6,10.1 207.7,10 208.3,10 208.4,10.1 208.4,10.6 
			"/>
	<polygon fill="#A7A9AC" points="209.4,10.6 209.3,10.7 208.7,10.7 208.6,10.6 208.6,10.1 208.7,10 209.3,10 209.4,10.1 209.4,10.6 
			"/>
	<polygon fill="#A7A9AC" points="210.4,10.6 210.3,10.7 209.8,10.7 209.6,10.6 209.6,10.1 209.8,10 210.3,10 210.4,10.1 210.4,10.6 
			"/>
	<polygon fill="#A7A9AC" points="211.4,10.6 211.3,10.7 210.8,10.7 210.7,10.6 210.7,10.1 210.8,10 211.3,10 211.4,10.1 211.4,10.6 
			"/>
	<polygon fill="#A7A9AC" points="199.3,11.7 199.2,11.8 198.6,11.8 198.5,11.7 198.5,11.1 198.6,11 199.2,11 199.3,11.1 199.3,11.7 
			"/>
	<polygon fill="#A7A9AC" points="200.3,11.7 200.2,11.8 199.7,11.8 199.5,11.7 199.5,11.1 199.7,11 200.2,11 200.3,11.1 200.3,11.7 
			"/>
	<polygon fill="#A7A9AC" points="201.3,11.7 201.2,11.8 200.7,11.8 200.5,11.7 200.5,11.1 200.7,11 201.2,11 201.3,11.1 201.3,11.7 
			"/>
	<polygon fill="#A7A9AC" points="202.4,11.7 202.2,11.8 201.7,11.8 201.6,11.7 201.6,11.1 201.7,11 202.2,11 202.4,11.1 202.4,11.7 
			"/>
	<polygon fill="#A7A9AC" points="203.4,11.7 203.3,11.8 202.7,11.8 202.6,11.7 202.6,11.1 202.7,11 203.3,11 203.4,11.1 203.4,11.7 
			"/>
	<polygon fill="#A7A9AC" points="207.4,11.7 207.3,11.8 206.7,11.8 206.6,11.7 206.6,11.1 206.7,11 207.3,11 207.4,11.1 207.4,11.7 
			"/>
	<polygon fill="#A7A9AC" points="208.4,11.7 208.3,11.8 207.8,11.8 207.6,11.7 207.6,11.1 207.8,11 208.3,11 208.4,11.1 208.4,11.7 
			"/>
	<polygon fill="#A7A9AC" points="209.4,11.7 209.3,11.8 208.8,11.8 208.7,11.7 208.7,11.1 208.8,11 209.3,11 209.4,11.1 209.4,11.7 
			"/>
	<polygon fill="#A7A9AC" points="210.5,11.7 210.3,11.8 209.8,11.8 209.7,11.7 209.7,11.1 209.8,11 210.3,11 210.5,11.1 210.5,11.7 
			"/>
	<polygon fill="#A7A9AC" points="211.5,11.7 211.4,11.8 210.8,11.8 210.7,11.7 210.7,11.1 210.8,11 211.4,11 211.5,11.1 211.5,11.7 
			"/>
	<polygon fill="#A7A9AC" points="206.4,11.7 206.3,11.8 203.7,11.8 203.6,11.7 203.6,11.1 203.7,11 206.3,11 206.4,11.1 206.4,11.7 
			"/>
	<polygon fill="#FED3A8" points="210.5,15.9 208.9,13.4 208.8,11.3 208.6,10.8 207.2,9.8 206.8,9.9 206.9,10.4 207.3,10.8 207.5,12 
		207.1,10.8 206.7,10.2 206.4,10.3 206.4,11 206.5,11.6 206.6,12.8 206.9,13.5 207.5,14 209,16.7 210.5,15.9 	"/>
	<polygon fill="#FCF4DA" points="206.5,10.9 207,10.7 206.7,10.4 206.5,10.4 206.5,10.9 	"/>
	<polygon fill="#FBB992" points="210.1,16.1 208.4,13.3 208.2,11.2 207.6,10.1 208.3,11.1 208.9,13.4 210.5,15.9 210.1,16.1 	"/>
	<polygon fill="#FBB992" points="207.3,11.6 207.5,12.8 207.5,11.9 207.3,11.6 	"/>
	<polygon fill="#FED3A8" points="199.5,15.9 201.1,13.4 201.1,11.3 201.4,10.8 202.7,9.8 203.2,9.9 203.1,10.4 202.7,10.8 202.5,12 
		202.8,10.8 203.3,10.2 203.5,10.3 203.6,11 203.5,11.6 203.4,12.8 203.1,13.5 202.5,14 201,16.7 199.5,15.9 	"/>
	<polygon fill="#FCF4DA" points="203.5,10.9 203,10.7 203.3,10.4 203.5,10.4 203.5,10.9 	"/>
	<polygon fill="#FBB992" points="199.9,16.1 201.6,13.3 201.8,11.2 202.3,10.1 201.6,11.1 201.1,13.4 199.5,15.9 199.9,16.1 	"/>
	<polygon fill="#FBB992" points="202.6,11.6 202.5,12.8 202.5,11.9 202.6,11.6 	"/>
	<path fill="#414042" d="M205.2,30.6l5-1.8l2-3.9c0,0,0.4-2.8-0.3-4.9l-1.8-5.2l-2,1.3l1.2,6.7l-1-2.5l-3.5,0h0l-3.7,0.1l-0.8,2.5
		l1.3-6.8l-1.8-2l-1.9,5.9c-0.5,2.4-0.5,4.4-0.5,4.4l1.8,4.3l4.7,1.8L205.2,30.6L205.2,30.6z"/>
	<polygon fill="#FFFFFF" points="203.4,24.9 204.9,20.3 206.4,24.9 203.4,24.9 	"/>
	<polygon fill="#FBB992" points="201.5,28.9 200.6,28.7 200.6,27.7 201.5,26.8 201.5,28.9 	"/>
	<polygon fill="#FBB992" points="204.9,31.9 202.2,31.3 201.1,28.2 202.1,24.7 204.9,23 204.9,31.9 	"/>
	<polygon fill="#F99D20" points="204.9,33.6 201.2,32.3 200.9,28.8 201.6,26.8 202.5,26.7 202.9,25.6 204.9,24.8 205.1,29 
		204.9,33.6 	"/>
	<polygon fill="#FED3A8" points="208.3,28.9 209.3,28.7 209.2,27.7 208.3,26.8 208.3,28.9 	"/>
	<polygon fill="#FED3A8" points="204.9,31.9 207.6,31.3 208.8,28.2 207.7,24.7 204.9,23 204.9,31.9 	"/>
	<polygon fill="#F47B20" points="204.9,33.6 208.6,32.3 209,28.8 208.2,26.8 207.4,26.7 207.1,24.6 204.9,24.8 204.9,33.6 	"/>
	<polygon fill="#F99D20" points="208.7,27.2 208.7,24.9 210.4,23.9 206.9,22.8 206.1,23.7 207.7,24.7 208.3,26.8 208.7,27.2 	"/>
	<polygon fill="#F99D20" points="201.1,27.3 201,25 199.3,24 202.9,22.9 203.7,23.7 202.1,24.7 201.4,26.9 201.1,27.3 	"/>
	<path fill="#F1F2F2" d="M0.1,9.9c0,1.5,1.2,2.7,2.7,2.7c1.5,0,2.7-1.2,2.7-2.7c0-1.5-1.2-2.7-2.7-2.7C1.3,7.3,0.1,8.5,0.1,9.9
		L0.1,9.9z"/>
	<path fill="#D1D3D4" d="M0.9,9.9c0,1,0.8,1.9,1.9,1.9c1,0,1.9-0.8,1.9-1.9c0-1-0.8-1.9-1.9-1.9C1.7,8.1,0.9,8.9,0.9,9.9L0.9,9.9z"
		/>
	<path fill="#512C13" d="M1.2,9.9c0,0.8,0.7,1.5,1.5,1.5c0.8,0,1.5-0.7,1.5-1.5c0-0.8-0.7-1.5-1.5-1.5C1.9,8.4,1.2,9.1,1.2,9.9
		L1.2,9.9z"/>
	<path fill="#673B1B" d="M1.6,9.9c0,0.6,0.5,1.2,1.2,1.2s1.2-0.5,1.2-1.2c0-0.6-0.5-1.2-1.2-1.2C2.1,8.8,1.6,9.3,1.6,9.9L1.6,9.9z"
		/>
	<path fill="#7F492A" d="M1.7,9.9c0,0.6,0.5,1,1,1c0.6,0,1-0.4,1-1c0-0.6-0.5-1-1-1C2.2,8.9,1.7,9.4,1.7,9.9L1.7,9.9z"/>
	<path fill="#D1D3D4" d="M0.4,9.9c0,0.1,0.1,0.2,0.2,0.2l0.3,0c0.1,0,0.2-0.1,0.2-0.2V9.9c0-0.1-0.1-0.2-0.2-0.2H0.6
		C0.5,9.6,0.4,9.8,0.4,9.9L0.4,9.9L0.4,9.9z"/>
	<path fill="#DEDFE0" d="M4.4,9.1c0,0.3,0.2,0.5,0.4,0.5c0.2,0,0.4-0.2,0.4-0.5c0-0.3-0.2-0.5-0.4-0.5C4.6,8.6,4.4,8.8,4.4,9.1
		L4.4,9.1z"/>
	<polygon fill="#DEDFE0" points="4.7,11.5 4.8,11.6 4.9,11.5 4.9,9.5 4.8,9.4 4.7,9.5 4.7,11.5 	"/>
	<path fill="#D1D3D4" d="M4.5,9.1c0,0.2,0.1,0.4,0.3,0.4c0.2,0,0.3-0.2,0.3-0.4c0-0.2-0.1-0.4-0.3-0.4C4.7,8.7,4.5,8.9,4.5,9.1
		L4.5,9.1z"/>
	<path fill="#A7A9AC" d="M6.9,15.6c0,0.1,0.1,0.2,0.2,0.2h13.3c0.1,0,0.2-0.1,0.2-0.2V8.1c0-0.1-0.1-0.2-0.2-0.2H7.1
		C7,7.9,6.9,8,6.9,8.1V15.6L6.9,15.6z"/>
	<polygon fill="#BCBEC0" points="4.6,3.3 23,3.3 22.5,2.8 5.1,2.8 4.6,3.3 	"/>
	<path d="M7,7.7c0.1,0.1,0.3,0.2,0.5,0.2h12.7c0.2,0,0.4-0.1,0.5-0.2L23,3.4c0.1-0.1-0.1-0.2-0.4-0.2H5c-0.3,0-0.5,0.1-0.4,0.2
		L7,7.7L7,7.7z"/>
	<polygon fill="#8DC63F" points="7.7,7.2 20,7.2 21.7,3.6 5.8,3.6 7.7,7.2 	"/>
	<polygon fill="#939598" points="6.8,7.3 20.8,7.3 20.9,7.2 6.7,7.2 6.8,7.3 	"/>
	<polygon fill="#FFFFFF" points="8.5,6.8 19.3,6.8 20.5,3.9 7.2,3.9 8.5,6.8 	"/>
	<polygon fill="#E6E7E8" points="8.5,6.8 8.9,6.8 7.8,3.9 7.2,3.9 8.5,6.8 	"/>
	<polygon fill="#F7B718" points="7.4,4.2 20.4,4.2 20.5,3.9 7.2,3.9 7.4,4.2 	"/>
	<polygon fill="#939598" points="7.8,4.3 7.7,4.2 7.6,4.3 7.8,4.3 	"/>
	<polygon fill="#939598" points="8.6,6.7 8.7,6.8 8.8,6.7 8.6,6.7 	"/>
	<polygon fill="#939598" points="8.3,6 8.5,6 7.9,4.4 7.6,4.4 8.3,6 	"/>
	<path fill="#27AAE1" d="M16.1,5.3c0,0,0.1,0.1,0.2,0.1h3.1c0.1,0,0.2,0,0.2-0.1L20,4.4c0,0-0.1-0.1-0.2-0.1h-3.3
		c-0.1,0-0.2,0-0.2,0.1L16.1,5.3L16.1,5.3z"/>
	<path fill="#6D6E71" d="M12.3,5.3c0,0,0.1,0.1,0.2,0.1h3.1c0.1,0,0.2,0,0.2-0.1L16,4.4c0,0-0.1-0.1-0.2-0.1h-3.3
		c-0.1,0-0.2,0-0.2,0.1L12.3,5.3L12.3,5.3z"/>
	<path fill="#F7B718" d="M8.6,5.3c0,0,0.1,0.1,0.2,0.1h3.1c0.1,0,0.2,0,0.2-0.1L12,4.4c0,0-0.1-0.1-0.2-0.1H8.4
		c-0.1,0-0.2,0-0.2,0.1L8.6,5.3L8.6,5.3z"/>
	<polygon fill="#6D6E71" points="12.4,5.6 19.5,5.6 19.5,5.5 12.4,5.5 12.4,5.6 	"/>
	<polygon fill="#D1D3D4" points="12.4,5.8 19.4,5.8 19.4,5.7 12.4,5.7 12.4,5.8 	"/>
	<polygon fill="#D1D3D4" points="12.4,6 19.3,6 19.3,6 12.4,6 12.4,6 	"/>
	<polygon fill="#D1D3D4" points="12.4,6.2 19.2,6.2 19.3,6.2 12.4,6.2 12.4,6.2 	"/>
	<polygon fill="#D1D3D4" points="12.5,6.5 19.1,6.5 19.2,6.4 12.5,6.4 12.5,6.5 	"/>
	<polygon fill="#D1D3D4" points="12.5,6.7 19.1,6.7 19.1,6.6 12.5,6.6 12.5,6.7 	"/>
	<path fill="#BCBEC0" d="M10.9,6.5l0,0.2h-0.4l-0.1-0.2C10.4,6.5,10.7,6.5,10.9,6.5L10.9,6.5z"/>
	<path fill="#FAD50D" d="M10.4,6.5l0.2,0h0l0.2,0c0,0,0-0.1,0.1-0.2l0.1-0.1l0.1-0.2l-0.1-0.2c0,0,0,0-0.2-0.1
		c-0.1,0-0.3-0.1-0.5-0.1l0,0l0,0c-0.2,0-0.4,0-0.5,0.1c-0.1,0-0.1,0.1-0.1,0.1L9.7,5.9c0,0.2,0.4,0.3,0.4,0.3
		C10.3,6.4,10.3,6.4,10.4,6.5L10.4,6.5z"/>
	<path fill="#FFFFFF" d="M10.5,6.1L10.5,6.1l0,0.1l0,0l0.1-0.1L10.5,6.1L10.5,6.1L10.5,6.1L10.5,6.1z M10.2,6.1c0,0,0.1-0.1,0.2-0.1
		l0.1,0l0.1,0c0.1,0,0.2,0.1,0.2,0.1l0.1,0.1c0,0.1-0.2,0.2-0.2,0.2l0,0l0.1-0.1l0.1-0.1l-0.1-0.1l0,0l-0.1,0l-0.1,0l0,0l0.1,0.1
		l-0.1,0.1h0l-0.1-0.1l0-0.1l0,0l-0.1,0L10.2,6.1L10.2,6.1L10.2,6.1l0.1,0.2l0.1,0.1l0,0h0C10.5,6.3,10.2,6.2,10.2,6.1L10.2,6.1
		L10.2,6.1z"/>
	<polygon fill="#F7B718" points="11.4,6 11.7,6 11.7,6 11.4,6 11.4,6 	"/>
	<polygon fill="#F7B718" points="11.2,5.7 11.4,5.6 11.3,5.6 11.1,5.7 11.2,5.7 	"/>
	<polygon fill="#F7B718" points="10.4,5.6 10.4,5.5 10.3,5.5 10.4,5.6 10.4,5.6 	"/>
	<polygon fill="#F7B718" points="11.3,6.3 11.5,6.3 11.5,6.4 11.3,6.3 11.3,6.3 	"/>
	<polygon fill="#F7B718" points="9.6,6 9.3,6 9.3,6 9.6,6 9.6,6 	"/>
	<polygon fill="#F7B718" points="9.7,5.7 9.5,5.6 9.5,5.6 9.8,5.7 9.7,5.7 	"/>
	<polygon fill="#F7B718" points="9.8,6.3 9.6,6.3 9.7,6.4 9.9,6.3 9.8,6.3 	"/>
	<polygon fill="#939598" points="10.4,6.5 10.4,6.5 10.8,6.5 10.9,6.5 10.8,6.5 10.4,6.5 10.4,6.5 	"/>
	<polygon fill="#939598" points="10.4,6.6 10.4,6.6 10.9,6.6 10.9,6.6 10.9,6.5 10.4,6.5 10.4,6.6 	"/>
	<polygon fill="#939598" points="10.4,6.6 10.4,6.6 10.9,6.6 10.9,6.6 10.9,6.6 10.4,6.6 10.4,6.6 	"/>
	<path fill="#939598" d="M10.9,6.7c0,0-0.1,0-0.2,0c-0.1,0-0.2,0-0.2,0H10.9L10.9,6.7z"/>
	<path fill="#E6E7E8" d="M6.9,15.5c0,0.1,0.1,0.2,0.2,0.2h13.3c0.1,0,0.2-0.1,0.2-0.2V8.1c0-0.1-0.1-0.2-0.2-0.2H7.1
		C7,7.8,6.9,7.9,6.9,8.1V15.5L6.9,15.5z"/>
	<path fill="#A7A9AC" d="M11.9,15.2c0,0.1,0.1,0.2,0.2,0.2h3.3c0.1,0,0.2-0.1,0.2-0.2v-1.7c0-0.1-0.1-0.2-0.2-0.2h-3.3
		c-0.1,0-0.2,0.1-0.2,0.2V15.2L11.9,15.2z"/>
	<polygon fill="#A7A9AC" points="19.4,8.5 19.5,8.6 20.2,8.6 20.3,8.5 20.3,8.4 20.2,8.3 19.5,8.3 19.4,8.4 19.4,8.5 	"/>
	<polygon fill="#A7A9AC" points="18.3,8.5 18.4,8.6 19.1,8.6 19.2,8.5 19.2,8.4 19.1,8.3 18.4,8.3 18.3,8.4 18.3,8.5 	"/>
	<polygon fill="#A7A9AC" points="17.2,8.5 17.3,8.6 18,8.6 18.1,8.5 18.1,8.4 18,8.3 17.3,8.3 17.2,8.4 17.2,8.5 	"/>
	<polygon fill="#A7A9AC" points="16.1,8.5 16.2,8.6 16.9,8.6 17,8.5 17,8.4 16.9,8.3 16.2,8.3 16.1,8.4 16.1,8.5 	"/>
	<polygon fill="#A7A9AC" points="15,8.5 15.1,8.6 15.8,8.6 15.9,8.5 15.9,8.4 15.8,8.3 15.1,8.3 15,8.4 15,8.5 	"/>
	<polygon fill="#A7A9AC" points="13.9,8.5 14,8.6 14.7,8.6 14.8,8.5 14.8,8.4 14.7,8.3 14,8.3 13.9,8.4 13.9,8.5 	"/>
	<polygon fill="#A7A9AC" points="12.8,8.5 12.9,8.6 13.6,8.6 13.7,8.5 13.7,8.4 13.6,8.3 12.9,8.3 12.8,8.4 12.8,8.5 	"/>
	<polygon fill="#A7A9AC" points="11.7,8.5 11.8,8.6 12.5,8.6 12.6,8.5 12.6,8.4 12.5,8.3 11.8,8.3 11.7,8.4 11.7,8.5 	"/>
	<polygon fill="#A7A9AC" points="10.6,8.5 10.7,8.6 11.4,8.6 11.5,8.5 11.5,8.4 11.4,8.3 10.7,8.3 10.6,8.4 10.6,8.5 	"/>
	<polygon fill="#A7A9AC" points="9.5,8.5 9.6,8.6 10.3,8.6 10.4,8.5 10.4,8.4 10.3,8.3 9.6,8.3 9.5,8.4 9.5,8.5 	"/>
	<polygon fill="#A7A9AC" points="8.4,8.5 8.5,8.6 9.2,8.6 9.3,8.5 9.3,8.4 9.2,8.3 8.5,8.3 8.4,8.4 8.4,8.5 	"/>
	<polygon fill="#A7A9AC" points="7.3,8.5 7.4,8.6 8.1,8.6 8.2,8.5 8.2,8.4 8.1,8.3 7.4,8.3 7.3,8.4 7.3,8.5 	"/>
	<polygon fill="#A7A9AC" points="19.5,9.7 19.6,9.8 20.2,9.8 20.3,9.7 20.3,9.1 20.2,9 19.6,9 19.5,9.1 19.5,9.7 	"/>
	<polygon fill="#A7A9AC" points="18.5,9.7 18.6,9.8 19.1,9.8 19.3,9.7 19.3,9.1 19.1,9 18.6,9 18.5,9.1 18.5,9.7 	"/>
	<polygon fill="#A7A9AC" points="17.5,9.7 17.6,9.8 18.1,9.8 18.2,9.7 18.2,9.1 18.1,9 17.6,9 17.5,9.1 17.5,9.7 	"/>
	<polygon fill="#A7A9AC" points="16.4,9.7 16.6,9.8 17.1,9.8 17.2,9.7 17.2,9.1 17.1,9 16.6,9 16.4,9.1 16.4,9.7 	"/>
	<polygon fill="#A7A9AC" points="15.4,9.7 15.5,9.8 16.1,9.8 16.2,9.7 16.2,9.1 16.1,9 15.5,9 15.4,9.1 15.4,9.7 	"/>
	<polygon fill="#A7A9AC" points="14.4,9.7 14.5,9.8 15.1,9.8 15.2,9.7 15.2,9.1 15.1,9 14.5,9 14.4,9.1 14.4,9.7 	"/>
	<polygon fill="#A7A9AC" points="13.4,9.7 13.5,9.8 14.1,9.8 14.2,9.7 14.2,9.1 14.1,9 13.5,9 13.4,9.1 13.4,9.7 	"/>
	<polygon fill="#A7A9AC" points="12.4,9.7 12.5,9.8 13.1,9.8 13.2,9.7 13.2,9.1 13.1,9 12.5,9 12.4,9.1 12.4,9.7 	"/>
	<polygon fill="#A7A9AC" points="11.4,9.7 11.5,9.8 12.1,9.8 12.2,9.7 12.2,9.1 12.1,9 11.5,9 11.4,9.1 11.4,9.7 	"/>
	<polygon fill="#A7A9AC" points="10.4,9.7 10.5,9.8 11,9.8 11.2,9.7 11.2,9.1 11,9 10.5,9 10.4,9.1 10.4,9.7 	"/>
	<polygon fill="#A7A9AC" points="9.4,9.7 9.5,9.8 10,9.8 10.1,9.7 10.1,9.1 10,9 9.5,9 9.4,9.1 9.4,9.7 	"/>
	<polygon fill="#A7A9AC" points="8.3,9.7 8.5,9.8 9,9.8 9.1,9.7 9.1,9.1 9,9 8.5,9 8.3,9.1 8.3,9.7 	"/>
	<polygon fill="#A7A9AC" points="7.3,9.7 7.4,9.8 8,9.8 8.1,9.7 8.1,9.1 8,9 7.4,9 7.3,9.1 7.3,9.7 	"/>
	<polygon fill="#A7A9AC" points="19.5,10.7 19.6,10.8 20.2,10.8 20.3,10.7 20.3,10.2 20.2,10 19.6,10 19.5,10.2 19.5,10.7 	"/>
	<polygon fill="#A7A9AC" points="18.5,10.7 18.6,10.8 19.1,10.8 19.3,10.7 19.3,10.2 19.1,10 18.6,10 18.5,10.2 18.5,10.7 	"/>
	<polygon fill="#A7A9AC" points="17.5,10.7 17.6,10.8 18.1,10.8 18.2,10.7 18.2,10.2 18.1,10 17.6,10 17.5,10.2 17.5,10.7 	"/>
	<polygon fill="#A7A9AC" points="16.4,10.7 16.6,10.8 17.1,10.8 17.2,10.7 17.2,10.2 17.1,10 16.6,10 16.4,10.2 16.4,10.7 	"/>
	<polygon fill="#A7A9AC" points="15.4,10.7 15.5,10.8 16.1,10.8 16.2,10.7 16.2,10.2 16.1,10 15.5,10 15.4,10.2 15.4,10.7 	"/>
	<polygon fill="#A7A9AC" points="14.4,10.7 14.5,10.8 15.1,10.8 15.2,10.7 15.2,10.2 15.1,10 14.5,10 14.4,10.2 14.4,10.7 	"/>
	<polygon fill="#A7A9AC" points="13.4,10.7 13.5,10.8 14.1,10.8 14.2,10.7 14.2,10.2 14.1,10 13.5,10 13.4,10.2 13.4,10.7 	"/>
	<polygon fill="#A7A9AC" points="12.4,10.7 12.5,10.8 13.1,10.8 13.2,10.7 13.2,10.2 13.1,10 12.5,10 12.4,10.2 12.4,10.7 	"/>
	<polygon fill="#A7A9AC" points="11.4,10.7 11.5,10.8 12.1,10.8 12.2,10.7 12.2,10.2 12.1,10 11.5,10 11.4,10.2 11.4,10.7 	"/>
	<polygon fill="#A7A9AC" points="10.4,10.7 10.5,10.8 11,10.8 11.2,10.7 11.2,10.2 11,10 10.5,10 10.4,10.2 10.4,10.7 	"/>
	<polygon fill="#A7A9AC" points="9.4,10.7 9.5,10.8 10,10.8 10.1,10.7 10.1,10.2 10,10 9.5,10 9.4,10.2 9.4,10.7 	"/>
	<polygon fill="#A7A9AC" points="8.3,10.7 8.5,10.8 9,10.8 9.1,10.7 9.1,10.2 9,10 8.5,10 8.3,10.2 8.3,10.7 	"/>
	<polygon fill="#A7A9AC" points="7.3,10.7 7.4,10.8 8,10.8 8.1,10.7 8.1,10.2 8,10 7.4,10 7.3,10.2 7.3,10.7 	"/>
	<polygon fill="#A7A9AC" points="19.5,11.8 19.6,11.9 20.2,11.9 20.3,11.8 20.3,11.2 20.2,11.1 19.6,11.1 19.5,11.2 19.5,11.8 	"/>
	<polygon fill="#A7A9AC" points="18.5,11.8 18.6,11.9 19.1,11.9 19.3,11.8 19.3,11.2 19.1,11.1 18.6,11.1 18.5,11.2 18.5,11.8 	"/>
	<polygon fill="#A7A9AC" points="17.5,11.8 17.6,11.9 18.1,11.9 18.2,11.8 18.2,11.2 18.1,11.1 17.6,11.1 17.5,11.2 17.5,11.8 	"/>
	<polygon fill="#A7A9AC" points="16.4,11.8 16.6,11.9 17.1,11.9 17.2,11.8 17.2,11.2 17.1,11.1 16.6,11.1 16.4,11.2 16.4,11.8 	"/>
	<polygon fill="#A7A9AC" points="15.4,11.8 15.5,11.9 16.1,11.9 16.2,11.8 16.2,11.2 16.1,11.1 15.5,11.1 15.4,11.2 15.4,11.8 	"/>
	<polygon fill="#A7A9AC" points="14.4,11.8 14.5,11.9 15.1,11.9 15.2,11.8 15.2,11.2 15.1,11.1 14.5,11.1 14.4,11.2 14.4,11.8 	"/>
	<polygon fill="#A7A9AC" points="13.4,11.8 13.5,11.9 14.1,11.9 14.2,11.8 14.2,11.2 14.1,11.1 13.5,11.1 13.4,11.2 13.4,11.8 	"/>
	<polygon fill="#A7A9AC" points="12.4,11.8 12.5,11.9 13.1,11.9 13.2,11.8 13.2,11.2 13.1,11.1 12.5,11.1 12.4,11.2 12.4,11.8 	"/>
	<polygon fill="#A7A9AC" points="11.4,11.8 11.5,11.9 12.1,11.9 12.2,11.8 12.2,11.2 12.1,11.1 11.5,11.1 11.4,11.2 11.4,11.8 	"/>
	<polygon fill="#A7A9AC" points="10.4,11.8 10.5,11.9 11,11.9 11.2,11.8 11.2,11.2 11,11.1 10.5,11.1 10.4,11.2 10.4,11.8 	"/>
	<polygon fill="#A7A9AC" points="9.4,11.8 9.5,11.9 10,11.9 10.1,11.8 10.1,11.2 10,11.1 9.5,11.1 9.4,11.2 9.4,11.8 	"/>
	<polygon fill="#A7A9AC" points="8.3,11.8 8.5,11.9 9,11.9 9.1,11.8 9.1,11.2 9,11.1 8.5,11.1 8.3,11.2 8.3,11.8 	"/>
	<polygon fill="#A7A9AC" points="7.3,11.8 7.4,11.9 8,11.9 8.1,11.8 8.1,11.2 8,11.1 7.4,11.1 7.3,11.2 7.3,11.8 	"/>
	<polygon fill="#A7A9AC" points="19.5,12.8 19.6,12.9 20.1,12.9 20.3,12.8 20.3,12.2 20.1,12.1 19.6,12.1 19.5,12.2 19.5,12.8 	"/>
	<polygon fill="#A7A9AC" points="18.4,12.8 18.6,12.9 19.1,12.9 19.2,12.8 19.2,12.2 19.1,12.1 18.6,12.1 18.4,12.2 18.4,12.8 	"/>
	<polygon fill="#A7A9AC" points="17.4,12.8 17.6,12.9 18.1,12.9 18.2,12.8 18.2,12.2 18.1,12.1 17.6,12.1 17.4,12.2 17.4,12.8 	"/>
	<polygon fill="#A7A9AC" points="16.4,12.8 16.5,12.9 17.1,12.9 17.2,12.8 17.2,12.2 17.1,12.1 16.5,12.1 16.4,12.2 16.4,12.8 	"/>
	<polygon fill="#A7A9AC" points="15.4,12.8 15.5,12.9 16.1,12.9 16.2,12.8 16.2,12.2 16.1,12.1 15.5,12.1 15.4,12.2 15.4,12.8 	"/>
	<polygon fill="#A7A9AC" points="11.4,12.8 11.5,12.9 12,12.9 12.2,12.8 12.2,12.2 12,12.1 11.5,12.1 11.4,12.2 11.4,12.8 	"/>
	<polygon fill="#A7A9AC" points="10.3,12.8 10.5,12.9 11,12.9 11.1,12.8 11.1,12.2 11,12.1 10.5,12.1 10.3,12.2 10.3,12.8 	"/>
	<polygon fill="#A7A9AC" points="9.3,12.8 9.4,12.9 10,12.9 10.1,12.8 10.1,12.2 10,12.1 9.4,12.1 9.3,12.2 9.3,12.8 	"/>
	<polygon fill="#A7A9AC" points="8.3,12.8 8.4,12.9 9,12.9 9.1,12.8 9.1,12.2 9,12.1 8.4,12.1 8.3,12.2 8.3,12.8 	"/>
	<polygon fill="#A7A9AC" points="7.3,12.8 7.4,12.9 8,12.9 8.1,12.8 8.1,12.2 8,12.1 7.4,12.1 7.3,12.2 7.3,12.8 	"/>
	<polygon fill="#A7A9AC" points="12.4,12.8 12.5,12.9 15.1,12.9 15.2,12.8 15.2,12.3 15.1,12.1 12.5,12.1 12.4,12.3 12.4,12.8 	"/>
	<polygon fill="#FED3A8" points="8.4,16 10,13.5 10,11.4 10.2,10.9 11.6,9.9 12.1,10 12,10.5 11.6,10.9 11.4,12.1 11.7,10.9 
		12.2,10.3 12.4,10.4 12.5,11.1 12.4,11.7 12.2,12.9 12,13.5 11.4,14.1 9.9,16.8 8.4,16 	"/>
	<polygon fill="#FCF4DA" points="12.4,11 11.9,10.8 12.2,10.5 12.3,10.5 12.4,11 	"/>
	<polygon fill="#FBB992" points="8.8,16.2 10.5,13.4 10.7,11.3 11.2,10.2 10.5,11.2 10,13.5 8.4,16 8.8,16.2 	"/>
	<polygon fill="#FBB992" points="11.5,11.7 11.4,12.9 11.4,12 11.5,11.7 	"/>
	<polygon fill="#FED3A8" points="19.4,16 17.8,13.5 17.7,11.4 17.5,10.9 16.1,9.9 15.7,10 15.8,10.5 16.2,10.9 16.3,12.1 16,10.9 
		15.6,10.3 15.3,10.4 15.3,11.1 15.4,11.7 15.5,12.9 15.7,13.5 16.4,14.1 17.9,16.8 19.4,16 	"/>
	<polygon fill="#FCF4DA" points="15.4,11 15.8,10.8 15.6,10.5 15.4,10.5 15.4,11 	"/>
	<polygon fill="#FBB992" points="19,16.2 17.3,13.4 17.1,11.3 16.5,10.2 17.2,11.2 17.8,13.5 19.4,16 19,16.2 	"/>
	<polygon fill="#FBB992" points="16.2,11.7 16.4,12.9 16.4,12 16.2,11.7 	"/>
	<polygon fill="#D1D3D4" points="8.6,14.9 9.1,14.3 10.8,15.7 10.5,16.2 8.6,14.9 	"/>
	<polygon fill="#D1D3D4" points="19.1,14.9 18.6,14.4 16.9,15.7 17.2,16.2 19.1,14.9 	"/>
	<path fill="#414042" d="M13.8,31.8l-5.6-2L6.1,26c0,0-0.6-3.4-0.2-5.8l2.7-5.5l1.9,1.5L9,20.4l4.8,0v0h0v0l4.8,0l-1.6-4.2l1.9-1.5
		l2.7,5.5c0.5,2.4-0.2,5.8-0.2,5.8l-2.1,3.7L13.8,31.8L13.8,31.8L13.8,31.8z"/>
	<polygon fill="#A7A9AC" points="15.3,24.9 13.8,20.4 12.3,24.9 15.3,24.9 	"/>
	<polygon fill="#FED3A8" points="10.4,29.8 9.4,29.6 9.5,28.6 10.4,27.7 10.4,29.8 	"/>
	<polygon fill="#FED3A8" points="13.8,32.8 11.1,32.3 9.9,29.1 11,25.6 13.8,23.8 13.8,32.8 	"/>
	<polygon fill="#A06939" points="13.8,34.6 10.1,33.2 9.7,29.7 10.5,27.7 11.3,27.6 11.5,26.1 13.8,26.6 13.8,34.6 	"/>
	<polygon fill="#FBB992" points="17.2,29.8 18.2,29.6 18.1,28.6 17.2,27.7 17.2,29.8 	"/>
	<polygon fill="#FBB992" points="13.8,32.8 16.5,32.3 17.7,29.1 16.7,25.6 13.8,23.8 13.8,32.8 	"/>
	<polygon fill="#7F492A" points="13.8,34.6 17.5,33.2 17.9,29.7 17.2,27.7 16.3,27.6 15.8,26.5 13.8,25.7 13.8,34.6 	"/>
</g>
</svg>
