<?xml version="1.0" encoding="utf-8"?>
<!-- Generator: Adobe Illustrator 18.1.1, SVG Export Plug-In . SVG Version: 6.00 Build 0)  -->
<svg version="1.1" id="Layer_1" xmlns="http://www.w3.org/2000/svg" xmlns:xlink="http://www.w3.org/1999/xlink" x="0px" y="0px"
	 viewBox="0 0 22.5 23.5" enable-background="new 0 0 22.5 23.5" xml:space="preserve">
<g>
	
		<path fill-rule="evenodd" clip-rule="evenodd" fill="#00BFFF" stroke="#00BFFF" stroke-width="0.4203" stroke-linecap="round" stroke-linejoin="round" stroke-miterlimit="22.9256" d="
		M11.3,1.3c6,0,10.9,4.9,10.9,10.9c0,6-4.9,10.9-10.9,10.9c-6,0-10.9-4.9-10.9-10.9C0.4,6.2,5.3,1.3,11.3,1.3L11.3,1.3z"/>
	
		<path fill="none" stroke="#FFFFFF" stroke-width="0.3322" stroke-linecap="round" stroke-linejoin="round" stroke-miterlimit="22.9256" d="
		M11.7,15.1h1.7 M9.3,12.4h4.1 M9.3,11h4.1 M9.3,9.7h4.1 M9.3,8.3h4.1 M7.8,6.6h7.2v10.3H7.8V6.6L7.8,6.6z"/>
	
		<path fill-rule="evenodd" clip-rule="evenodd" fill="#FFFFFF" stroke="#00BFFF" stroke-width="0.4204" stroke-linecap="round" stroke-linejoin="round" stroke-miterlimit="22.9256" d="
		M5.2,0.4c1.6,0,2.8,1.3,2.8,2.8C8.1,4.8,6.8,6,5.2,6C3.7,6,2.4,4.8,2.4,3.2C2.4,1.6,3.7,0.4,5.2,0.4L5.2,0.4z"/>
	<path fill="#00BFFF" d="M4.2,4.7c0.1,0,0.2,0.1,0.3,0.1c0.1,0,0.2,0,0.3,0.1c0.1,0,0.2,0,0.3,0c0.2,0,0.4,0,0.6-0.1
		C5.9,4.8,6,4.7,6.1,4.6c0.1-0.1,0.2-0.2,0.2-0.3c0.1-0.1,0.1-0.2,0.1-0.4c0-0.1,0-0.2-0.1-0.3c0-0.1-0.1-0.2-0.2-0.2
		C6.1,3.3,6,3.2,5.8,3.2v0C6,3.1,6.1,3,6.2,2.9c0.1-0.1,0.1-0.3,0.1-0.4c0-0.1,0-0.2-0.1-0.3c0-0.1-0.1-0.2-0.2-0.3
		C6,1.8,5.9,1.8,5.7,1.7c-0.1,0-0.3-0.1-0.5-0.1c-0.1,0-0.3,0-0.4,0c-0.1,0-0.2,0.1-0.3,0.1c-0.1,0-0.2,0.1-0.3,0.1l0.2,0.4
		c0.1,0,0.2-0.1,0.2-0.1c0.1,0,0.2-0.1,0.3-0.1c0.1,0,0.2,0,0.3,0c0.1,0,0.2,0,0.3,0.1c0.1,0,0.1,0.1,0.2,0.1c0,0.1,0.1,0.1,0.1,0.2
		c0,0.2-0.1,0.3-0.2,0.3C5.4,3,5.2,3,5,3H4.7v0.5h0.4c0.1,0,0.2,0,0.2,0c0.1,0,0.1,0,0.2,0c0.1,0,0.2,0.1,0.3,0.1
		c0.1,0.1,0.1,0.2,0.1,0.3c0,0.2-0.1,0.3-0.2,0.4C5.5,4.4,5.3,4.4,5.1,4.4c-0.1,0-0.1,0-0.2,0c-0.1,0-0.2,0-0.2,0
		c-0.1,0-0.2-0.1-0.2-0.1L4.2,4.7L4.2,4.7z"/>
</g>
</svg>
