<?xml version="1.0" encoding="utf-8"?>
<!-- Generator: Adobe Illustrator 19.1.1, SVG Export Plug-In . SVG Version: 6.00 Build 0)  -->
<svg version="1.1" id="Слой_1" xmlns="http://www.w3.org/2000/svg" xmlns:xlink="http://www.w3.org/1999/xlink" x="0px" y="0px"
	 viewBox="0 0 22.8 22.6" style="enable-background:new 0 0 22.8 22.6;" xml:space="preserve">
<style type="text/css">
	.st0{fill:none;stroke:#FFFFFF;stroke-width:0.3771;stroke-linecap:round;stroke-linejoin:round;stroke-miterlimit:22.9256;}
	.st1{fill:none;stroke:#FFFFFF;stroke-width:0.4373;stroke-linecap:round;stroke-linejoin:round;stroke-miterlimit:22.9256;}
	.st2{fill:none;stroke:#FFFFFF;stroke-width:0.377;stroke-linecap:round;stroke-linejoin:round;stroke-miterlimit:22.9256;}
</style>
<g>
	<path class="st0" d="M18.7,12.9l-0.7-2l1.1-0.4l-2.7-3.2l0,4.1l1.1-0.4l0.7,2L18.7,12.9L18.7,12.9z M16.6,4.9v1.8 M18.5,5.7L17.3,7
		 M19.4,7.7h-1.8 M14.6,5.7L15.9,7 M13.8,7.7h1.8 M14.7,9.6l1.3-1.3"/>
	<path class="st1" d="M11.4,0.4c6,0,10.9,4.9,10.9,10.9c0,6-4.9,10.9-10.9,10.9S0.5,17.3,0.5,11.3C0.5,5.3,5.4,0.4,11.4,0.4
		L11.4,0.4z"/>
	<path class="st2" d="M4.2,15.8h1.9v-3.6H4.2V15.8L4.2,15.8z M7.6,15.8h1.9v-5.4H7.6V15.8L7.6,15.8z M10.9,15.8h1.9V8.6h-1.9V15.8
		L10.9,15.8z M14.3,15.8h1.9 M16.2,15.8v-3.7 M14.3,10.3v5.5"/>
</g>
</svg>
