<?xml version="1.0" encoding="utf-8"?>
<!-- Generator: Adobe Illustrator 18.1.1, SVG Export Plug-In . SVG Version: 6.00 Build 0)  -->
<svg version="1.1" id="Layer_1" xmlns="http://www.w3.org/2000/svg" xmlns:xlink="http://www.w3.org/1999/xlink" x="0px" y="0px"
	 viewBox="0 0 22.4 23.3" enable-background="new 0 0 22.4 23.3" xml:space="preserve">
<g>
	
		<path fill="none" stroke="#333333" stroke-width="0.4204" stroke-linecap="round" stroke-linejoin="round" stroke-miterlimit="22.9256" d="
		M11.2,1.2c6,0,10.9,4.9,10.9,10.9c0,6-4.9,10.9-10.9,10.9c-6,0-10.9-4.9-10.9-10.9c0-2.6,0.9-5,2.5-6.9C3.3,5.7,4,5.9,4.7,5.9
		c1.6,0,2.8-1.3,2.8-2.8c0-0.4-0.1-0.8-0.2-1.1C8.5,1.5,9.8,1.2,11.2,1.2L11.2,1.2z"/>
	
		<path fill="none" stroke="#333333" stroke-width="0.3322" stroke-linecap="round" stroke-linejoin="round" stroke-miterlimit="22.9256" d="
		M12.3,11.7l0.3-2C12.7,8.8,12.9,7.9,13,7c0,0-0.1,0-0.1,0c0,0-0.1,0-0.1,0c-0.4,0.8-0.8,1.6-1.3,2.4l-1,1.8
		c-0.2,0.1-0.3,0.3-0.4,0.6c-0.2,0.6,0.1,1.2,0.7,1.4c0.6,0.2,1.2-0.1,1.4-0.7C12.3,12.2,12.3,11.9,12.3,11.7L12.3,11.7z M4,12.1
		c0-4,3.3-7.3,7.3-7.3c4,0,7.3,3.3,7.3,7.3 M18.5,12.1h-5.4 M9.4,12.1H4 M15.9,9.4l1-0.6 M13.9,7.5l0.6-1 M11.2,6.7V5.5 M6.6,9.4
		l-1-0.6 M8.6,7.5L8,6.4"/>
	
		<path fill="none" stroke="#333333" stroke-width="0.4204" stroke-linecap="round" stroke-linejoin="round" stroke-miterlimit="22.9256" d="
		M4.7,0.3c1.6,0,2.8,1.3,2.8,2.8c0,1.6-1.3,2.8-2.8,2.8S1.9,4.7,1.9,3.1C1.9,1.5,3.1,0.3,4.7,0.3L4.7,0.3z"/>
	<path fill="#333333" d="M3.6,4.8h2.2V4.3H4.4C4.4,4.1,4.5,4,4.5,4c0.1-0.1,0.1-0.2,0.2-0.3C4.9,3.6,4.9,3.5,5,3.5
		c0.1-0.1,0.2-0.1,0.3-0.2C5.4,3.2,5.5,3.1,5.6,3c0.1-0.1,0.1-0.2,0.2-0.3c0-0.1,0.1-0.2,0.1-0.3c0-0.1,0-0.2-0.1-0.3
		c0-0.1-0.1-0.2-0.2-0.3C5.5,1.7,5.4,1.6,5.3,1.6C5.1,1.6,5,1.5,4.8,1.5c-0.1,0-0.3,0-0.4,0C4.3,1.6,4.2,1.6,4,1.7
		c-0.1,0-0.2,0.1-0.3,0.1l0.2,0.4c0.1,0,0.2-0.1,0.2-0.1c0.1,0,0.2-0.1,0.3-0.1c0.1,0,0.2,0,0.3,0c0.1,0,0.1,0,0.2,0
		c0.1,0,0.1,0,0.2,0.1c0,0,0.1,0.1,0.1,0.1c0,0.1,0,0.1,0,0.2c0,0.1,0,0.2-0.1,0.3C5.1,2.8,5,2.8,4.9,2.9C4.8,3,4.7,3.1,4.6,3.1
		C4.5,3.2,4.4,3.3,4.3,3.4C4.2,3.5,4.1,3.6,4,3.7C3.9,3.8,3.8,4,3.8,4.2C3.7,4.3,3.7,4.5,3.6,4.8L3.6,4.8z"/>
</g>
</svg>
