<?xml version="1.0" encoding="utf-8"?>
<!-- Generator: Adobe Illustrator 19.1.1, SVG Export Plug-In . SVG Version: 6.00 Build 0)  -->
<svg version="1.1" id="Слой_1" xmlns="http://www.w3.org/2000/svg" xmlns:xlink="http://www.w3.org/1999/xlink" x="0px" y="0px"
	 viewBox="0 0 23 23" style="enable-background:new 0 0 23 23;" xml:space="preserve">
<style type="text/css">
	.st0{fill:none;stroke:#333333;stroke-width:0.4373;stroke-linecap:round;stroke-linejoin:round;stroke-miterlimit:22.9256;}
	.st1{fill:none;stroke:#333333;stroke-width:0.317;stroke-linecap:round;stroke-linejoin:round;stroke-miterlimit:22.9256;}
	.st2{fill:none;stroke:#333333;stroke-width:0.3455;stroke-linecap:round;stroke-linejoin:round;stroke-miterlimit:22.9256;}
	.st3{fill:none;stroke:#333333;stroke-width:0.3672;stroke-linecap:round;stroke-linejoin:round;stroke-miterlimit:22.9256;}
</style>
<g>
	<path class="st0" d="M11.5,0.6c6,0,10.9,4.9,10.9,10.9s-4.9,10.9-10.9,10.9c-6,0-10.9-4.9-10.9-10.9S5.5,0.6,11.5,0.6L11.5,0.6z"/>
	<path class="st1" d="M5.4,10.3c0.4,0,0.8,0.3,0.8,0.8c0,0.4-0.3,0.8-0.8,0.8s-0.8-0.3-0.8-0.8C4.6,10.7,5,10.3,5.4,10.3L5.4,10.3z
		 M6.4,12.8v1.5v0.3v2.3H5.7c0-0.8,0-1.5,0-2.3c-0.1-0.1-0.2-0.1-0.3-0.1c-0.1,0-0.2,0-0.3,0.1v2.3H4.5v-2.3v-0.3v-1.4 M6.4,14.4
		c0.5,0,0.6-0.3,0.6-0.7v-1.1c0-0.4-0.2-0.5-0.6-0.5 M4.5,12.1c0,0,0.3,0.4,0.9,0.4c0.6,0,1-0.4,1-0.4 M4.5,14.4
		c-0.5,0-0.6-0.3-0.6-0.7v-1.1c0-0.4,0.2-0.5,0.6-0.5"/>
	<path class="st2" d="M10.5,8.5c0.5,0,1,0.4,1,1c0,0.5-0.4,1-1,1c-0.5,0-1-0.4-1-1C9.5,9,10,8.5,10.5,8.5L10.5,8.5z M11.8,11.7v2V14
		v2.9h-0.8c0-1,0-1.9,0-2.9c-0.1-0.1-0.2-0.2-0.3-0.2c-0.1,0-0.3,0-0.4,0.2v2.9H9.4V14v-0.4v-1.8 M11.8,13.7c0.7,0,0.7-0.4,0.7-0.8
		v-1.4c0-0.5-0.3-0.7-0.8-0.7 M9.4,10.7c0,0,0.3,0.6,1.2,0.6c0.8,0,1.2-0.6,1.2-0.6 M9.3,13.7c-0.7,0-0.7-0.4-0.7-0.8v-1.4
		c0-0.5,0.3-0.7,0.8-0.7"/>
	<path class="st3" d="M16.5,5.8c0.7,0,1.3,0.6,1.3,1.3s-0.6,1.3-1.3,1.3c-0.7,0-1.3-0.6-1.3-1.3S15.8,5.8,16.5,5.8L16.5,5.8z
		 M18.1,10v2.6V13v3.9H17c0-1.3,0-2.6,0-3.9c-0.1-0.2-0.3-0.2-0.4-0.2c-0.2,0-0.4,0-0.5,0.2v3.8h-1.1V13v-0.5v-2.4 M18.2,12.6
		c0.9,0,1-0.5,1-1.1V9.6c0-0.7-0.4-0.9-1-0.9 M15,8.7c0,0,0.5,0.8,1.5,0.8c1.1,0,1.6-0.8,1.6-0.8 M14.9,12.6c-0.9,0-1-0.5-1-1.1V9.6
		c0-0.7,0.4-0.9,1-0.9"/>
</g>
</svg>
