<?xml version="1.0" encoding="utf-8"?>
<!-- Generator: Adobe Illustrator 19.1.1, SVG Export Plug-In . SVG Version: 6.00 Build 0)  -->
<svg version="1.1" id="Слой_1" xmlns="http://www.w3.org/2000/svg" xmlns:xlink="http://www.w3.org/1999/xlink" x="0px" y="0px"
	 viewBox="0 0 22.8 22.6" style="enable-background:new 0 0 22.8 22.6;" xml:space="preserve">
<style type="text/css">
	.st0{fill:none;stroke:#333333;stroke-width:0.4373;stroke-linecap:round;stroke-linejoin:round;stroke-miterlimit:22.9256;}
	.st1{fill:none;stroke:#333333;stroke-width:0.3672;stroke-linecap:round;stroke-linejoin:round;stroke-miterlimit:22.9256;}
	.st2{fill:none;stroke:#333333;stroke-width:0.3668;stroke-linecap:round;stroke-linejoin:round;stroke-miterlimit:22.9256;}
	.st3{fill:none;stroke:#333333;stroke-width:0.3669;stroke-linecap:round;stroke-linejoin:round;stroke-miterlimit:22.9256;}
</style>
<g>
	<path class="st0" d="M11.4,0.5c6,0,10.9,4.9,10.9,10.9s-4.9,10.9-10.9,10.9S0.5,17.4,0.5,11.4S5.4,0.5,11.4,0.5L11.4,0.5z"/>
	<path class="st1" d="M4.6,6.3h13.5c0.3,0,0.6,0.2,0.6,0.6v8H4.1v-8C4.1,6.6,4.3,6.3,4.6,6.3L4.6,6.3z"/>
	<path class="st2" d="M4.7,6.3h13.3c0.4,0,0.7,0.3,0.7,0.7v8.8c0,0.4-0.3,0.7-0.7,0.7H4.7c-0.4,0-0.7-0.3-0.7-0.7V7
		C4.1,6.6,4.4,6.3,4.7,6.3L4.7,6.3z"/>
	<path class="st3" d="M9,16.4c0.8,0,1.6,0,2.3,0c0.8,0,1.6,0,2.3,0c0.1,0.3,0.3,0.5,0.4,0.8c0.1,0.3,0.3,0.5,0.4,0.8
		c-1.1,0-2.1,0-3.2,0c-1.1,0-2.1,0-3.2,0c0.1-0.3,0.3-0.5,0.4-0.8C8.8,16.9,8.9,16.7,9,16.4L9,16.4z"/>
	<path class="st1" d="M6.9,14.9h1.4v-2.7H6.9V14.9L6.9,14.9z M9.4,14.9h1.4v-4H9.4V14.9L9.4,14.9z M11.9,14.9h1.4V9.5h-1.4V14.9
		L11.9,14.9z M14.4,14.9h1.4V7.7h-1.4V14.9L14.4,14.9z"/>
</g>
</svg>
