<?xml version="1.0" encoding="utf-8"?>
<!-- Generator: Adobe Illustrator 18.1.1, SVG Export Plug-In . SVG Version: 6.00 Build 0)  -->
<svg version="1.1" id="Layer_1" xmlns="http://www.w3.org/2000/svg" xmlns:xlink="http://www.w3.org/1999/xlink" x="0px" y="0px"
	 viewBox="0 0 22.6 23.6" enable-background="new 0 0 22.6 23.6" xml:space="preserve">
<g>
	
		<path fill-rule="evenodd" clip-rule="evenodd" fill="#00BFFF" stroke="#00BFFF" stroke-width="0.4203" stroke-linecap="round" stroke-linejoin="round" stroke-miterlimit="22.9256" d="
		M11.3,1.4c6,0,10.9,4.9,10.9,10.9c0,6-4.9,10.9-10.9,10.9c-6,0-10.9-4.9-10.9-10.9C0.4,6.3,5.3,1.4,11.3,1.4L11.3,1.4z"/>
	
		<path fill-rule="evenodd" clip-rule="evenodd" fill="#FFFFFF" stroke="#00BFFF" stroke-width="0.4204" stroke-linecap="round" stroke-linejoin="round" stroke-miterlimit="22.9256" d="
		M5.2,0.5c1.6,0,2.8,1.3,2.8,2.8c0,1.6-1.3,2.8-2.8,2.8c-1.6,0-2.8-1.3-2.8-2.8C2.4,1.7,3.7,0.5,5.2,0.5L5.2,0.5z"/>
	<path fill="#00BFFF" d="M5.2,5c0.2,0,0.3,0,0.4-0.1c0.1,0,0.3-0.1,0.3-0.2c0.1-0.1,0.2-0.2,0.2-0.3c0.1-0.1,0.1-0.3,0.1-0.5
		c0-0.2,0-0.3-0.1-0.4c0-0.1-0.1-0.2-0.2-0.3C5.9,3.1,5.8,3,5.7,3c-0.1,0-0.2-0.1-0.4-0.1c-0.1,0-0.2,0-0.3,0C5,3,4.9,3,4.8,3
		c-0.1,0-0.1,0.1-0.2,0.1c0-0.2,0.1-0.4,0.2-0.5C4.8,2.5,4.9,2.4,5,2.3c0.1-0.1,0.3-0.1,0.4-0.1c0.1,0,0.2,0,0.3,0
		c0.1,0,0.2,0.1,0.3,0.1l0.1-0.4C6,1.8,5.9,1.8,5.8,1.8c-0.1,0-0.2,0-0.3,0c-0.2,0-0.3,0-0.5,0.1C4.8,1.9,4.6,2,4.5,2.1
		C4.4,2.2,4.3,2.3,4.2,2.4C4.1,2.6,4.1,2.8,4,2.9C4,3.1,4,3.3,4,3.5C4,3.7,4,4,4.1,4.2c0.1,0.2,0.1,0.3,0.3,0.5
		c0.1,0.1,0.2,0.2,0.4,0.3C4.9,5,5,5,5.2,5L5.2,5z M5.2,4.5c-0.1,0-0.2,0-0.3-0.1C4.8,4.4,4.7,4.2,4.7,4.1C4.6,4,4.6,3.8,4.6,3.6
		c0,0,0.1-0.1,0.2-0.1c0.1,0,0.1-0.1,0.2-0.1c0.1,0,0.1,0,0.2,0c0.1,0,0.2,0,0.3,0.1c0.1,0,0.1,0.1,0.2,0.2c0,0.1,0.1,0.2,0.1,0.3
		c0,0.1,0,0.2-0.1,0.3c0,0.1-0.1,0.1-0.2,0.2C5.4,4.5,5.3,4.5,5.2,4.5L5.2,4.5z"/>
	
		<path fill="none" stroke="#FFFFFF" stroke-width="0.3238" stroke-linecap="round" stroke-linejoin="round" stroke-miterlimit="22.9256" d="
		M12.2,18.5v-2.4 M12.2,10.4V8.6 M12.2,8.6h1.7l-2.6-4.2L8.8,8.6h1.7 M10.4,8.6v1.7 M10.4,16.2l0,2.3 M10.4,18.5h1.8 M11,15.5h0.5
		v-0.6c0.2,0,0.4-0.1,0.5-0.2c0.1-0.1,0.3-0.2,0.3-0.3c0.1-0.1,0.1-0.3,0.1-0.5c0-0.2,0-0.3-0.1-0.4c-0.1-0.1-0.1-0.2-0.2-0.3
		c-0.1-0.1-0.2-0.2-0.3-0.2c-0.1-0.1-0.2-0.1-0.3-0.2c-0.1-0.1-0.2-0.1-0.3-0.2c-0.1-0.1-0.2-0.1-0.2-0.2c-0.1-0.1-0.1-0.1-0.1-0.2
		c0-0.1,0-0.2,0.1-0.2c0.1-0.1,0.2-0.1,0.3-0.1c0.1,0,0.2,0,0.3,0c0.1,0,0.2,0,0.3,0.1s0.2,0.1,0.3,0.1v-0.6c-0.1,0-0.2-0.1-0.3-0.1
		c-0.1,0-0.2-0.1-0.4-0.1v-0.5h-0.5v0.6c-0.1,0-0.3,0.1-0.4,0.1c-0.1,0.1-0.2,0.1-0.3,0.2c-0.1,0.1-0.1,0.2-0.2,0.3
		c0,0.1-0.1,0.2-0.1,0.3c0,0.2,0,0.3,0.1,0.4c0.1,0.1,0.1,0.2,0.2,0.3c0.1,0.1,0.2,0.2,0.3,0.2c0.1,0.1,0.2,0.1,0.3,0.2
		c0.1,0.1,0.2,0.1,0.3,0.2c0.1,0.1,0.2,0.1,0.2,0.2c0.1,0.1,0.1,0.1,0.1,0.2c0,0.1,0,0.2-0.1,0.2c0,0.1-0.1,0.1-0.2,0.1
		s-0.2,0-0.3,0c-0.1,0-0.2,0-0.3,0c-0.1,0-0.2-0.1-0.3-0.1c-0.1,0-0.2-0.1-0.2-0.1l-0.3,0.6c0.1,0,0.2,0.1,0.2,0.1
		c0.1,0,0.2,0.1,0.3,0.1c0.1,0,0.2,0.1,0.3,0.1V15.5L11,15.5z M15.3,18.5h1.1 M15.3,12.7V16v2.5 M16.3,12.7h1l-1.5-2.5l-1.5,2.5h1
		 M16.3,18.5V16v-3.3 M6.3,18.5h1.1 M6.3,12.7V16v2.5 M7.3,12.7h1l-1.5-2.5l-1.5,2.5h1 M7.3,18.5V16v-3.3"/>
</g>
</svg>
