<?xml version="1.0" encoding="utf-8"?>
<!-- Generator: Adobe Illustrator 18.1.1, SVG Export Plug-In . SVG Version: 6.00 Build 0)  -->
<svg version="1.1" id="Layer_1" xmlns="http://www.w3.org/2000/svg" xmlns:xlink="http://www.w3.org/1999/xlink" x="0px" y="0px"
	 viewBox="0 0 22.7 23.4" enable-background="new 0 0 22.7 23.4" xml:space="preserve">
<g>
	
		<path fill="none" stroke="#333333" stroke-width="0.4204" stroke-linecap="round" stroke-linejoin="round" stroke-miterlimit="22.9256" d="
		M11.4,1.3c6,0,10.9,4.9,10.9,10.9c0,6-4.9,10.9-10.9,10.9c-6,0-10.9-4.9-10.9-10.9c0-2.7,1-5.3,2.7-7.2c0.5,0.6,1.3,1,2.1,1
		c1.6,0,2.8-1.3,2.8-2.8c0-0.5-0.1-0.9-0.3-1.3C9,1.5,10.2,1.3,11.4,1.3L11.4,1.3z"/>
	
		<path fill="none" stroke="#333333" stroke-width="0.4204" stroke-linecap="round" stroke-linejoin="round" stroke-miterlimit="22.9256" d="
		M5.4,0.3c1.6,0,2.8,1.3,2.8,2.8C8.2,4.7,6.9,6,5.4,6C3.8,6,2.5,4.7,2.5,3.2C2.5,1.6,3.8,0.3,5.4,0.3L5.4,0.3z"/>
	<path fill="#333333" d="M5.3,4.9c0.2,0,0.3,0,0.4-0.1c0.1,0,0.3-0.1,0.3-0.2c0.1-0.1,0.2-0.2,0.2-0.3c0.1-0.1,0.1-0.3,0.1-0.5
		c0-0.2,0-0.3-0.1-0.4c0-0.1-0.1-0.2-0.2-0.3C6,3,5.9,2.9,5.8,2.8c-0.1,0-0.2-0.1-0.4-0.1c-0.1,0-0.2,0-0.3,0c-0.1,0-0.2,0-0.3,0.1
		C4.8,2.9,4.8,3,4.7,3c0-0.2,0.1-0.4,0.2-0.5C5,2.3,5.1,2.2,5.2,2.2c0.1-0.1,0.3-0.1,0.4-0.1c0.1,0,0.2,0,0.3,0
		c0.1,0,0.2,0.1,0.3,0.1l0.1-0.4C6.1,1.7,6,1.7,5.9,1.6c-0.1,0-0.2,0-0.3,0c-0.2,0-0.3,0-0.5,0.1C4.9,1.8,4.8,1.8,4.6,1.9
		C4.5,2,4.4,2.2,4.4,2.3C4.3,2.5,4.2,2.6,4.2,2.8c0,0.2-0.1,0.4-0.1,0.6c0,0.3,0,0.5,0.1,0.7c0.1,0.2,0.1,0.3,0.3,0.5
		c0.1,0.1,0.2,0.2,0.4,0.3C5,4.8,5.1,4.9,5.3,4.9L5.3,4.9z M5.3,4.4c-0.1,0-0.2,0-0.3-0.1C4.9,4.2,4.9,4.1,4.8,4
		C4.8,3.8,4.7,3.7,4.7,3.5c0,0,0.1-0.1,0.2-0.1c0.1,0,0.1-0.1,0.2-0.1c0.1,0,0.1,0,0.2,0c0.1,0,0.2,0,0.3,0.1c0.1,0,0.1,0.1,0.2,0.2
		c0,0.1,0.1,0.2,0.1,0.3c0,0.1,0,0.2-0.1,0.3c0,0.1-0.1,0.1-0.2,0.2C5.5,4.4,5.4,4.4,5.3,4.4L5.3,4.4z"/>
	
		<path fill="none" stroke="#333333" stroke-width="0.3238" stroke-linecap="round" stroke-linejoin="round" stroke-miterlimit="22.9256" d="
		M12.3,18.4V16 M12.3,10.2V8.5 M12.3,8.5H14l-2.6-4.2L8.9,8.5h1.7 M10.6,8.5v1.7 M10.6,16.1l0,2.3 M10.6,18.4h1.8 M11.1,15.4h0.5
		v-0.6c0.2,0,0.4-0.1,0.5-0.2c0.1-0.1,0.3-0.2,0.3-0.3c0.1-0.1,0.1-0.3,0.1-0.5c0-0.2,0-0.3-0.1-0.4c-0.1-0.1-0.1-0.2-0.2-0.3
		c-0.1-0.1-0.2-0.2-0.3-0.2c-0.1-0.1-0.2-0.1-0.3-0.2c-0.1-0.1-0.2-0.1-0.3-0.2c-0.1-0.1-0.2-0.1-0.2-0.2c-0.1-0.1-0.1-0.1-0.1-0.2
		c0-0.1,0-0.2,0.1-0.2c0.1-0.1,0.2-0.1,0.3-0.1c0.1,0,0.2,0,0.3,0c0.1,0,0.2,0,0.3,0.1c0.1,0,0.2,0.1,0.3,0.1v-0.6
		c-0.1,0-0.2-0.1-0.3-0.1c-0.1,0-0.2-0.1-0.4-0.1v-0.5h-0.5v0.6c-0.1,0-0.3,0.1-0.4,0.1c-0.1,0.1-0.2,0.1-0.3,0.2
		c-0.1,0.1-0.1,0.2-0.2,0.3c0,0.1-0.1,0.2-0.1,0.3c0,0.2,0,0.3,0.1,0.4c0.1,0.1,0.1,0.2,0.2,0.3c0.1,0.1,0.2,0.2,0.3,0.2
		c0.1,0.1,0.2,0.1,0.3,0.2c0.1,0.1,0.2,0.1,0.3,0.2c0.1,0.1,0.2,0.1,0.2,0.2c0.1,0.1,0.1,0.1,0.1,0.2c0,0.1,0,0.2-0.1,0.2
		c0,0.1-0.1,0.1-0.2,0.1c-0.1,0-0.2,0-0.3,0c-0.1,0-0.2,0-0.3,0c-0.1,0-0.2-0.1-0.3-0.1c-0.1,0-0.2-0.1-0.2-0.1l-0.3,0.6
		c0.1,0,0.2,0.1,0.2,0.1c0.1,0,0.2,0.1,0.3,0.1c0.1,0,0.2,0.1,0.3,0.1V15.4L11.1,15.4z M15.4,18.4h1.1 M15.4,12.5v3.3v2.5
		 M16.5,12.5h1L15.9,10l-1.5,2.5h1 M16.5,18.4v-2.5v-3.3 M6.4,18.4h1.1 M6.4,12.5v3.3v2.5 M7.4,12.5h1L6.9,10l-1.5,2.5h1 M7.4,18.4
		v-2.5v-3.3"/>
</g>
</svg>
