<?xml version="1.0" encoding="utf-8"?>
<!-- Generator: Adobe Illustrator 18.1.1, SVG Export Plug-In . SVG Version: 6.00 Build 0)  -->
<svg version="1.1" id="Layer_1" xmlns="http://www.w3.org/2000/svg" xmlns:xlink="http://www.w3.org/1999/xlink" x="0px" y="0px"
	 viewBox="0 0 22.5 23.4" enable-background="new 0 0 22.5 23.4" xml:space="preserve">
<g>
	
		<path fill="none" stroke="#333333" stroke-width="0.4204" stroke-linecap="round" stroke-linejoin="round" stroke-miterlimit="22.9256" d="
		M11.2,1.3c6,0,10.9,4.9,10.9,10.9c0,6-4.9,10.9-10.9,10.9c-6,0-10.9-4.9-10.9-10.9c0-2.7,1-5.2,2.7-7.2c0.5,0.6,1.3,1,2.1,1
		c1.6,0,2.8-1.3,2.8-2.8c0-0.5-0.1-0.9-0.3-1.3C8.8,1.6,10,1.3,11.2,1.3L11.2,1.3z"/>
	
		<path fill="none" stroke="#333333" stroke-width="0.4204" stroke-linecap="round" stroke-linejoin="round" stroke-miterlimit="22.9256" d="
		M5.1,0.4c1.6,0,2.8,1.3,2.8,2.8c0,1.6-1.3,2.8-2.8,2.8S2.3,4.8,2.3,3.2C2.3,1.7,3.6,0.4,5.1,0.4L5.1,0.4z"/>
	<path fill="#333333" d="M3.8,4.1h1.4v0.8h0.6V4.1h0.5V3.6H5.8v-2H5.4l-1.6,2V4.1L3.8,4.1z M4.4,3.6l0.8-1.1c0,0,0,0.1,0,0.1
		c0,0.1,0,0.1,0,0.2c0,0.1,0,0.2,0,0.3v0.5H4.8c0,0-0.1,0-0.1,0c0,0-0.1,0-0.1,0C4.6,3.6,4.5,3.6,4.4,3.6C4.5,3.6,4.5,3.6,4.4,3.6
		L4.4,3.6z"/>
	
		<path fill="none" stroke="#333333" stroke-width="0.3322" stroke-linecap="round" stroke-linejoin="round" stroke-miterlimit="22.9256" d="
		M4.7,10.5l3.6-3.6l2-0.4l-0.4,2L9,9.4l7.3,7.3L15,17.9l-7.3-7.3l-1.4,1.4L4.7,10.5L4.7,10.5z M12.8,12.4l1.3-1.3
		c0.7,0.4,1.6,0.3,2.1-0.3c0.5-0.5,0.7-1.4,0.4-2l-1.3,1.3l-0.9-0.9l1.3-1.3c-0.7-0.3-1.5-0.2-2.1,0.3c-0.6,0.6-0.7,1.4-0.3,2.1
		L12,11.6 M10,13.6l-0.9,0.9c-0.7-0.4-1.6-0.3-2.1,0.3c-0.6,0.6-0.7,1.4-0.3,2.1L8,15.5l0.9,0.9l-1.3,1.3c0.7,0.3,1.5,0.2,2-0.4
		c0.6-0.6,0.7-1.4,0.3-2.1l0.9-0.9"/>
</g>
</svg>
