<?xml version="1.0" encoding="utf-8"?>
<!-- Generator: Adobe Illustrator 18.1.1, SVG Export Plug-In . SVG Version: 6.00 Build 0)  -->
<svg version="1.1" id="Layer_1" xmlns="http://www.w3.org/2000/svg" xmlns:xlink="http://www.w3.org/1999/xlink" x="0px" y="0px"
	 viewBox="0 0 22.7 23.4" enable-background="new 0 0 22.7 23.4" xml:space="preserve">
<g>
	
		<path fill="none" stroke="#333333" stroke-width="0.4204" stroke-linecap="round" stroke-linejoin="round" stroke-miterlimit="22.9256" d="
		M11.4,1.3c6,0,10.9,4.9,10.9,10.9c0,6-4.9,10.9-10.9,10.9c-6,0-10.9-4.9-10.9-10.9c0-2.7,1-5.2,2.7-7.2c0.5,0.6,1.3,1,2.1,1
		c1.6,0,2.8-1.3,2.8-2.8c0-0.5-0.1-0.9-0.3-1.3C8.9,1.5,10.1,1.3,11.4,1.3L11.4,1.3z"/>
	<path fill="#333333" d="M8.3,10.5c0.5-0.2,1-0.4,1.5-0.6c0.5-0.2,1-0.4,1.5-0.6l0.1,0.2l-0.1-0.2l0,0c0.3-0.1,0.6-0.3,0.8-0.4
		c0.3-0.1,0.6-0.3,0.9-0.4l0.1,0.2L13,8.5c0.1,0,0.2,0,0.2,0.1c0,0,0,0.1,0,0.1l0,1.9c0.2,0.2,0.4,0.4,0.5,0.6
		c0.1,0.3,0.2,0.6,0.2,1c0,0.4-0.1,0.7-0.2,1c-0.1,0.3-0.3,0.5-0.5,0.6l0,1.9h0c0,0.1-0.1,0.2-0.2,0.2c0,0-0.1,0-0.1,0
		c-0.3-0.1-0.6-0.3-0.8-0.4c-0.3-0.1-0.6-0.3-0.9-0.4c-0.5-0.2-1-0.4-1.5-0.6c-0.5-0.2-1-0.4-1.4-0.5h0v0h0v0l0,0l0.6,2.2l0,0
		c0,0.1,0,0.2-0.1,0.2c0,0,0,0-0.1,0l-0.9,0v0c-0.1,0-0.2-0.1-0.2-0.1L7,13.9l-0.5,0c-0.5,0-0.9-0.2-1.2-0.5
		c-0.3-0.3-0.5-0.7-0.5-1.2l0,0v0h0c0-0.5,0.2-0.9,0.5-1.2c0.3-0.3,0.7-0.5,1.2-0.5L8.3,10.5L8.3,10.5z M9.9,10.3
		c-0.4,0.2-0.9,0.4-1.4,0.5l0,2.8c0.5,0.2,0.9,0.3,1.4,0.5c0.5,0.2,1,0.4,1.5,0.6c0.3,0.1,0.6,0.3,0.9,0.4c0.2,0.1,0.4,0.2,0.6,0.3
		l0-1.7c0,0,0,0,0,0l0-3h0l0,0l0-1.7c-0.2,0.1-0.4,0.2-0.6,0.3c-0.3,0.1-0.6,0.3-0.9,0.4l0,0v0C10.9,9.9,10.4,10.1,9.9,10.3
		L9.9,10.3z M11.3,9.3c0.1,0,0.2,0,0.2,0.1L11.3,9.3L11.3,9.3z M13.2,11l0,2.3c0.1-0.1,0.1-0.2,0.2-0.3c0.1-0.2,0.2-0.5,0.2-0.8
		c0-0.3-0.1-0.6-0.2-0.8C13.4,11.2,13.3,11.1,13.2,11L13.2,11z M8.2,13.5l0-1.4l0-1.3l-1.7,0c-0.4,0-0.7,0.2-0.9,0.4
		c-0.2,0.2-0.4,0.6-0.4,1h0v0h0v0l0,0c0,0.4,0.2,0.7,0.4,0.9c0.2,0.2,0.6,0.4,1,0.4l0.6,0c0,0,0,0,0,0L8.2,13.5L8.2,13.5L8.2,13.5
		L8.2,13.5L8.2,13.5z M8.3,10.7l0.2,0v0L8.3,10.7L8.3,10.7z M8,13.9l-0.6,0l0.6,2l0.6,0L8,13.9L8,13.9z M14.5,8.2
		c-0.1,0-0.1,0.2-0.1,0.2c0,0.1,0.2,0.1,0.2,0.1l1.9-1.1c0.1,0,0.1-0.2,0.1-0.2s-0.2-0.1-0.2-0.1L14.5,8.2L14.5,8.2z M15.3,10
		c-0.1,0-0.2,0.1-0.1,0.2c0,0.1,0.1,0.1,0.2,0.1l2.1-0.6c0.1,0,0.1-0.1,0.1-0.2c0-0.1-0.1-0.2-0.2-0.1L15.3,10L15.3,10z M15.6,12
		c-0.1,0-0.2,0.1-0.2,0.2s0.1,0.2,0.2,0.2h2.1c0.1,0,0.2-0.1,0.2-0.2S17.9,12,17.8,12H15.6L15.6,12z M15.4,14c-0.1,0-0.2,0-0.2,0.1
		c0,0.1,0,0.2,0.1,0.2l2.1,0.6c0.1,0,0.2,0,0.2-0.1c0-0.1,0-0.2-0.1-0.2L15.4,14L15.4,14z M14.7,15.9c-0.1,0-0.2,0-0.2,0.1
		c0,0.1,0,0.2,0.1,0.2l1.9,1.1c0.1,0,0.2,0,0.2-0.1c0-0.1,0-0.2-0.1-0.2L14.7,15.9L14.7,15.9z"/>
	
		<path fill="none" stroke="#333333" stroke-width="0.4204" stroke-linecap="round" stroke-linejoin="round" stroke-miterlimit="22.9256" d="
		M5.2,0.3c1.6,0,2.8,1.3,2.8,2.8C8.1,4.7,6.8,6,5.2,6S2.4,4.7,2.4,3.2C2.4,1.6,3.7,0.3,5.2,0.3L5.2,0.3z"/>
	<polygon fill="#333333" points="5.1,4.8 5.7,4.8 5.7,1.6 5.3,1.6 4.2,2.1 4.4,2.5 5.1,2.2 5.1,4.8 	"/>
</g>
</svg>
