<?xml version="1.0" encoding="utf-8"?>
<!-- Generator: Adobe Illustrator 18.1.1, SVG Export Plug-In . SVG Version: 6.00 Build 0)  -->
<svg version="1.1" id="Layer_1" xmlns="http://www.w3.org/2000/svg" xmlns:xlink="http://www.w3.org/1999/xlink" x="0px" y="0px"
	 viewBox="0 0 22.6 23.4" enable-background="new 0 0 22.6 23.4" xml:space="preserve">
<g>
	
		<path fill="none" stroke="#333333" stroke-width="0.4204" stroke-linecap="round" stroke-linejoin="round" stroke-miterlimit="22.9256" d="
		M11.4,1.3c6,0,10.9,4.9,10.9,10.9c0,6-4.9,10.9-10.9,10.9c-6,0-10.9-4.9-10.9-10.9c0-2.7,1-5.3,2.7-7.2c0.5,0.6,1.3,1,2.1,1
		c1.6,0,2.8-1.3,2.8-2.8c0-0.5-0.1-0.9-0.3-1.3C8.9,1.5,10.1,1.3,11.4,1.3L11.4,1.3z"/>
	
		<path fill="none" stroke="#333333" stroke-width="0.3322" stroke-linecap="round" stroke-linejoin="round" stroke-miterlimit="22.9256" d="
		M11.8,15.1h1.7 M9.3,12.3h4.1 M9.3,11h4.1 M9.3,9.6h4.1 M9.3,8.3h4.1 M7.8,6.6H15v10.3H7.8V6.6L7.8,6.6z"/>
	
		<path fill="none" stroke="#333333" stroke-width="0.4204" stroke-linecap="round" stroke-linejoin="round" stroke-miterlimit="22.9256" d="
		M5.3,0.3c1.6,0,2.8,1.3,2.8,2.8C8.1,4.7,6.9,6,5.3,6C3.7,6,2.5,4.7,2.5,3.2C2.5,1.6,3.7,0.3,5.3,0.3L5.3,0.3z"/>
	<path fill="#333333" d="M4.3,4.7c0.1,0,0.2,0.1,0.3,0.1c0.1,0,0.2,0,0.3,0.1c0.1,0,0.2,0,0.3,0c0.2,0,0.4,0,0.6-0.1
		C5.9,4.7,6,4.7,6.1,4.6c0.1-0.1,0.2-0.2,0.2-0.3C6.4,4.1,6.5,4,6.5,3.9c0-0.1,0-0.2-0.1-0.3c0-0.1-0.1-0.2-0.2-0.2
		C6.1,3.2,6,3.2,5.9,3.2v0C6,3.1,6.2,3,6.2,2.9c0.1-0.1,0.1-0.3,0.1-0.4c0-0.1,0-0.2-0.1-0.3c0-0.1-0.1-0.2-0.2-0.3
		C6,1.8,5.9,1.7,5.8,1.7c-0.1,0-0.3-0.1-0.5-0.1c-0.1,0-0.3,0-0.4,0c-0.1,0-0.2,0.1-0.3,0.1c-0.1,0-0.2,0.1-0.3,0.1l0.2,0.4
		c0.1,0,0.2-0.1,0.2-0.1c0.1,0,0.2-0.1,0.3-0.1c0.1,0,0.2,0,0.3,0c0.1,0,0.2,0,0.3,0.1c0.1,0,0.1,0.1,0.2,0.1c0,0.1,0.1,0.1,0.1,0.2
		c0,0.2-0.1,0.3-0.2,0.3C5.5,2.9,5.3,3,5,3H4.7v0.5h0.4c0.1,0,0.2,0,0.2,0c0.1,0,0.1,0,0.2,0c0.1,0,0.2,0.1,0.3,0.1
		c0.1,0.1,0.1,0.2,0.1,0.3c0,0.2-0.1,0.3-0.2,0.4C5.5,4.3,5.4,4.4,5.1,4.4c-0.1,0-0.1,0-0.2,0c-0.1,0-0.2,0-0.2,0
		c-0.1,0-0.2-0.1-0.2-0.1L4.3,4.7L4.3,4.7z"/>
</g>
</svg>
