<?xml version="1.0" encoding="utf-8"?>
<!-- Generator: Adobe Illustrator 18.1.1, SVG Export Plug-In . SVG Version: 6.00 Build 0)  -->
<svg version="1.1" id="Layer_1" xmlns="http://www.w3.org/2000/svg" xmlns:xlink="http://www.w3.org/1999/xlink" x="0px" y="0px"
	 viewBox="0 0 22.7 23.7" enable-background="new 0 0 22.7 23.7" xml:space="preserve">
<g>
	
		<path fill-rule="evenodd" clip-rule="evenodd" fill="#00BFFF" stroke="#00BFFF" stroke-width="0.4203" stroke-linecap="round" stroke-linejoin="round" stroke-miterlimit="22.9256" d="
		M11.5,1.5c6,0,10.9,4.9,10.9,10.9c0,6-4.9,10.9-10.9,10.9c-6,0-10.9-4.9-10.9-10.9C0.6,6.4,5.5,1.5,11.5,1.5L11.5,1.5z"/>
	
		<path fill-rule="evenodd" clip-rule="evenodd" fill="#FFFFFF" stroke="#00BFFF" stroke-width="0.4204" stroke-linecap="round" stroke-linejoin="round" stroke-miterlimit="22.9256" d="
		M5.4,0.6c1.6,0,2.8,1.3,2.8,2.8c0,1.6-1.3,2.8-2.8,2.8C3.8,6.2,2.5,5,2.5,3.4C2.5,1.9,3.8,0.6,5.4,0.6L5.4,0.6z"/>
	<path fill="#00BFFF" d="M4,4.3h1.4v0.8H6V4.3h0.5V3.8H6v-2H5.6L4,3.9V4.3L4,4.3z M4.7,3.8l0.8-1.1c0,0,0,0.1,0,0.1
		c0,0.1,0,0.1,0,0.2c0,0.1,0,0.2,0,0.3v0.5H5.1c0,0-0.1,0-0.1,0c0,0-0.1,0-0.1,0C4.8,3.8,4.8,3.8,4.7,3.8C4.7,3.8,4.7,3.8,4.7,3.8
		L4.7,3.8z"/>
	
		<path fill="none" stroke="#FFFFFF" stroke-width="0.3322" stroke-linecap="round" stroke-linejoin="round" stroke-miterlimit="22.9256" d="
		M5,10.7l3.6-3.6l2-0.4l-0.4,2L9.3,9.6l7.3,7.3l-1.3,1.3L8,10.8l-1.4,1.4L5,10.7L5,10.7z M13,12.6l1.3-1.3c0.7,0.4,1.6,0.3,2.1-0.3
		c0.5-0.5,0.7-1.4,0.4-2l-1.3,1.3l-0.9-0.9L15.9,8c-0.7-0.3-1.5-0.2-2.1,0.3c-0.6,0.6-0.7,1.4-0.3,2.1l-1.3,1.3 M10.3,13.8l-0.9,0.9
		c-0.7-0.4-1.6-0.3-2.1,0.3c-0.6,0.6-0.7,1.4-0.3,2.1l1.3-1.3l0.9,0.9l-1.3,1.3c0.7,0.3,1.5,0.2,2-0.4c0.6-0.6,0.7-1.4,0.3-2.1
		l0.9-0.9"/>
</g>
</svg>
