<?xml version="1.0" encoding="utf-8"?>
<!-- Generator: Adobe Illustrator 18.1.1, SVG Export Plug-In . SVG Version: 6.00 Build 0)  -->
<svg version="1.1" id="Layer_1" xmlns="http://www.w3.org/2000/svg" xmlns:xlink="http://www.w3.org/1999/xlink" x="0px" y="0px"
	 viewBox="0 0 22.4 23.4" enable-background="new 0 0 22.4 23.4" xml:space="preserve">
<g>
	
		<path fill-rule="evenodd" clip-rule="evenodd" fill="#00BFFF" stroke="#00BFFF" stroke-width="0.4203" stroke-linecap="round" stroke-linejoin="round" stroke-miterlimit="22.9256" d="
		M11.2,1.3c6,0,10.9,4.9,10.9,10.9c0,6-4.9,10.9-10.9,10.9c-6,0-10.9-4.9-10.9-10.9C0.3,6.2,5.2,1.3,11.2,1.3L11.2,1.3z"/>
	
		<path fill="none" stroke="#FFFFFF" stroke-width="0.3322" stroke-linecap="round" stroke-linejoin="round" stroke-miterlimit="22.9256" d="
		M12.2,11.8l0.3-2C12.7,8.9,12.8,8,13,7.1c0,0-0.1,0-0.1,0c0,0-0.1,0-0.1,0c-0.4,0.8-0.8,1.6-1.3,2.4l-1,1.8
		c-0.2,0.1-0.3,0.3-0.4,0.6c-0.2,0.6,0.1,1.2,0.7,1.4c0.6,0.2,1.2-0.1,1.4-0.7C12.3,12.3,12.3,12.1,12.2,11.8L12.2,11.8z M3.9,12.2
		c0-4,3.3-7.3,7.3-7.3c4,0,7.3,3.3,7.3,7.3 M18.5,12.2h-5.4 M9.4,12.2H3.9 M15.8,9.5l1-0.6 M13.9,7.6l0.6-1 M11.2,6.9V5.7 M6.6,9.5
		l-1-0.6 M8.5,7.6l-0.6-1"/>
	
		<path fill-rule="evenodd" clip-rule="evenodd" fill="#FFFFFF" stroke="#00BFFF" stroke-width="0.4204" stroke-linecap="round" stroke-linejoin="round" stroke-miterlimit="22.9256" d="
		M4.7,0.4c1.6,0,2.8,1.3,2.8,2.8C7.5,4.8,6.2,6,4.7,6C3.1,6,1.8,4.8,1.8,3.2C1.8,1.7,3.1,0.4,4.7,0.4L4.7,0.4z"/>
	<path fill="#00BFFF" d="M3.6,4.9h2.2V4.4H4.4c0-0.1,0.1-0.2,0.1-0.3C4.6,4,4.6,3.9,4.7,3.8C4.8,3.7,4.9,3.7,5,3.6
		c0.1-0.1,0.2-0.1,0.3-0.2c0.1-0.1,0.2-0.2,0.3-0.2C5.6,3,5.7,3,5.7,2.9c0-0.1,0.1-0.2,0.1-0.3c0-0.1,0-0.2-0.1-0.3
		c0-0.1-0.1-0.2-0.2-0.3C5.4,1.8,5.3,1.8,5.2,1.7c-0.1,0-0.3-0.1-0.4-0.1c-0.1,0-0.3,0-0.4,0C4.2,1.7,4.1,1.8,4,1.8
		c-0.1,0-0.2,0.1-0.3,0.1l0.2,0.4c0.1,0,0.2-0.1,0.2-0.1c0.1,0,0.2-0.1,0.3-0.1c0.1,0,0.2,0,0.3,0c0.1,0,0.1,0,0.2,0
		c0.1,0,0.1,0,0.2,0.1c0,0,0.1,0.1,0.1,0.1c0,0.1,0,0.1,0,0.2c0,0.1,0,0.2-0.1,0.3C5,2.9,5,3,4.9,3C4.8,3.1,4.7,3.2,4.6,3.3
		C4.5,3.3,4.4,3.4,4.3,3.5C4.2,3.6,4.1,3.7,4,3.8C3.9,4,3.8,4.1,3.7,4.3C3.7,4.5,3.6,4.7,3.6,4.9L3.6,4.9z"/>
</g>
</svg>
