<?xml version="1.0" encoding="utf-8"?>
<!-- Generator: Adobe Illustrator 18.1.1, SVG Export Plug-In . SVG Version: 6.00 Build 0)  -->
<svg version="1.1" id="Layer_1" xmlns="http://www.w3.org/2000/svg" xmlns:xlink="http://www.w3.org/1999/xlink" x="0px" y="0px"
	 viewBox="0 0 22.7 23.4" enable-background="new 0 0 22.7 23.4" xml:space="preserve">
<g>
	
		<path fill="none" stroke="#333333" stroke-width="0.4204" stroke-linecap="round" stroke-linejoin="round" stroke-miterlimit="22.9256" d="
		M11.4,1.3c6,0,10.9,4.9,10.9,10.9c0,6-4.9,10.9-10.9,10.9c-6,0-10.9-4.9-10.9-10.9c0-2.6,0.9-5,2.5-6.9C3.4,5.8,4.1,6,4.8,6
		c1.6,0,2.8-1.3,2.8-2.8c0-0.4-0.1-0.8-0.2-1.1C8.6,1.6,10,1.3,11.4,1.3L11.4,1.3z"/>
	
		<path fill="none" stroke="#333333" stroke-width="0.4204" stroke-linecap="round" stroke-linejoin="round" stroke-miterlimit="22.9256" d="
		M4.8,0.4c1.6,0,2.8,1.3,2.8,2.8C7.7,4.8,6.4,6,4.8,6S2,4.8,2,3.2C2,1.6,3.3,0.4,4.8,0.4L4.8,0.4z"/>
	<path fill="#333333" d="M3.8,4.7C3.9,4.8,4,4.8,4.2,4.9c0.1,0,0.3,0,0.5,0c0.2,0,0.4,0,0.6-0.1c0.2-0.1,0.3-0.1,0.4-0.2
		c0.1-0.1,0.2-0.2,0.2-0.3C5.9,4.1,5.9,4,5.9,3.8c0-0.1,0-0.2-0.1-0.3c0-0.1-0.1-0.2-0.2-0.3C5.6,3.1,5.5,3,5.3,3
		C5.3,3,5.2,2.9,5.1,2.9c-0.1,0-0.2,0-0.3,0H4.6V2.2h1.2l0.1-0.5H4v1.7h0.4c0.1,0,0.2,0,0.3,0c0.1,0,0.2,0,0.2,0.1
		c0.1,0,0.2,0.1,0.2,0.2c0,0.1,0.1,0.2,0.1,0.3c0,0.1,0,0.2-0.1,0.2c0,0.1-0.1,0.1-0.2,0.2C5,4.3,5,4.4,4.9,4.4s-0.2,0-0.3,0
		c-0.1,0-0.2,0-0.3,0C4.1,4.4,4,4.3,4,4.3L3.8,4.7L3.8,4.7z"/>
	
		<path fill="none" stroke="#333333" stroke-width="0.3322" stroke-linecap="round" stroke-linejoin="round" stroke-miterlimit="22.9256" d="
		M7.6,8.6c2-2,5.2-2,7.1,0c2,2,2,5.2,0,7.1c-2,2-5.2,2-7.1,0C5.7,13.8,5.7,10.6,7.6,8.6L7.6,8.6z M14.4,16.1l0.7-0.7l1.1,1.1
		c-0.1,0.1-0.3,0.1-0.4,0.3l0,0c-0.1,0.1-0.2,0.3-0.3,0.4L14.4,16.1L14.4,16.1z M17.6,20.1l-1.9-1.9c-0.4-0.4-0.4-1.1,0-1.6l0,0
		c0.4-0.4,1.1-0.4,1.6,0l1.8,1.8 M8.2,9.2c1.7-1.7,4.4-1.7,6.1,0c1.7,1.7,1.7,4.4,0,6.1c-1.7,1.7-4.4,1.7-6.1,0
		C6.5,13.6,6.5,10.8,8.2,9.2L8.2,9.2z M8.2,13.9h1.4v-1.8H8.2V13.9L8.2,13.9z M10.4,13.9h1.4v-2.8h-1.4V13.9L10.4,13.9z M12.6,13.9
		H14v-3.8h-1.4V13.9L12.6,13.9z"/>
</g>
</svg>
