<?xml version="1.0" encoding="utf-8"?>
<!-- Generator: Adobe Illustrator 18.1.1, SVG Export Plug-In . SVG Version: 6.00 Build 0)  -->
<svg version="1.1" id="Layer_1" xmlns="http://www.w3.org/2000/svg" xmlns:xlink="http://www.w3.org/1999/xlink" x="0px" y="0px"
	 viewBox="0 0 22.5 23.4" enable-background="new 0 0 22.5 23.4" xml:space="preserve">
<g>
	
		<path fill-rule="evenodd" clip-rule="evenodd" fill="#00BFFF" stroke="#00BFFF" stroke-width="0.4203" stroke-linecap="round" stroke-linejoin="round" stroke-miterlimit="22.9256" d="
		M11.3,1.3c6,0,10.9,4.9,10.9,10.9c0,6-4.9,10.9-10.9,10.9c-6,0-10.9-4.9-10.9-10.9C0.4,6.2,5.3,1.3,11.3,1.3L11.3,1.3z"/>
	
		<path fill-rule="evenodd" clip-rule="evenodd" fill="#FFFFFF" stroke="#00BFFF" stroke-width="0.4204" stroke-linecap="round" stroke-linejoin="round" stroke-miterlimit="22.9256" d="
		M4.7,0.3c1.6,0,2.8,1.3,2.8,2.8C7.6,4.7,6.3,6,4.7,6C3.2,6,1.9,4.7,1.9,3.2C1.9,1.6,3.2,0.3,4.7,0.3L4.7,0.3z"/>
	<path fill="#00BFFF" d="M3.7,4.7c0.1,0.1,0.2,0.1,0.4,0.1c0.1,0,0.3,0,0.5,0c0.2,0,0.4,0,0.6-0.1c0.2-0.1,0.3-0.1,0.4-0.2
		c0.1-0.1,0.2-0.2,0.2-0.3c0.1-0.1,0.1-0.3,0.1-0.4c0-0.1,0-0.2-0.1-0.3c0-0.1-0.1-0.2-0.2-0.3C5.5,3.1,5.4,3,5.3,3
		C5.2,2.9,5.1,2.9,5,2.9c-0.1,0-0.2,0-0.3,0H4.5V2.1h1.2l0.1-0.5H4v1.7h0.4c0.1,0,0.2,0,0.3,0c0.1,0,0.2,0,0.2,0.1
		c0.1,0,0.2,0.1,0.2,0.2c0,0.1,0.1,0.2,0.1,0.3c0,0.1,0,0.2-0.1,0.2c0,0.1-0.1,0.1-0.2,0.2c-0.1,0-0.1,0.1-0.2,0.1
		c-0.1,0-0.2,0-0.3,0c-0.1,0-0.2,0-0.3,0C4.1,4.3,4,4.3,3.9,4.2L3.7,4.7L3.7,4.7z"/>
	
		<path fill="none" stroke="#FFFFFF" stroke-width="0.3322" stroke-linecap="round" stroke-linejoin="round" stroke-miterlimit="22.9256" d="
		M7.6,8.6c2-2,5.2-2,7.1,0c2,2,2,5.2,0,7.1c-2,2-5.2,2-7.1,0C5.6,13.8,5.6,10.6,7.6,8.6L7.6,8.6z M14.3,16.1l0.7-0.7l1.1,1.1
		c-0.1,0.1-0.3,0.1-0.4,0.3l0,0c-0.1,0.1-0.2,0.3-0.3,0.4L14.3,16.1L14.3,16.1z M17.5,20.1l-1.9-1.9c-0.4-0.4-0.4-1.1,0-1.6l0,0
		c0.4-0.4,1.1-0.4,1.6,0l1.8,1.8 M8.1,9.1c1.7-1.7,4.4-1.7,6.1,0c1.7,1.7,1.7,4.4,0,6.1c-1.7,1.7-4.4,1.7-6.1,0
		C6.4,13.5,6.4,10.8,8.1,9.1L8.1,9.1z M8.1,13.9h1.4v-1.8H8.1V13.9L8.1,13.9z M10.3,13.9h1.4v-2.8h-1.4V13.9L10.3,13.9z M12.5,13.9
		H14v-3.8h-1.4V13.9L12.5,13.9z"/>
</g>
</svg>
