<?xml version="1.0" encoding="utf-8"?>
<!-- Generator: Adobe Illustrator 19.1.1, SVG Export Plug-In . SVG Version: 6.00 Build 0)  -->
<svg version="1.1" id="Слой_1" xmlns="http://www.w3.org/2000/svg" xmlns:xlink="http://www.w3.org/1999/xlink" x="0px" y="0px"
	 viewBox="0 0 22.4 22.4" style="enable-background:new 0 0 22.4 22.4;" xml:space="preserve">
<style type="text/css">
	.st0{fill:none;stroke:#FFFFFF;stroke-width:0.4373;stroke-linecap:round;stroke-linejoin:round;stroke-miterlimit:22.9256;}
	.st1{fill:none;stroke:#FFFFFF;stroke-width:0.3672;stroke-linecap:round;stroke-linejoin:round;stroke-miterlimit:22.9256;}
	.st2{fill:none;stroke:#FFFFFF;stroke-width:0.3668;stroke-linecap:round;stroke-linejoin:round;stroke-miterlimit:22.9256;}
	.st3{fill:none;stroke:#FFFFFF;stroke-width:0.3669;stroke-linecap:round;stroke-linejoin:round;stroke-miterlimit:22.9256;}
</style>
<g>
	<path class="st0" d="M11.2,0.3c6,0,10.9,4.9,10.9,10.9s-4.9,10.9-10.9,10.9S0.3,17.3,0.3,11.2S5.2,0.3,11.2,0.3L11.2,0.3z"/>
	<path class="st1" d="M4.5,6.1H18c0.3,0,0.6,0.2,0.6,0.6v8H3.9v-8C3.9,6.4,4.2,6.1,4.5,6.1L4.5,6.1z"/>
	<path class="st2" d="M4.6,6.1h13.3c0.4,0,0.7,0.3,0.7,0.7v8.8c0,0.4-0.3,0.7-0.7,0.7H4.6c-0.4,0-0.7-0.3-0.7-0.7V6.8
		C3.9,6.4,4.2,6.1,4.6,6.1L4.6,6.1z"/>
	<path class="st3" d="M8.9,16.2c0.8,0,1.6,0,2.3,0c0.8,0,1.6,0,2.3,0c0.1,0.3,0.3,0.5,0.4,0.8c0.1,0.3,0.3,0.5,0.4,0.8
		c-1.1,0-2.1,0-3.2,0c-1.1,0-2.1,0-3.2,0c0.1-0.3,0.3-0.5,0.4-0.8C8.6,16.8,8.8,16.5,8.9,16.2L8.9,16.2z"/>
	<path class="st1" d="M6.8,14.7h1.4V12H6.8V14.7L6.8,14.7z M9.3,14.7h1.4v-4H9.3V14.7L9.3,14.7z M11.8,14.7h1.4V9.4h-1.4V14.7
		L11.8,14.7z M14.3,14.7h1.4V7.6h-1.4V14.7L14.3,14.7z"/>
</g>
</svg>
