<?xml version="1.0" encoding="utf-8"?>
<!-- Generator: Adobe Illustrator 19.1.1, SVG Export Plug-In . SVG Version: 6.00 Build 0)  -->
<svg version="1.1" id="Слой_1" xmlns="http://www.w3.org/2000/svg" xmlns:xlink="http://www.w3.org/1999/xlink" x="0px" y="0px"
	 viewBox="0 0 22.6 22.6" style="enable-background:new 0 0 22.6 22.6;" xml:space="preserve">
<style type="text/css">
	.st0{fill:none;stroke:#FFFFFF;stroke-width:0.4373;stroke-linecap:round;stroke-linejoin:round;stroke-miterlimit:22.9256;}
	.st1{fill:none;stroke:#FFFFFF;stroke-width:0.317;stroke-linecap:round;stroke-linejoin:round;stroke-miterlimit:22.9256;}
	.st2{fill:none;stroke:#FFFFFF;stroke-width:0.3455;stroke-linecap:round;stroke-linejoin:round;stroke-miterlimit:22.9256;}
	.st3{fill:none;stroke:#FFFFFF;stroke-width:0.3672;stroke-linecap:round;stroke-linejoin:round;stroke-miterlimit:22.9256;}
</style>
<g>
	<path class="st0" d="M11.3,0.4c6,0,10.9,4.9,10.9,10.9s-4.9,10.9-10.9,10.9c-6,0-10.9-4.9-10.9-10.9S5.3,0.4,11.3,0.4L11.3,0.4z"/>
	<path class="st1" d="M5.2,10.1c0.4,0,0.8,0.3,0.8,0.8c0,0.4-0.3,0.8-0.8,0.8s-0.8-0.3-0.8-0.8C4.4,10.5,4.8,10.1,5.2,10.1L5.2,10.1
		z M6.2,12.6v1.5v0.3v2.3H5.5c0-0.8,0-1.5,0-2.3c-0.1-0.1-0.2-0.1-0.3-0.1c-0.1,0-0.2,0-0.3,0.1v2.3H4.3v-2.3v-0.3v-1.4 M6.2,14.2
		c0.5,0,0.6-0.3,0.6-0.7v-1.1c0-0.4-0.2-0.5-0.6-0.5 M4.3,11.9c0,0,0.3,0.4,0.9,0.4c0.6,0,1-0.4,1-0.4 M4.3,14.2
		c-0.5,0-0.6-0.3-0.6-0.7v-1.1c0-0.4,0.2-0.5,0.6-0.5"/>
	<path class="st2" d="M10.3,8.3c0.5,0,1,0.4,1,1c0,0.5-0.4,1-1,1c-0.5,0-1-0.4-1-1C9.3,8.8,9.8,8.3,10.3,8.3L10.3,8.3z M11.5,11.5v2
		v0.4v2.9h-0.8c0-1,0-1.9,0-2.9c-0.1-0.1-0.2-0.2-0.3-0.2c-0.1,0-0.3,0-0.4,0.2v2.9H9.2v-2.9v-0.4v-1.8 M11.6,13.5
		c0.7,0,0.7-0.4,0.7-0.8v-1.4c0-0.5-0.3-0.7-0.8-0.7 M9.2,10.5c0,0,0.3,0.6,1.2,0.6c0.8,0,1.2-0.6,1.2-0.6 M9.1,13.5
		c-0.7,0-0.7-0.4-0.7-0.8v-1.4c0-0.5,0.3-0.7,0.8-0.7"/>
	<path class="st3" d="M16.3,5.6c0.7,0,1.3,0.6,1.3,1.3S17,8.2,16.3,8.2S15,7.6,15,6.9S15.6,5.6,16.3,5.6L16.3,5.6z M17.9,9.8v2.6
		v0.5v3.9h-1.1c0-1.3,0-2.6,0-3.9c-0.1-0.2-0.3-0.2-0.4-0.2c-0.2,0-0.4,0-0.5,0.2v3.8h-1.1v-3.8v-0.5V10 M17.9,12.4
		c0.9,0,1-0.5,1-1.1V9.4c0-0.7-0.4-0.9-1-0.9 M14.7,8.5c0,0,0.5,0.8,1.5,0.8c1.1,0,1.6-0.8,1.6-0.8 M14.7,12.4c-0.9,0-1-0.5-1-1.1
		V9.4c0-0.7,0.4-0.9,1-0.9"/>
</g>
</svg>
