<?xml version="1.0" encoding="utf-8"?>
<!-- Generator: Adobe Illustrator 18.1.1, SVG Export Plug-In . SVG Version: 6.00 Build 0)  -->
<svg version="1.1" id="Layer_1" xmlns="http://www.w3.org/2000/svg" xmlns:xlink="http://www.w3.org/1999/xlink" x="0px" y="0px"
	 viewBox="0 0 22.3 23.3" enable-background="new 0 0 22.3 23.3" xml:space="preserve">
<g>
	
		<path fill-rule="evenodd" clip-rule="evenodd" fill="#00BFFF" stroke="#00BFFF" stroke-width="0.4203" stroke-linecap="round" stroke-linejoin="round" stroke-miterlimit="22.9256" d="
		M11.2,1.2c6,0,10.9,4.9,10.9,10.9c0,6-4.9,10.9-10.9,10.9c-6,0-10.9-4.9-10.9-10.9C0.3,6.1,5.2,1.2,11.2,1.2L11.2,1.2z"/>
	<path fill="#FFFFFF" d="M8.1,10.4c0.5-0.2,1-0.4,1.5-0.6c0.5-0.2,1-0.4,1.5-0.6l0.1,0.2l-0.1-0.2l0,0c0.3-0.1,0.6-0.3,0.8-0.4
		c0.3-0.1,0.6-0.3,0.9-0.4l0.1,0.2l-0.1-0.2c0.1,0,0.2,0,0.2,0.1c0,0,0,0.1,0,0.1l0,1.9c0.2,0.2,0.4,0.4,0.5,0.6
		c0.1,0.3,0.2,0.6,0.2,1c0,0.4-0.1,0.7-0.2,1c-0.1,0.3-0.3,0.5-0.5,0.6l0,1.9h0c0,0.1-0.1,0.2-0.2,0.2c0,0-0.1,0-0.1,0
		c-0.3-0.1-0.6-0.3-0.8-0.4c-0.3-0.1-0.6-0.3-0.9-0.4c-0.5-0.2-1-0.4-1.5-0.6c-0.5-0.2-1-0.4-1.4-0.5h0v0h0v0l0,0L8.7,16l0,0
		c0,0.1,0,0.2-0.1,0.2c0,0,0,0-0.1,0l-0.9,0v0c-0.1,0-0.2-0.1-0.2-0.1l-0.6-2.3l-0.5,0c-0.5,0-0.9-0.2-1.2-0.5
		c-0.3-0.3-0.5-0.7-0.5-1.2l0,0v0h0c0-0.5,0.2-0.9,0.5-1.2c0.3-0.3,0.7-0.5,1.2-0.5L8.1,10.4L8.1,10.4z M9.7,10.2
		c-0.4,0.2-0.9,0.4-1.4,0.5l0,2.8c0.5,0.2,0.9,0.3,1.4,0.5c0.5,0.2,1,0.4,1.5,0.6c0.3,0.1,0.6,0.3,0.9,0.4c0.2,0.1,0.4,0.2,0.6,0.3
		l0-1.7c0,0,0,0,0,0l0-3h0l0,0l0-1.7c-0.2,0.1-0.4,0.2-0.6,0.3c-0.3,0.1-0.6,0.3-0.9,0.4l0,0v0C10.7,9.8,10.2,10,9.7,10.2L9.7,10.2z
		 M11.1,9.2c0.1,0,0.2,0,0.2,0.1L11.1,9.2L11.1,9.2z M13.1,11l0,2.3c0.1-0.1,0.1-0.2,0.2-0.3c0.1-0.2,0.2-0.5,0.2-0.8
		c0-0.3-0.1-0.6-0.2-0.8C13.2,11.2,13.1,11,13.1,11L13.1,11z M8,13.5l0-1.4l0-1.3l-1.7,0c-0.4,0-0.7,0.2-0.9,0.4
		c-0.2,0.2-0.4,0.6-0.4,1h0v0h0v0l0,0c0,0.4,0.2,0.7,0.4,0.9c0.2,0.2,0.6,0.4,1,0.4l0.6,0c0,0,0,0,0,0L8,13.5L8,13.5L8,13.5L8,13.5
		L8,13.5z M8.2,10.6l0.2,0v0L8.2,10.6L8.2,10.6z M7.8,13.8l-0.6,0l0.6,2l0.6,0L7.8,13.8L7.8,13.8z M14.4,8.1c-0.1,0-0.1,0.2-0.1,0.2
		c0,0.1,0.2,0.1,0.2,0.1l1.9-1.1c0.1,0,0.1-0.2,0.1-0.2S16.3,7,16.2,7L14.4,8.1L14.4,8.1z M15.2,9.9c-0.1,0-0.2,0.1-0.1,0.2
		c0,0.1,0.1,0.1,0.2,0.1l2.1-0.6c0.1,0,0.1-0.1,0.1-0.2c0-0.1-0.1-0.2-0.2-0.1L15.2,9.9L15.2,9.9z M15.5,11.9
		c-0.1,0-0.2,0.1-0.2,0.2s0.1,0.2,0.2,0.2h2.1c0.1,0,0.2-0.1,0.2-0.2s-0.1-0.2-0.2-0.2H15.5L15.5,11.9z M15.2,13.9
		c-0.1,0-0.2,0-0.2,0.1c0,0.1,0,0.2,0.1,0.2l2.1,0.6c0.1,0,0.2,0,0.2-0.1c0-0.1,0-0.2-0.1-0.2L15.2,13.9L15.2,13.9z M14.5,15.8
		c-0.1,0-0.2,0-0.2,0.1c0,0.1,0,0.2,0.1,0.2l1.9,1.1c0.1,0,0.2,0,0.2-0.1c0-0.1,0-0.2-0.1-0.2L14.5,15.8L14.5,15.8z"/>
	
		<path fill-rule="evenodd" clip-rule="evenodd" fill="#FFFFFF" stroke="#00BFFF" stroke-width="0.4204" stroke-linecap="round" stroke-linejoin="round" stroke-miterlimit="22.9256" d="
		M5.1,0.3c1.6,0,2.8,1.3,2.8,2.8c0,1.6-1.3,2.8-2.8,2.8c-1.6,0-2.8-1.3-2.8-2.8C2.2,1.5,3.5,0.3,5.1,0.3L5.1,0.3z"/>
	<polygon fill="#00BFFF" points="5,4.7 5.5,4.7 5.5,1.5 5.1,1.5 4,2 4.2,2.5 5,2.1 5,4.7 	"/>
</g>
</svg>
