<?xml version="1.0" encoding="utf-8"?>
<!-- Generator: Adobe Illustrator 19.1.1, SVG Export Plug-In . SVG Version: 6.00 Build 0)  -->
<svg version="1.1" id="Слой_1" xmlns="http://www.w3.org/2000/svg" xmlns:xlink="http://www.w3.org/1999/xlink" x="0px" y="0px"
	 viewBox="0 0 19.3 20.1" style="enable-background:new 0 0 19.3 20.1;" xml:space="preserve">
<style type="text/css">
	.st0{fill:none;stroke:#FFFFFF;stroke-width:0.8791;stroke-linecap:round;stroke-linejoin:round;stroke-miterlimit:22.9256;}
	.st1{fill:none;stroke:#FFFFFF;stroke-width:0.8794;stroke-linecap:round;stroke-linejoin:round;stroke-miterlimit:22.9256;}
	.st2{fill:none;stroke:#FFFFFF;stroke-width:0.8803;stroke-linecap:round;stroke-linejoin:round;stroke-miterlimit:22.9256;}
</style>
<g>
	<path class="st0" d="M2.6,19.8c0,0-3-10.3-1.9-14.2c1.9-6.7,16.1-6.7,17.9,0c1.1,3.9-1.9,14.2-1.9,14.2L14,19.3
		c-0.7-0.1-0.6,0-0.4-0.9c0.3-2.2,1.1-8.7,0.3-10c-1.2-1.9-7.3-1.9-8.5,0c-0.9,1.4,0.1,8.3,0.4,10.3c0.1,0.6,0.2,0.5-0.3,0.6
		L2.6,19.8L2.6,19.8z"/>
	<line class="st0" x1="1.9" y1="17" x2="5.4" y2="16.3"/>
	<line class="st0" x1="13.9" y1="16.5" x2="17.4" y2="17.2"/>
	<path class="st1" d="M5.3,24.4c1-0.9,2-1.3,2.3-1c0.3,0.3-0.3,1.3-1.3,2.2c-1,0.9-2,1.3-2.3,1S4.3,25.3,5.3,24.4L5.3,24.4z"/>
	<path class="st2" d="M12.2,27.7c1.3,0,2.4,0.6,2.4,1.2s-1.1,1.2-2.4,1.2c-1.3,0-2.4-0.6-2.4-1.2C9.8,28.2,10.8,27.7,12.2,27.7
		L12.2,27.7z"/>
	<path class="st1" d="M14.6,36.9c-0.1-1.3,0.1-2.4,0.5-2.5c0.4,0,0.9,1,1,2.3c0.1,1.3-0.1,2.4-0.5,2.5
		C15.2,39.3,14.7,38.3,14.6,36.9L14.6,36.9z"/>
	<path class="st2" d="M6.7,35.2c0.8-1,1.9-1.6,2.4-1.1c0.5,0.4,0.3,1.6-0.5,2.6c-0.8,1-1.9,1.6-2.4,1.1C5.7,37.5,5.9,36.3,6.7,35.2
		L6.7,35.2z"/>
</g>
</svg>
